<?xml version="1.0" encoding="utf-8"?>
<!-- Generator: Adobe Illustrator 16.0.0, SVG Export Plug-In . SVG Version: 6.00 Build 0)  -->
<!DOCTYPE svg PUBLIC "-//W3C//DTD SVG 1.1//EN" "http://www.w3.org/Graphics/SVG/1.1/DTD/svg11.dtd">
<svg version="1.1" xmlns="http://www.w3.org/2000/svg" xmlns:xlink="http://www.w3.org/1999/xlink" x="0px" y="0px" width="1000px"
	 height="138px" viewBox="0 0 1000 138" enable-background="new 0 0 1000 138" xml:space="preserve">
<g id="Ebene_1" display="none">
	<g display="inline">
		<path fill="#9A9B9C" d="M942.573,284.898l-15.658,26.412h27.543l28.486-26.412 M985.021,445.256v-35.278h-33.205v-12.073h29.244
			V363.19h-29.244v-9.998h32.639v-35.09h-77.537v127.153H985.021z M901.05,353.947v-35.845h-73.387v127.153h44.9v-43.955h24.713
			v-35.468h-24.713v-11.885H901.05z M773.257,396.395h-9.623l4.525-39.619h0.566L773.257,396.395z M824.948,445.256l-21.32-127.153
			h-67.35l-21.883,127.153h43.578l1.699-14.525h17.545l1.51,14.525H824.948z M714.188,439.784l-8.488-33.768
			c-4.34,2.451-10.188,4.338-14.338,4.338c-5.66,0-11.885-2.453-11.885-28.675c0-25.469,5.281-29.619,13.207-29.619
			c4.338,0,9.055,1.509,12.639,3.395l8.301-32.636c-8.867-5.472-18.488-7.925-29.996-7.925c-33.014,0-50.369,23.77-50.369,67.162
			c0,48.86,14.713,66.406,47.918,66.406C694.757,448.463,705.323,444.879,714.188,439.784"/>
	</g>
	<path display="inline" fill="#D7D8D9" d="M480.103,474.843c2.654,0,4.803-5.264,4.803-11.757c0-6.492-2.148-11.755-4.803-11.755
		c-2.65,0-4.801,5.263-4.801,11.755C475.302,469.579,477.452,474.843,480.103,474.843"/>
	<path display="inline" fill="#D7D8D9" d="M569.399,489.033c5.303,0,9.604-6.819,9.604-15.233c0-8.41-4.301-15.231-9.604-15.231
		c-5.301,0-9.604,6.821-9.604,15.231C559.796,482.214,564.099,489.033,569.399,489.033"/>
	<polygon display="inline" fill="#FFFFFF" points="676.866,451.537 659.804,388.369 601.257,383.266 456.099,404.387 
		453.407,410.341 452.413,445.639 630.743,457.262 675.679,456.127 	"/>
	<path display="inline" fill="#D7D8D9" d="M678.733,451.41l-16.838-61.555l-0.439-0.159c-1.461-4.558-9.881-7.804-9.881-7.804
		l-13.576-2.979l-32.451-3.644l-7.947,0.661l-139.076,23.842c-5.959,1.987-6.291,13.576-6.291,13.576l-0.33,14.571l-0.996,33.443
		l11.924,5.299l10.264-0.663c0,0,0.664,1.324,1.324,1.324c-0.854-3.847-0.549-9.32,0.359-12.246
		c1.205-3.873,3.285-4.641,3.285-4.641c8.771-3.107,9.27,11.258,9.27,11.258v8.941l2.65-0.334l67.881,8.279l1.656-16.887
		c0.996-8.941,10.596-7.285,10.596-7.285c7.947,0.661,9.936,16.888,9.936,16.888l1.324,10.266l33.775,4.636h4.305l36.092-1.325
		l18.545-2.317l3.311-3.643l1.326-21.193L678.733,451.41z M591.31,419.972l-69.869,2.979l-65.896,2.982
		c-3.311-14.901,0.994-19.869,0.994-19.869s116.889-15.894,134.771-20.198c17.879-4.305,18.213,12.913,18.213,12.913l6.955,30.797
		L591.31,419.972z M674.827,453.576l-8.941-0.287l-12.984-0.203l-5.344-0.389l-13.789-0.444c-6.178,0.639-9.25-4.297-10.518-7.217
		c-0.648-1.27-0.814-2.215-0.814-2.215l-0.238-1.002c-1.863-7.01-11.545-43.783-10.947-49.172c0-0.003,0.002-0.005,0.002-0.008
		l-0.074-0.483c0.15-0.749,0.438-1.388,0.801-1.955c1.883-3.696,6.557-4.176,6.557-4.176c15.662-1.011,31.316,1.831,37.861,3.238
		l2.908,0.326l0.104,0.362c0.115,0.029,0.188,0.047,0.188,0.047l17.27,61.539L674.827,453.576z"/>
	<g display="inline">
		<path fill="#9A9B9C" d="M541.599,381.302c0,21.696-4.338,30.184-13.584,30.184c-0.943,0-3.018-0.188-4.717-0.188v-59.803
			c1.51-0.189,3.584-0.189,4.527-0.189C538.579,351.305,541.599,360.55,541.599,381.302 M587.63,380.925
			c0-53.579-19.434-63.388-60.936-63.388c-15.846,0-32.637,0.189-47.92,0.376v127.154c10.756,0.189,22.074,0.377,43.203,0.377
			C567.821,445.444,587.63,426.202,587.63,380.925 M475.005,445.067v-35.654h-22.264v-91.5h-45.277v127.154H475.005z
			 M353.926,359.418c0,3.961-0.755,8.302-9.056,8.302h-2.829v-16.603c1.13-0.189,1.885-0.189,2.64-0.189
			C353.36,350.928,353.926,355.268,353.926,359.418 M403.165,445.067l-16.037-55.275c7.926-6.227,12.643-17.734,12.643-32.639
			c0-25.278-16.98-39.617-51.316-39.617c-16.414,0-38.108,0-50.56,0.376v127.154h44.147v-44.521h1.885l8.491,44.521H403.165z
			 M244.074,381.302c0,24.336-3.206,30.94-11.696,30.94c-8.489,0-10.943-7.735-10.943-30.751c0-24.715,3.207-31.315,11.697-31.315
			C241.621,350.176,244.074,357.909,244.074,381.302 M291.239,380.925c0-38.863-8.49-66.406-57.352-66.406h-1.509
			c-33.77,0-58.105,16.036-58.105,67.35c0,39.428,8.488,66.595,57.351,66.595h1.509C267.09,448.463,291.239,432.616,291.239,380.925
			 M177.064,317.913h-44.521l-3.775,48.674l-2.64,28.487h-0.189l-3.208-28.487l-5.282-48.674H68.398l-3.961,48.674l-3.206,28.487
			h-0.189l-2.453-28.487l-5.282-48.674H8.031l18.111,127.154h59.049l3.206-33.203l1.699-21.129h0.188l2.263,21.129l3.208,33.203
			h57.351L177.064,317.913z"/>
	</g>
	<g display="inline">
		<path fill="#981020" d="M911.073,570.695c40.402,0,73.154-32.752,73.154-73.156c0-40.4-32.752-73.153-73.154-73.153
			c-40.4,0-73.154,32.753-73.154,73.153C837.919,537.943,870.673,570.695,911.073,570.695"/>
		<path fill="#9A9B9C" d="M872.782,266.854c0,2.279-0.436,4.775-5.207,4.775h-1.629v-9.547c0.65-0.108,1.086-0.108,1.52-0.108
			C872.458,261.973,872.782,264.467,872.782,266.854 M901.099,316.109l-9.223-31.787c4.557-3.581,7.27-10.2,7.27-18.77
			c0-14.537-9.764-22.784-29.508-22.784c-9.439,0-21.918,0-29.078,0.22v73.122h25.387v-25.604h1.086l4.883,25.604H901.099z
			 M835.386,316.109v-20.288h-19.094v-6.942h16.816v-19.964h-16.816v-5.75h18.768v-20.177h-44.59v73.122H835.386z M784.558,316.109
			v-73.122H761.45v22.24l-10.74-22.24h-27.449v73.122h23.326v-25.061l11.281,25.061H784.558z M718.087,316.109v-20.288h-19.096
			v-6.942h16.816v-19.964h-16.816v-5.75h18.77v-20.177h-44.59v73.122H718.087z M671.849,242.988h-25.604l-3.908,36.886
			l-0.975,11.715l-0.977-11.715l-4.447-36.886h-25.932l12.371,73.122h36.451L671.849,242.988z M584.372,288.01h-5.533l2.602-22.783
			h0.328L584.372,288.01z M614.097,316.109l-12.258-73.122h-38.732l-12.584,73.122h25.062l0.977-8.355h10.088l0.871,8.355H614.097z
			 M549.038,316.109v-73.122h-26.039v24.95h-9.764v-24.95h-26.037v73.122h26.037V289.42h9.764v26.689H549.038z M456.333,266.854
			c0,2.279-0.436,4.775-5.209,4.775h-1.625v-9.547c0.648-0.108,1.084-0.108,1.518-0.108
			C456.007,261.973,456.333,264.467,456.333,266.854 M484.647,316.109l-9.221-31.787c4.557-3.581,7.268-10.2,7.268-18.77
			c0-14.537-9.764-22.784-29.506-22.784c-9.441,0-21.918,0-29.078,0.22v73.122h25.389v-25.604h1.084l4.881,25.604H484.647z
			 M418.937,316.109v-20.288h-19.094v-6.942h16.814v-19.964h-16.814v-5.75h18.77v-20.177h-44.592v73.122H418.937z M370.345,316.109
			l-5.533-73.122h-32.33l-5.643,29.942h-0.11l-5.965-29.942h-34.283l-5.534,73.122h23.978l1.734-38.622h0.109l7.269,38.622h22.241
			l7.267-38.622h0.109l1.628,38.622H370.345z M278.237,316.109v-20.288h-19.095v-6.942h16.816v-19.964h-16.816v-5.75h18.77v-20.177
			H233.32v73.122H278.237z M202.457,266.854c0,2.279-0.434,4.775-5.208,4.775h-1.627v-9.547c0.651-0.108,1.083-0.108,1.519-0.108
			C202.131,261.973,202.457,264.467,202.457,266.854 M230.772,316.109l-9.221-31.787c4.555-3.581,7.268-10.2,7.268-18.77
			c0-14.537-9.765-22.784-29.51-22.784c-9.439,0-21.915,0-29.076,0.22v73.122h25.388v-25.604h1.083l4.883,25.604H230.772z
			 M141.029,292.458c0,2.169-0.435,4.558-5.968,4.558h-1.734v-8.682c0.542,0,0.976-0.107,1.409-0.107
			C140.159,288.228,141.029,290.181,141.029,292.458 M140.594,265.985c0,2.278-0.761,4.015-5.75,4.015h-1.518v-7.918
			c0.433,0,0.867-0.108,1.409-0.108C139.833,261.973,140.594,263.599,140.594,265.985 M167.174,292.35
			c0-6.836-4.34-13.345-9.655-14.973c4.339-2.604,6.942-6.942,6.942-13.886c0-17.032-13.126-20.613-28.424-20.613
			c-8.137,0-17.9,0.109-26.797,0.109v73.122c9.005,0,18.553,0.108,27.882,0.108C152.311,316.218,167.174,310.033,167.174,292.35"/>
		<path fill="#9A9B9C" d="M97.546,292.073H71.771v23.303h25.775V292.073z M67.676,315.376v-21.154H48.882l6.015-5.16
			c9.451-8.169,12.028-16.125,12.028-23.758c0-13.423-7.518-21.692-24.487-21.692c-8.703,0-16.116,2.577-24.175,8.161L26,268.958
			c3.653-2.257,7.306-3.977,9.993-3.977c3.008,0,4.083,1.398,4.083,4.193c0,2.474-2.686,6.88-8.811,13.544L19.23,295.833v19.543
			H67.676z"/>
		<g>
			<polygon fill="#981020" points="496.79,12.218 492.966,61.544 490.29,90.417 490.099,90.417 486.849,61.544 481.495,12.218 
				431.786,12.218 427.771,61.544 424.521,90.417 424.327,90.417 421.841,61.544 416.489,12.218 370.601,12.218 388.958,141.083 
				448.802,141.083 452.052,107.433 453.772,86.019 453.962,86.019 456.257,107.433 459.507,141.083 517.63,141.083 541.915,12.218 
							"/>
			<polygon fill="#981020" points="159.143,141.083 183.424,12.218 138.302,12.218 134.478,61.544 131.801,90.417 131.611,90.417 
				128.359,61.544 123.006,12.218 73.295,12.218 69.281,61.544 66.03,90.417 65.839,90.417 63.353,61.544 58,12.218 12.112,12.218 
				30.467,141.083 90.312,141.083 93.562,107.433 95.284,86.019 95.473,86.019 97.77,107.433 101.019,141.083 			"/>
			<polygon fill="#981020" points="323.954,105.328 290.302,105.328 290.302,93.093 319.936,93.093 319.936,57.913 290.302,57.913 
				290.302,47.78 323.378,47.78 323.378,12.218 244.797,12.218 244.797,141.083 323.954,141.083 			"/>
			<path fill="#981020" d="M662.56,76.078c0-39.387-8.605-67.302-58.125-67.302h-1.529c-34.225,0-58.889,16.251-58.889,68.257
				c0,35.315,6.727,60.919,42.468,66.396h-18.558v33.013h-12.918v-33.013H520.56v96.744h34.449V204.86h12.918v35.312h34.449v-95.647
				h1.293C638.085,144.526,662.56,128.464,662.56,76.078z M591.815,76.651c0-25.047,3.25-31.738,11.854-31.738
				c8.605,0,11.09,7.836,11.09,31.547c0,24.665-3.25,31.356-11.854,31.356C594.3,107.815,591.815,99.976,591.815,76.651z"/>
			<rect x="188.204" y="12.218" fill="#981020" width="45.887" height="128.866"/>
			<polygon fill="#981020" points="716.474,94.05 733.681,94.05 733.681,141.083 779.567,141.083 779.567,12.218 733.681,12.218 
				733.681,56.191 716.474,56.191 716.474,12.218 670.587,12.218 670.587,141.083 716.474,141.083 			"/>
			<path fill="#981020" d="M968.851,50.073h17.398V12.218h-80.686v37.855h17.4v91.011h24.747c-7.121,0.57-15.076,2.247-22.954,5.214
				l4.449,23.685c5.023-2.01,7.607-2.583,11.053-2.583c3.586,0,4.592,0.861,4.592,3.015c0,7.176-11.914,6.601-11.914,31.432v4.881
				h32.729v-5.023c0-14.354,15.932-15.645,15.932-35.883c0-13.724-8.096-23.158-23.737-24.737h10.991V50.073z"/>
			<polygon fill="#981020" points="898.3,141.083 898.3,12.218 857.575,12.218 857.575,51.412 838.646,12.218 790.274,12.218 
				790.274,141.083 831.382,141.083 831.382,96.917 851.267,141.083 			"/>
			<polygon fill="#981020" points="217.269,204.144 239.518,204.144 239.518,177.733 217.269,177.733 217.269,170.127 
				242.101,170.127 242.101,143.429 183.107,143.429 183.107,240.173 242.533,240.173 242.533,213.331 217.269,213.331 			"/>
			<path fill="#981020" d="M176.075,173.283c0-19.233-12.919-30.142-39.042-30.142c-12.489,0-28.994,0-38.468,0.288v96.744h33.587
				v-33.875h1.436l6.459,33.875h38.612l-12.201-42.057C172.486,193.379,176.075,184.625,176.075,173.283z M134.306,181.323h-2.154
				v-12.631c0.862-0.144,1.436-0.144,2.01-0.144c6.603,0,7.033,3.302,7.033,6.458C141.195,178.021,140.622,181.323,134.306,181.323z
				"/>
			<path fill="#981020" d="M80.91,188.929c5.741-3.443,9.186-9.186,9.186-18.371c0-22.537-17.368-27.272-37.607-27.272
				c-10.766,0-23.683,0.144-35.453,0.144v96.744c11.914,0,24.546,0.144,36.89,0.144c20.096,0,39.76-8.183,39.76-31.579
				C93.685,199.696,87.944,191.082,80.91,188.929z M48.901,168.691c0.573,0,1.148-0.144,1.867-0.144
				c6.745,0,7.751,2.152,7.751,5.309c0,3.015-1.006,5.312-7.607,5.312h-2.011V168.691z M51.197,214.909h-2.296v-11.483
				c0.717,0,1.292-0.142,1.867-0.142c7.177,0,8.324,2.583,8.324,5.598C59.092,211.752,58.519,214.909,51.197,214.909z"/>
			<polygon fill="#981020" points="888.011,172.854 873.8,143.429 837.487,143.429 837.487,240.173 868.349,240.173 
				868.349,207.015 883.276,240.173 918.585,240.173 918.585,143.429 888.011,143.429 			"/>
			<polygon fill="#981020" points="805.048,204.144 827.296,204.144 827.296,177.733 805.048,177.733 805.048,170.127 
				829.88,170.127 829.88,143.429 770.888,143.429 770.888,240.173 830.312,240.173 830.312,213.331 805.048,213.331 			"/>
			<rect x="932.077" y="211.608" fill="#981020" width="34.449" height="28.564"/>
			<polygon fill="#981020" points="729.407,192.231 728.114,207.733 726.821,192.231 720.935,143.429 686.632,143.429 
				702.993,240.173 751.222,240.173 768.448,143.429 734.573,143.429 			"/>
			<path fill="#981020" d="M513.526,173.283c0-19.233-12.918-30.142-39.043-30.142c-12.486,0-28.992,0-38.467,0.288v96.744h33.588
				v-33.875h1.436l6.461,33.875h38.609l-12.201-42.057C509.938,193.379,513.526,184.625,513.526,173.283z M471.759,181.323h-2.154
				v-12.631c0.861-0.144,1.436-0.144,2.01-0.144c6.604,0,7.033,3.302,7.033,6.458C478.647,178.021,478.071,181.323,471.759,181.323z
				"/>
			<polygon fill="#981020" points="403.579,204.144 425.825,204.144 425.825,177.733 403.579,177.733 403.579,170.127 
				428.411,170.127 428.411,143.429 369.417,143.429 369.417,240.173 428.841,240.173 428.841,213.331 403.579,213.331 			"/>
			<path fill="#981020" d="M621.606,143.429l-16.646,96.744h33.156l1.291-11.052h13.35l1.148,11.052h35.166l-16.217-96.744H621.606z
				 M642.421,202.996l3.447-30.142h0.43l3.443,30.142H642.421z"/>
			<polygon fill="#981020" points="314.586,143.429 307.123,183.046 306.979,183.046 299.085,143.429 253.727,143.429 
				246.407,240.173 278.127,240.173 280.425,189.072 280.569,189.072 290.187,240.173 319.611,240.173 329.226,189.072 
				329.37,189.072 331.524,240.173 364.682,240.173 357.359,143.429 			"/>
		</g>
	</g>
	<g display="inline">
		<path fill="#FFFFFF" d="M853.913,494.28v-1.302l7.691-8.046c3.59-3.747,4.93-6.665,4.93-9.624c0-3.115-1.615-5.323-5.244-5.323
			c-1.934,0-3.865,0.748-6.469,2.129l-0.553-1.184c2.367-1.499,4.852-2.406,7.258-2.406c4.301,0,6.705,2.564,6.705,6.509
			c0,3.628-1.42,6.586-5.127,10.413l-7.061,7.335h13.449v1.499H853.913z"/>
		<path fill="#FFFFFF" d="M881.603,494.398c-6.549,0-8.047-6.587-8.047-12.938c0-6.349,1.734-12.937,8.479-12.937
			c6.588,0,8.086,6.588,8.086,12.937C890.12,487.812,888.386,494.398,881.603,494.398z M881.839,469.985
			c-5.166,0-6.588,5.521-6.588,11.476c0,5.956,1.342,11.479,6.588,11.479c5.166,0,6.584-5.522,6.584-11.479
			C888.423,475.506,887.083,469.985,881.839,469.985z"/>
		<path fill="#FFFFFF" d="M895.485,494.28v-3.353h2.01v3.353H895.485z"/>
		<path fill="#FFFFFF" d="M915.521,469.156v10.65h8.439v1.459h-8.439v13.015h-1.697v-26.583h10.768v1.459H915.521z"/>
		<path fill="#FFFFFF" d="M935.556,494.398c-4.654,0-6.98-2.562-6.98-9.979c0-6.548,2.602-10.293,7.139-10.293
			c4.219,0,6.508,3.629,6.508,8.361c0,0.67-0.041,1.578-0.078,2.051h-11.873c0,5.759,1.734,8.401,5.521,8.401
			c1.303,0,3.746-0.354,5.482-0.908l0.355,1.146C939.421,494.005,937.409,494.398,935.556,494.398z M940.563,482.724
			c0-3.628-1.26-7.179-5.008-7.179c-3.906,0-5.127,4.024-5.285,7.612h10.293V482.724z"/>
		<path fill="#FFFFFF" d="M954.802,494.398c-1.379,0-3.113-0.79-5.758-3.154l-0.236,3.036h-1.301v-28.634l1.656-0.198v11.715
			c2.643-2.287,4.26-3.037,6.035-3.037c3.668,0,5.797,4.299,5.797,10.097C960.995,490.612,958.354,494.398,954.802,494.398z
			 M954.882,475.585c-1.42,0-3.312,1.025-5.719,3.274v10.766c2.406,2.249,4.221,3.314,5.482,3.314c2.682,0,4.693-3.708,4.693-8.638
			C959.339,479.371,957.683,475.585,954.882,475.585z"/>
	</g>
	<g display="inline">
		<path fill="#FFFFFF" d="M872.569,541.607v-1.301l7.689-8.047c3.59-3.747,4.932-6.665,4.932-9.623c0-3.116-1.617-5.324-5.244-5.324
			c-1.934,0-3.865,0.749-6.471,2.131l-0.551-1.184c2.365-1.5,4.852-2.406,7.258-2.406c4.299,0,6.705,2.562,6.705,6.508
			c0,3.628-1.422,6.587-5.129,10.412l-7.061,7.337h13.449v1.497H872.569z"/>
		<path fill="#FFFFFF" d="M900.257,541.726c-6.547,0-8.045-6.586-8.045-12.937c0-6.349,1.734-12.936,8.479-12.936
			c6.588,0,8.084,6.587,8.084,12.936C908.774,535.14,907.04,541.726,900.257,541.726z M900.493,517.312
			c-5.166,0-6.586,5.522-6.586,11.477c0,5.957,1.34,11.478,6.586,11.478c5.168,0,6.586-5.521,6.586-11.478
			C907.079,522.835,905.739,517.312,900.493,517.312z"/>
		<path fill="#FFFFFF" d="M919.505,541.607v-23.861l-6.783,3.116l-0.553-1.183l7.455-3.748h1.576v25.676H919.505z"/>
		<path fill="#FFFFFF" d="M933.229,541.726c-2.799,0-5.088-0.748-6.824-1.577l0.512-1.419c2.131,0.907,4.773,1.537,6.668,1.537
			c4.93,0,6.783-1.774,6.783-6.231c0-4.495-1.42-5.758-8.361-5.758c-1.5,0-2.484,0.118-3.746,0.235l1.182-12.541h11.004
			l-0.156,1.499h-9.547l-0.865,9.426c0.984-0.04,1.893-0.078,2.721-0.078c7.77,0,9.506,2.168,9.506,6.98
			C942.104,539.873,938.79,541.726,933.229,541.726z"/>
	</g>
</g>
<g id="Ebene_2">
	<g>
		<g>
			<path fill="#9A9B9C" d="M867.018,33.425l-7.469,12.596h13.137l13.586-12.596 M887.261,109.903V93.078h-15.836V87.32h13.946
				V70.764h-13.946v-4.768h15.565V49.261h-36.979v60.642H887.261z M847.214,66.356V49.261h-35.001v60.642h21.415V88.939h11.786
				V72.024h-11.786v-5.668H847.214z M786.267,86.6h-4.591l2.159-18.895h0.271L786.267,86.6z M810.919,109.903l-10.168-60.642H768.63
				l-10.437,60.642h20.785l0.809-6.928h8.367l0.721,6.928H810.919z M758.095,107.293l-4.048-16.104
				c-2.068,1.168-4.859,2.068-6.838,2.068c-2.699,0-5.668-1.169-5.668-13.675c0-12.146,2.519-14.126,6.297-14.126
				c2.069,0,4.319,0.72,6.029,1.619l3.958-15.564c-4.228-2.609-8.817-3.779-14.304-3.779c-15.747,0-24.024,11.336-24.024,32.031
				c0,23.302,7.018,31.67,22.854,31.67C748.828,111.432,753.867,109.723,758.095,107.293"/>
		</g>
		<path fill="#D7D8D9" d="M646.454,124.013c1.266,0,2.29-2.51,2.29-5.606c0-3.097-1.024-5.606-2.29-5.606
			c-1.264,0-2.289,2.51-2.289,5.606C644.165,121.503,645.19,124.013,646.454,124.013"/>
		<path fill="#D7D8D9" d="M689.042,130.781c2.528,0,4.581-3.253,4.581-7.265c0-4.011-2.053-7.264-4.581-7.264
			s-4.581,3.253-4.581,7.264C684.461,127.528,686.514,130.781,689.042,130.781"/>
		<polygon fill="#FFFFFF" points="740.295,112.898 732.157,82.772 704.235,80.339 635.007,90.411 633.723,93.251 633.248,110.085 
			718.297,115.628 739.729,115.087 		"/>
		<path fill="#D7D8D9" d="M741.186,112.838l-8.029-29.357l-0.211-0.076c-0.696-2.174-4.713-3.722-4.713-3.722l-6.475-1.421
			l-15.476-1.738l-3.79,0.315l-66.329,11.371c-2.843,0.947-3.001,6.474-3.001,6.474l-0.157,6.95l-0.476,15.95l5.688,2.527
			l4.896-0.316c0,0,0.315,0.631,0.631,0.631c-0.407-1.835-0.262-4.445,0.172-5.84c0.574-1.848,1.566-2.213,1.566-2.213
			c4.183-1.482,4.421,5.369,4.421,5.369v4.264l1.265-0.159l32.373,3.949l0.79-8.054c0.476-4.265,5.055-3.475,5.055-3.475
			c3.788,0.316,4.738,8.055,4.738,8.055l0.63,4.896l16.109,2.211h2.054l17.213-0.632l8.844-1.105l1.578-1.737l0.635-10.108V112.838z
			 M699.492,97.844l-33.324,1.42l-31.426,1.422c-1.58-7.107,0.474-9.476,0.474-9.476s55.748-7.58,64.276-9.633
			c8.525-2.053,8.685,6.158,8.685,6.158l3.317,14.688L699.492,97.844z M739.323,113.871l-4.265-0.137l-6.193-0.098l-2.549-0.185
			l-6.576-0.211c-2.945,0.304-4.411-2.05-5.016-3.442c-0.309-0.606-0.388-1.056-0.388-1.056l-0.113-0.478
			c-0.89-3.343-5.506-20.881-5.222-23.451c0-0.001,0-0.003,0-0.004l-0.035-0.23c0.072-0.357,0.209-0.662,0.382-0.933
			c0.897-1.763,3.127-1.991,3.127-1.991c7.471-0.482,14.937,0.873,18.058,1.544l1.387,0.155l0.049,0.174
			c0.056,0.013,0.09,0.022,0.09,0.022l8.236,29.349L739.323,113.871z"/>
		<g>
			<path fill="#9A9B9C" d="M675.783,79.402c0,10.347-2.069,14.395-6.478,14.395c-0.452,0-1.44-0.089-2.252-0.089V65.186
				c0.721-0.091,1.71-0.091,2.16-0.091C674.343,65.095,675.783,69.505,675.783,79.402 M697.735,79.222
				c0-25.553-9.268-30.231-29.062-30.231c-7.557,0-15.564,0.09-22.853,0.18v60.643c5.129,0.09,10.527,0.18,20.604,0.18
				C688.289,109.993,697.735,100.816,697.735,79.222 M644.023,109.813V92.809h-10.62V49.17h-21.593v60.643H644.023z M586.278,68.965
				c0,1.889-0.359,3.958-4.32,3.958h-1.349v-7.918c0.539-0.09,0.899-0.09,1.26-0.09C586.008,64.916,586.278,66.985,586.278,68.965
				 M609.761,109.813l-7.647-26.362c3.778-2.97,6.029-8.458,6.029-15.566c0-12.056-8.098-18.894-24.475-18.894
				c-7.828,0-18.174,0-24.113,0.18v60.643h21.055V88.58h0.899l4.05,21.233H609.761z M533.887,79.402
				c0,11.606-1.529,14.756-5.578,14.756c-4.048,0-5.219-3.689-5.219-14.666c0-11.788,1.53-14.935,5.579-14.935
				S533.887,68.245,533.887,79.402 M556.382,79.222c0-18.535-4.049-31.671-27.353-31.671h-0.721
				c-16.105,0-27.712,7.648-27.712,32.12c0,18.804,4.049,31.761,27.353,31.761h0.72C544.864,111.432,556.382,103.875,556.382,79.222
				 M501.929,49.17h-21.232l-1.801,23.214l-1.26,13.586h-0.09l-1.53-13.586l-2.519-23.214h-23.394l-1.89,23.214l-1.528,13.586
				h-0.092l-1.169-13.586l-2.519-23.214h-21.594l8.638,60.643h28.161l1.529-15.835l0.811-10.077h0.09l1.079,10.077l1.53,15.835
				h27.352L501.929,49.17z"/>
		</g>
		<path fill="#9A9B9C" d="M833.732,24.819c0,1.086-0.208,2.277-2.483,2.277h-0.777v-4.554c0.31-0.052,0.518-0.052,0.725-0.052
			C833.577,22.491,833.732,23.681,833.732,24.819 M847.236,48.31l-4.398-15.16c2.174-1.708,3.468-4.865,3.468-8.952
			c0-6.933-4.657-10.866-14.074-10.866c-4.502,0-10.452,0-13.867,0.104V48.31h12.107V36.099h0.518l2.329,12.211H847.236z
			 M815.896,48.31v-9.676h-9.106v-3.311h8.02v-9.521h-8.02V23.06h8.951v-9.623h-21.266V48.31H815.896z M791.654,48.31V13.437
			h-11.019v10.606l-5.124-10.606h-13.09V48.31h11.124V36.357l5.381,11.953H791.654z M759.955,48.31v-9.676h-9.108v-3.311h8.021
			v-9.521h-8.021V23.06h8.952v-9.623h-21.266V48.31H759.955z M737.902,13.437h-12.211l-1.865,17.592l-0.465,5.587l-0.465-5.587
			l-2.12-17.592h-12.367l5.899,34.874h17.384L737.902,13.437z M696.183,34.909h-2.64l1.242-10.866h0.154L696.183,34.909z
			 M710.359,48.31l-5.846-34.874H686.04l-6,34.874h11.952l0.466-3.985h4.811l0.416,3.985H710.359z M679.331,48.31V13.437h-12.418
			v11.899h-4.657V13.437h-12.418V48.31h12.418V35.582h4.657V48.31H679.331z M635.117,24.819c0,1.086-0.206,2.277-2.484,2.277h-0.774
			v-4.554c0.31-0.052,0.518-0.052,0.724-0.052C634.961,22.491,635.117,23.681,635.117,24.819 M648.622,48.31l-4.397-15.16
			c2.173-1.708,3.465-4.865,3.465-8.952c0-6.933-4.656-10.866-14.07-10.866c-4.504,0-10.454,0-13.868,0.104V48.31h12.107V36.099
			h0.518l2.327,12.211H648.622z M617.282,48.31v-9.676h-9.106v-3.311h8.021v-9.521h-8.021V23.06h8.952v-9.623h-21.267V48.31H617.282
			z M594.108,48.31l-2.64-34.874H576.05l-2.69,14.28h-0.052l-2.845-14.28h-16.352l-2.639,34.874h11.436l0.827-18.42h0.052
			l3.467,18.42h10.607l3.466-18.42h0.051l0.777,18.42H594.108z M550.18,48.31v-9.676h-9.105v-3.311h8.019v-9.521h-8.019V23.06h8.951
			v-9.623h-21.267V48.31H550.18z M514.039,24.819c0,1.086-0.207,2.277-2.484,2.277h-0.776v-4.554
			c0.312-0.052,0.518-0.052,0.726-0.052C513.883,22.491,514.039,23.681,514.039,24.819 M527.543,48.31l-4.398-15.16
			c2.173-1.708,3.466-4.865,3.466-8.952c0-6.933-4.656-10.866-14.073-10.866c-4.502,0-10.451,0-13.866,0.104V48.31h12.107V36.099
			h0.518l2.329,12.211H527.543z M484.743,37.03c0,1.035-0.208,2.174-2.849,2.174h-0.826v-4.141c0.259,0,0.466-0.051,0.673-0.051
			C484.326,35.012,484.743,35.944,484.743,37.03 M484.535,24.405c0,1.086-0.363,1.915-2.743,1.915h-0.724v-3.777
			c0.207,0,0.414-0.052,0.673-0.052C484.172,22.491,484.535,23.267,484.535,24.405 M497.212,36.979c0-3.26-2.07-6.364-4.605-7.141
			c2.07-1.242,3.311-3.311,3.311-6.622c0-8.123-6.26-9.831-13.555-9.831c-3.883,0-8.538,0.052-12.78,0.052V48.31
			c4.294,0,8.848,0.052,13.297,0.052C490.123,48.362,497.212,45.412,497.212,36.979"/>
		<path fill="#9A9B9C" d="M464.004,36.846h-12.292V47.96h12.292V36.846z M449.76,47.96V37.871h-8.965l2.869-2.461
			c4.507-3.896,5.736-7.69,5.736-11.33c0-6.402-3.585-10.346-11.678-10.346c-4.151,0-7.686,1.229-11.531,3.892l3.691,8.196
			c1.741-1.077,3.484-1.897,4.766-1.897c1.435,0,1.946,0.667,1.946,2c0,1.18-1.28,3.281-4.201,6.459l-5.74,6.255v9.32H449.76z"/>
	</g>
	<g>
		<polygon fill="#981020" points="215.917,12.784 214.292,33.742 213.155,46.009 213.074,46.009 211.693,33.742 209.418,12.784 
			188.297,12.784 186.591,33.742 185.21,46.009 185.128,46.009 184.072,33.742 181.798,12.784 162.301,12.784 170.1,67.538 
			195.527,67.538 196.908,53.24 197.639,44.141 197.72,44.141 198.695,53.24 200.076,67.538 224.771,67.538 235.09,12.784 		"/>
		<rect x="84.803" y="12.784" fill="#981020" width="19.497" height="54.754"/>
		<polygon fill="#981020" points="72.455,67.538 82.772,12.784 63.6,12.784 61.975,33.742 60.838,46.009 60.757,46.009 
			59.375,33.742 57.101,12.784 35.979,12.784 34.274,33.742 32.893,46.009 32.812,46.009 31.755,33.742 29.481,12.784 9.984,12.784 
			17.783,67.538 43.21,67.538 44.591,53.24 45.322,44.141 45.402,44.141 46.378,53.24 47.759,67.538 		"/>
		<polygon fill="#981020" points="142.481,52.345 128.183,52.345 128.183,47.147 140.774,47.147 140.774,32.199 128.183,32.199 
			128.183,27.894 142.237,27.894 142.237,12.784 108.849,12.784 108.849,67.538 142.481,67.538 		"/>
		<polygon fill="#981020" points="309.258,47.553 316.568,47.553 316.568,67.538 336.065,67.538 336.065,12.784 316.568,12.784 
			316.568,31.468 309.258,31.468 309.258,12.784 289.761,12.784 289.761,67.538 309.258,67.538 		"/>
		<polygon fill="#981020" points="386.513,67.538 386.513,12.784 369.209,12.784 369.209,29.437 361.167,12.784 340.614,12.784 
			340.614,67.538 358.08,67.538 358.08,48.772 366.529,67.538 		"/>
		<path fill="#981020" d="M416.489,28.868h7.393V12.784h-34.283v16.084h7.394v38.669h10.514c-3.025,0.242-6.405,0.955-9.752,2.215
			l1.891,10.064c2.134-0.854,3.232-1.098,4.696-1.098c1.523,0,1.95,0.366,1.95,1.281c0,3.049-5.062,2.804-5.062,13.355v2.074h13.906
			v-2.134c0-6.099,6.769-6.647,6.769-15.247c0-5.859-3.482-9.868-10.191-10.51h4.776V28.868z"/>
		<path fill="#981020" d="M286.35,39.917c0-16.735-3.656-28.596-24.697-28.596h-0.65c-14.542,0-25.021,6.905-25.021,29.001
			c0,15.015,2.868,25.894,18.081,28.211h-7.922V82.56h-5.488V68.534h-14.637v41.105h14.637V94.635h5.488v15.004h14.637V69h0.549
			C275.951,69,286.35,62.176,286.35,39.917z M256.292,40.161c0-10.642,1.381-13.485,5.037-13.485c3.656,0,4.712,3.33,4.712,13.404
			c0,10.479-1.381,13.323-5.037,13.323S256.292,50.071,256.292,40.161z"/>
		<path fill="#981020" d="M39.215,87.866c2.439-1.463,3.903-3.903,3.903-7.806c0-9.576-7.38-11.588-15.979-11.588
			c-4.574,0-10.062,0.061-15.063,0.061v41.105c5.062,0,10.429,0.061,15.674,0.061c8.539,0,16.894-3.477,16.894-13.417
			C44.643,92.441,42.204,88.781,39.215,87.866z M25.615,79.268c0.244,0,0.488-0.061,0.793-0.061c2.866,0,3.293,0.915,3.293,2.255
			c0,1.281-0.427,2.257-3.232,2.257h-0.854V79.268z M26.59,98.905h-0.976v-4.879c0.305,0,0.549-0.061,0.793-0.061
			c3.049,0,3.537,1.098,3.537,2.379C29.944,97.563,29.701,98.905,26.59,98.905z"/>
		<polygon fill="#981020" points="346.892,94.331 356.345,94.331 356.345,83.109 346.892,83.109 346.892,79.877 357.442,79.877 
			357.442,68.534 332.377,68.534 332.377,109.639 357.625,109.639 357.625,98.234 346.892,98.234 		"/>
		<rect x="400.864" y="97.502" fill="#981020" width="14.638" height="12.137"/>
		<path fill="#981020" d="M223.028,81.219c0-8.172-5.489-12.807-16.589-12.807c-5.305,0-12.318,0-16.344,0.122v41.105h14.271V95.246
			h0.61l2.745,14.393h16.405l-5.184-17.869C221.503,89.757,223.028,86.037,223.028,81.219z M205.281,84.635h-0.915v-5.367
			c0.366-0.061,0.61-0.061,0.854-0.061c2.806,0,2.988,1.403,2.988,2.744C208.208,83.231,207.963,84.635,205.281,84.635z"/>
		<polygon fill="#981020" points="382.141,81.036 376.103,68.534 360.675,68.534 360.675,109.639 373.788,109.639 373.788,95.551 
			380.13,109.639 395.132,109.639 395.132,68.534 382.141,68.534 		"/>
		<polygon fill="#981020" points="138.501,68.534 135.33,85.366 135.269,85.366 131.915,68.534 112.643,68.534 109.532,109.639 
			123.01,109.639 123.986,87.927 124.047,87.927 128.134,109.639 140.636,109.639 144.721,87.927 144.782,87.927 145.698,109.639 
			159.786,109.639 156.674,68.534 		"/>
		<polygon fill="#981020" points="176.313,94.331 185.765,94.331 185.765,83.109 176.313,83.109 176.313,79.877 186.864,79.877 
			186.864,68.534 161.797,68.534 161.797,109.639 187.046,109.639 187.046,98.234 176.313,98.234 		"/>
		<path fill="#981020" d="M268.95,68.534l-7.073,41.105h14.087l0.548-4.696h5.672l0.488,4.696h14.942l-6.89-41.105H268.95z
			 M277.793,93.843l1.464-12.807h0.183l1.463,12.807H277.793z"/>
		<polygon fill="#981020" points="97.152,94.331 106.605,94.331 106.605,83.109 97.152,83.109 97.152,79.877 107.703,79.877 
			107.703,68.534 82.637,68.534 82.637,109.639 107.886,109.639 107.886,98.234 97.152,98.234 		"/>
		<polygon fill="#981020" points="314.752,89.269 314.204,95.856 313.654,89.269 311.153,68.534 296.578,68.534 303.53,109.639 
			324.021,109.639 331.341,68.534 316.948,68.534 		"/>
		<path fill="#981020" d="M79.649,81.219c0-8.172-5.489-12.807-16.589-12.807c-5.306,0-12.319,0-16.344,0.122v41.105h14.271V95.246
			h0.61l2.744,14.393h16.405L75.562,91.77C78.125,89.757,79.649,86.037,79.649,81.219z M61.902,84.635h-0.916v-5.367
			c0.366-0.061,0.61-0.061,0.854-0.061c2.806,0,2.988,1.403,2.988,2.744C64.829,83.231,64.586,84.635,61.902,84.635z"/>
	</g>
	<g>
		<path fill="#981020" d="M936.783,118.407c31.562,0,57.148-25.585,57.148-57.149c0-31.56-25.586-57.146-57.148-57.146
			c-31.561,0-57.146,25.586-57.146,57.146C879.637,92.821,905.223,118.407,936.783,118.407"/>
		<g>
			<path fill="#FFFFFF" d="M892.131,58.712v-1.017l6.009-6.286c2.804-2.927,3.851-5.207,3.851-7.518
				c0-2.434-1.262-4.159-4.097-4.159c-1.511,0-3.02,0.584-5.054,1.664l-0.432-0.925c1.85-1.171,3.791-1.88,5.67-1.88
				c3.36,0,5.238,2.003,5.238,5.085c0,2.834-1.109,5.145-4.005,8.134l-5.517,5.73h10.507v1.17H892.131z"/>
			<path fill="#FFFFFF" d="M913.762,58.804c-5.116,0-6.286-5.146-6.286-10.106c0-4.959,1.354-10.106,6.623-10.106
				c5.146,0,6.316,5.146,6.316,10.106C920.415,53.659,919.061,58.804,913.762,58.804z M913.946,39.733
				c-4.035,0-5.146,4.313-5.146,8.965c0,4.653,1.049,8.967,5.146,8.967c4.036,0,5.144-4.314,5.144-8.967
				C919.09,44.046,918.043,39.733,913.946,39.733z"/>
			<path fill="#FFFFFF" d="M924.606,58.712v-2.619h1.57v2.619H924.606z"/>
			<path fill="#FFFFFF" d="M940.259,39.085v8.32h6.592v1.139h-6.592v10.167h-1.326V37.946h8.411v1.14H940.259z"/>
			<path fill="#FFFFFF" d="M955.909,58.804c-3.636,0-5.453-2.002-5.453-7.795c0-5.115,2.032-8.041,5.576-8.041
				c3.297,0,5.085,2.835,5.085,6.532c0,0.523-0.032,1.233-0.061,1.602h-9.276c0,4.499,1.354,6.563,4.313,6.563
				c1.018,0,2.926-0.277,4.282-0.71l0.278,0.895C958.929,58.497,957.356,58.804,955.909,58.804z M959.821,49.684
				c0-2.834-0.984-5.607-3.912-5.607c-3.052,0-4.005,3.144-4.129,5.946h8.041V49.684z"/>
			<path fill="#FFFFFF" d="M970.944,58.804c-1.077,0-2.432-0.617-4.498-2.464l-0.185,2.372h-1.016V36.344l1.293-0.155v9.151
				c2.064-1.787,3.328-2.373,4.715-2.373c2.865,0,4.529,3.358,4.529,7.888C975.783,55.847,973.72,58.804,970.944,58.804z
				 M971.006,44.108c-1.108,0-2.587,0.801-4.467,2.558v8.41c1.88,1.757,3.298,2.589,4.283,2.589c2.095,0,3.667-2.897,3.667-6.748
				C974.489,47.065,973.195,44.108,971.006,44.108z"/>
		</g>
		<g>
			<path fill="#FFFFFF" d="M906.705,95.684v-1.017l6.007-6.286c2.805-2.927,3.853-5.207,3.853-7.518
				c0-2.434-1.263-4.159-4.097-4.159c-1.511,0-3.02,0.585-5.056,1.665l-0.43-0.925c1.848-1.172,3.791-1.88,5.67-1.88
				c3.358,0,5.237,2.002,5.237,5.084c0,2.834-1.11,5.146-4.006,8.134l-5.516,5.731h10.506v1.17H906.705z"/>
			<path fill="#FFFFFF" d="M928.334,95.776c-5.114,0-6.284-5.145-6.284-10.106c0-4.959,1.354-10.105,6.623-10.105
				c5.146,0,6.315,5.146,6.315,10.105C934.988,90.631,933.633,95.776,928.334,95.776z M928.52,76.705
				c-4.036,0-5.146,4.314-5.146,8.965c0,4.654,1.047,8.966,5.146,8.966c4.036,0,5.144-4.312,5.144-8.966
				C933.663,81.019,932.617,76.705,928.52,76.705z"/>
			<path fill="#FFFFFF" d="M943.371,95.684V77.043l-5.3,2.435l-0.431-0.924l5.823-2.928h1.231v20.058H943.371z"/>
			<path fill="#FFFFFF" d="M954.093,95.776c-2.188,0-3.976-0.584-5.332-1.232l0.4-1.108c1.664,0.708,3.729,1.201,5.209,1.201
				c3.851,0,5.299-1.386,5.299-4.868c0-3.512-1.109-4.499-6.532-4.499c-1.171,0-1.94,0.092-2.926,0.184l0.923-9.797h8.596
				l-0.121,1.171h-7.458l-0.677,7.364c0.77-0.032,1.479-0.061,2.126-0.061c6.069,0,7.426,1.693,7.426,5.453
				C961.025,94.329,958.436,95.776,954.093,95.776z"/>
		</g>
	</g>
</g>
<g id="Ebene_3" display="none">
	<g display="inline">
		<path fill="none" d="M958.232,757.886v-0.004l-0.004,0.002l-0.004-0.002v0.004c-0.78,0.182-1.256,1.293-1.256,1.293v7.129h1.109
			h0.29h1.113v-7.129C959.481,759.179,958.915,758.025,958.232,757.886z"/>
		<path fill="none" d="M954.124,757.886l-0.002-0.004c0,0,0,0.002-0.002,0.002l-0.003-0.002v0.004
			c-0.781,0.184-1.256,1.293-1.256,1.293v7.129h1.11h0.288h1.113v-7.129C955.373,759.179,954.805,758.025,954.124,757.886z"/>
		<path fill="none" d="M982.879,757.886v-0.004c-0.002,0-0.004,0.002-0.004,0.002c-0.001,0-0.003-0.002-0.003-0.002v0.004
			c-0.782,0.182-1.257,1.293-1.257,1.293v7.129h1.111h0.288h1.113v-7.129C984.128,759.179,983.559,758.025,982.879,757.886z"/>
		<path fill="none" d="M592.653,732.299v-0.002c0,0,0,0.002-0.004,0.002c0,0,0-0.002-0.003-0.002v0.002
			c-0.484,0.007-0.872,0.565-0.872,0.565v2.614h0.776h0.2h0.775v-2.614C593.526,732.864,593.141,732.306,592.653,732.299z"/>
		<polygon fill="none" points="895.161,763.232 898.237,762.975 898.237,756.265 895.161,756.735 		"/>
		<path fill="none" d="M962.34,757.886v-0.004l-0.003,0.002c-0.002,0-0.003-0.002-0.003-0.002v0.004
			c-0.781,0.182-1.257,1.293-1.257,1.293v7.129h1.111h0.286h1.112v-7.129C963.587,759.179,963.021,758.025,962.34,757.886z"/>
		<path fill="none" d="M966.448,757.886v-0.004c-0.002,0-0.004,0.002-0.004,0.002s-0.003-0.002-0.004-0.002v0.004
			c-0.782,0.182-1.255,1.293-1.255,1.293v7.129h1.111h0.287h1.112v-7.129C967.696,759.179,967.128,758.025,966.448,757.886z"/>
		<path fill="none" d="M978.772,757.886l-0.002-0.004c0,0-0.002,0.002-0.005,0.002c0,0,0-0.002-0.004-0.002v0.004
			c-0.779,0.182-1.253,1.293-1.253,1.293v7.129h1.11h0.288h1.109v-7.129C980.017,759.179,979.452,758.025,978.772,757.886z"/>
		<path fill="none" d="M592.653,755.984v-0.002h-0.004h-0.003v0.002c-0.484,0.004-0.872,0.562-0.872,0.562v2.613h0.776h0.2h0.775
			v-2.613C593.526,756.547,593.141,755.988,592.653,755.984z"/>
		<polygon fill="none" points="896.698,754.085 893.108,754.819 893.108,756.051 896.698,755.366 		"/>
		<polygon fill="none" points="931.493,751.265 929.188,750.152 929.188,755.71 931.493,756.394 		"/>
		<polygon fill="none" points="913.113,764.942 908.327,764.942 908.327,765.028 908.327,766.223 913.113,766.223 		"/>
		<path fill="none" d="M592.653,761.905v-0.002c0,0,0,0.002-0.004,0.002c0,0,0-0.002-0.003-0.002v0.002
			c-0.484,0.004-0.872,0.562-0.872,0.562v2.613h0.776h0.2h0.775v-2.613C593.526,762.468,593.141,761.909,592.653,761.905z"/>
		<rect x="899.394" y="764.557" fill="none" width="4.914" height="2.443"/>
		<rect x="913.626" y="766.909" fill="none" width="5.729" height="0.091"/>
		<path fill="none" d="M970.558,757.886l-0.002-0.004c0,0-0.003,0.002-0.005,0.002c0,0,0-0.002-0.003-0.002v0.004
			c-0.779,0.182-1.256,1.293-1.256,1.293v7.129h1.11h0.289h1.111v-7.129C971.803,759.179,971.236,758.025,970.558,757.886z"/>
		<path fill="none" d="M737.979,750.134c-0.479,0-0.865,0.388-0.865,0.865c0,0.476,0.387,0.861,0.865,0.861
			c0.475,0,0.864-0.386,0.864-0.861C738.843,750.521,738.453,750.134,737.979,750.134z"/>
		<path fill="none" d="M950.019,757.886v-0.004c-0.002,0-0.004,0.004-0.006,0.004c0,0-0.002-0.004-0.004-0.004v0.004
			c-0.781,0.184-1.255,1.293-1.255,1.293v7.129h1.11h0.29h1.11v-7.129C951.265,759.179,950.697,758.025,950.019,757.886z"/>
		<rect x="740.376" y="752.921" fill="none" width="2.06" height="8.042"/>
		<circle fill="none" cx="746.17" cy="750.096" r="0.863"/>
		<circle fill="none" cx="741.449" cy="750.444" r="0.864"/>
		<rect x="736.724" y="753.788" fill="none" width="1.826" height="7.175"/>
		<path fill="none" d="M746.095,762.217v-0.002h-0.004h-0.003v0.002c-0.63,0.005-1.13,0.711-1.13,0.711v3.311h1.002h0.262h1.005
			v-3.311C747.227,762.928,746.724,762.222,746.095,762.217z"/>
		<path fill="none" d="M737.639,762.979v-0.002h-0.004h-0.002v0.002c-0.508,0.004-0.909,0.577-0.909,0.577v2.682h0.809h0.209h0.809
			v-2.682C738.55,763.557,738.143,762.983,737.639,762.979z"/>
		<path fill="none" d="M741.409,762.575L741.409,762.575l-0.002-0.001h-0.005v0.001c-0.57,0.006-1.026,0.648-1.026,0.648v3.015
			h0.912h0.236h0.911v-3.015C742.436,763.224,741.981,762.581,741.409,762.575z"/>
		<path fill="none" d="M754.552,762.979v-0.002h-0.004h-0.002v0.002c-0.507,0.004-0.912,0.577-0.912,0.577v2.682h0.81h0.209h0.809
			v-2.682C755.461,763.557,755.059,762.983,754.552,762.979z"/>
		<rect x="753.634" y="753.788" fill="none" width="1.827" height="7.175"/>
		<circle fill="none" cx="751.028" cy="750.444" r="0.864"/>
		<circle fill="none" cx="754.499" cy="750.997" r="0.863"/>
		<rect x="749.748" y="752.921" fill="none" width="2.061" height="8.042"/>
		<rect x="744.96" y="752.148" fill="none" width="2.267" height="8.814"/>
		<path fill="none" d="M750.781,762.575L750.781,762.575l-0.004-0.001h-0.002v0.001c-0.573,0.006-1.027,0.648-1.027,0.648v3.015
			h0.911h0.237h0.912v-3.015C751.809,763.224,751.352,762.581,750.781,762.575z"/>
		<path fill="none" d="M974.662,757.886l-0.002-0.004l-0.001,0.002l-0.005-0.002v0.004c-0.779,0.182-1.255,1.293-1.255,1.293v7.129
			h1.111h0.288h1.112v-7.129C975.911,759.179,975.343,758.025,974.662,757.886z"/>
		<path fill="none" d="M82.381,718.091c1.852-1.52,9.134-7.904,11.754-9.841c0.029-0.535,0.205-1.309,0.857-1.837
			c-0.181-0.396-0.386-1.041-0.592-1.852c-0.25,0.052-0.483,0.098-0.688,0.136c-2.297,0.419-10.636,2.218-15.133,2.986
			c0.475,0.381,0.933,0.76,1.339,1.113c1.548,1.354,0.71,2.677-1.42,1.904c-0.39-0.144-0.983-0.391-1.627-0.671l0.168,12.821
			C79.003,721.052,81.217,719.043,82.381,718.091z"/>
		<path fill="none" d="M73.936,730.629l0.149-4.345c-1.019,0.75-1.86,1.344-2.156,1.484
			C72.641,728.771,73.347,729.771,73.936,730.629z"/>
		<polygon fill="none" points="471.572,764.575 471.572,767 478.419,767 478.419,765.188 		"/>
		<path fill="none" d="M68.91,723.504c0.087,0.126,0.172,0.251,0.248,0.359c0.682,0.977,1.7,2.396,2.715,3.825
			c0.143-0.202,0.66-0.714,1.756-1.708c0.132-0.119,0.3-0.272,0.482-0.439l0.493-14.309c-0.749,2.515-2.233,6.259-3.946,9.234
			C70.11,721.419,69.512,722.456,68.91,723.504z"/>
		<rect x="409.659" y="717.889" fill="none" width="9.219" height="6.562"/>
		<path fill="none" d="M73.052,730.551c-0.895-1.04-2.893-3.314-4.933-5.672c-1.483,2.584-2.888,5.049-3.577,6.316
			c-1.825,3.355-6.658,12.758-3.59,5.468c0.901-2.143,3.875-9.498,5.138-12.13c0.151-0.315,0.36-0.764,0.607-1.303
			c-1.541-1.793-2.959-3.476-3.773-4.522c-1.576-2.027-7.247-8.872-10.661-13.282L53.069,767h19.612l1.222-35.471
			C73.654,731.244,73.375,730.926,73.052,730.551z"/>
		<path fill="none" d="M95.264,709.361c-1.186,1.63-4.503,4.954-7.644,7.158c-3.148,2.21-7.375,5.175-9.014,6.385
			c-0.424,0.313-0.966,0.722-1.551,1.16L77.617,767h15.719l1.986-57.611C95.304,709.379,95.283,709.371,95.264,709.361z"/>
		<path fill="none" d="M117.431,719.228c-0.739,3.501-1.734,8.199-2.081,10.063c-0.582,3.125-1.989,11.81-1.435,5.253
			c0.163-1.927,0.624-8.517,0.948-10.925c0.209-1.555,0.719-6.46,1.197-10.271c-1.481-0.316-2.819-0.613-3.66-0.834
			c-1.8-0.47-7.897-1.864-11.992-2.926c0.788,1.04,0.01,1.889-1.67,1.278c-0.349-0.128-0.88-0.351-1.456-0.602L98.026,767h17.796
			l1.656-48.016C117.462,719.066,117.447,719.148,117.431,719.228z"/>
		<path fill="none" d="M96.38,706.39c0.389,0.254,0.788,0.532,1.2,0.836c1.896-0.047,6.717,0.687,10.469,1.974
			c2.607,0.896,5.84,2.005,8.186,2.79c0.179-1.339,0.346-2.419,0.483-3.009l-0.007-0.005c0,0-0.125-0.812,0.223-1.562
			c-1.268-0.427-5.401-3.332-8.2-6.245c-0.438,0.131-1.141,0.312-2.189,0.558c-1.753,0.41-6.762,1.651-10.269,2.434
			C96.354,705.16,96.396,705.955,96.38,706.39z"/>
		<path fill="none" d="M592.653,744.143L592.653,744.143l-0.004-0.001h-0.003v0.001c-0.484,0.005-0.872,0.561-0.872,0.561v2.616
			h0.776h0.2h0.775v-2.616C593.526,744.703,593.141,744.147,592.653,744.143z"/>
		<polygon fill="none" points="371.812,754.093 361.491,754.093 356.759,764.844 357.921,767 375.03,767 376.541,765.488 		"/>
		<polygon fill="none" points="584.089,720.042 587.819,723.693 587.819,722.713 587.763,720.042 		"/>
		<path fill="none" d="M590.167,722.626h-0.002h-0.002c-0.366,0.003-0.659,0.431-0.659,0.431v2h0.586h0.152h0.583v-2
			C590.825,723.057,590.532,722.629,590.167,722.626z"/>
		<path fill="none" d="M55.066,704.389c1.984,2.07,4.249,4.755,5.963,7.338c2.064,3.11,4.643,7,6.482,9.724
			c1.933-4.252,4.95-10.954,6.101-12.895c-0.151-0.071-0.246-0.113-0.246-0.113s-0.103-0.768,0.159-1.566
			c-1.284-0.939-4.957-5.83-7.079-10.219c-1.872-3.87-4.384-9.066-5.426-11.094c-0.167-0.326-0.367-0.706-0.583-1.12
			c-2.653,4.38-6.901,11.462-8.814,14.167c1.434,0.99,3.004,2.229,4.218,3.293C57.433,703.296,56.889,704.656,55.066,704.389z"/>
		<path fill="none" d="M592.653,738.219h-0.004h-0.003c-0.484,0.007-0.872,0.565-0.872,0.565v2.614h0.776h0.2h0.775v-2.614
			C593.526,738.784,593.141,738.226,592.653,738.219z"/>
		<path fill="none" d="M592.653,750.062h-0.004h-0.003c-0.484,0.005-0.872,0.565-0.872,0.565v2.613h0.776h0.2h0.775v-2.613
			C593.526,750.627,593.141,750.066,592.653,750.062z"/>
		<path fill="#EBECEC" d="M52.264,705.426c3.415,4.41,9.085,11.255,10.661,13.282c0.813,1.047,2.232,2.729,3.773,4.522
			c-0.247,0.539-0.456,0.987-0.607,1.303c-1.263,2.632-4.237,9.987-5.138,12.13c-3.068,7.29,1.765-2.112,3.59-5.468
			c0.688-1.268,2.093-3.732,3.577-6.316c2.04,2.357,4.038,4.632,4.933,5.672c0.323,0.375,0.602,0.693,0.852,0.979L72.682,767h4.936
			l-0.562-42.936c0.585-0.438,1.127-0.847,1.551-1.16c1.64-1.21,5.866-4.175,9.014-6.385c3.141-2.204,6.458-5.528,7.644-7.158
			c0.02,0.01,0.04,0.018,0.058,0.027L93.336,767h4.69l-0.744-56.734c0.576,0.251,1.107,0.474,1.456,0.602
			c1.68,0.61,2.458-0.238,1.67-1.278c4.095,1.062,10.192,2.456,11.992,2.926c0.841,0.221,2.179,0.518,3.66,0.834
			c-0.478,3.811-0.988,8.716-1.197,10.271c-0.324,2.408-0.785,8.998-0.948,10.925c-0.554,6.557,0.853-2.128,1.435-5.253
			c0.347-1.864,1.341-6.562,2.081-10.063c0.016-0.079,0.031-0.161,0.047-0.243L115.823,767h4.55l-0.694-52.905
			c1.806,0.367,3.428,0.69,4.248,0.862c6.22,1.301-0.474-0.695-4.26-1.86l-0.037-2.799c0.534,0.233,1.029,0.441,1.354,0.56
			c1.772,0.645,2.472-0.456,1.183-1.585c-0.623-0.544-1.376-1.149-2.13-1.711c3.031-1.512,10.219-5.699,12.091-6.712
			c2.139-1.151,7.74-4.65,9.396-5.652c5.63-3.406-2.224,0.562-5.093,1.926c-1.711,0.816-6.099,2.774-9.366,4.233
			c-3.352,1.498-7.075,4.036-8.356,5.28c-0.163-0.106-0.336-0.228-0.49-0.318c-0.188,0.056-0.338,0.141-0.484,0.227
			c-0.01-0.05-0.021-0.086-0.021-0.086c-1.334-1.547-9.374-8.284-11.182-9.905c-1.807-1.622-6.992-5.713-8.493-6.933
			c-5.111-4.148,1.276,1.905,3.533,4.144c1.309,1.297,4.48,4.604,6.931,7.161c-1.822,0.152-6.282,0.821-8.488,1.109
			c-0.87,0.115-2.258,0.275-3.879,0.455c-0.39-4.206-1.118-10.25-1.279-12.075c-0.232-2.599-1.31-9.615-1.596-11.674
			c-0.978-7.007-0.392,2.432-0.259,5.845c0.077,2.037,0.149,7.201,0.204,11.045c0.033,2.34,0.374,4.969,0.789,7.095
			c-2.079,0.225-4.316,0.462-6.254,0.668c-4.149,0.439-9.026,1.826-11.172,2.773c-0.486-0.341-0.962-0.663-1.393-0.919
			c-0.255,0.076-0.469,0.186-0.659,0.308c-1.514-3.038-7.486-12.594-8.86-14.963c-0.892-1.542-2.882-4.598-4.585-7.192
			c0.518-0.85,0.952-1.559,1.239-2.009c1.849-2.916,6.367-11.144,7.721-13.533c4.619-8.138-2.366,2.236-4.976,5.922
			c-1.04,1.471-3.21,4.404-5.439,7.405c-0.457-0.691-0.84-1.277-1.093-1.668c-3.12-4.813-1.316-1.25,0.575,2.367
			c-0.936,1.258-1.867,2.509-2.718,3.65c-3.153,4.234-6.037,10.052-6.72,12.436c-0.771,0.415-1.182,1.046-1.386,1.677
			c-0.067-0.047-0.12-0.078-0.12-0.078c-2.89-0.276-17.767,0.707-21.216,0.819c-3.449,0.112-12.793,1.009-15.532,1.232
			c-9.325,0.763,3.18,0.697,7.699,0.779c2.693,0.048,9.515,0.34,14.597,0.558c5.536,0.236,12.354-0.758,14.382-1.56
			c0.004,0.037,0.009,0.084,0.009,0.084s0.657,0.308,1.555,0.718L47.41,767h5.659L52.264,705.426z M106.546,701.726
			c1.048-0.245,1.751-0.427,2.189-0.558c2.799,2.913,6.932,5.818,8.2,6.245c-0.349,0.75-0.223,1.562-0.223,1.562l0.007,0.005
			c-0.137,0.59-0.304,1.67-0.483,3.009c-2.346-0.785-5.579-1.895-8.186-2.79c-3.752-1.287-8.573-2.021-10.469-1.974
			c-0.412-0.304-0.811-0.582-1.2-0.836c0.016-0.435-0.026-1.229-0.103-2.23C99.784,703.377,104.793,702.136,106.546,701.726z
			 M78.498,710.701c2.131,0.772,2.969-0.551,1.42-1.904c-0.406-0.354-0.864-0.732-1.339-1.113
			c4.498-0.769,12.836-2.567,15.133-2.986c0.205-0.038,0.439-0.084,0.688-0.136c0.206,0.811,0.411,1.456,0.592,1.852
			c-0.652,0.528-0.829,1.302-0.857,1.837c-2.62,1.937-9.902,8.321-11.754,9.841c-1.164,0.952-3.377,2.961-5.342,4.761l-0.168-12.821
			C77.515,710.311,78.107,710.558,78.498,710.701z M73.936,730.629c-0.589-0.858-1.295-1.858-2.007-2.86
			c0.296-0.141,1.137-0.734,2.156-1.484L73.936,730.629z M74.604,711.232l-0.493,14.309c-0.182,0.167-0.351,0.32-0.482,0.439
			c-1.096,0.994-1.613,1.506-1.756,1.708c-1.015-1.43-2.033-2.849-2.715-3.825c-0.076-0.108-0.161-0.233-0.248-0.359
			c0.603-1.048,1.2-2.085,1.749-3.037C72.371,717.491,73.855,713.747,74.604,711.232z M60.437,684.443
			c0.217,0.414,0.416,0.794,0.583,1.12c1.042,2.027,3.555,7.224,5.426,11.094c2.122,4.389,5.795,9.279,7.079,10.219
			c-0.262,0.799-0.159,1.566-0.159,1.566s0.094,0.042,0.246,0.113c-1.151,1.94-4.168,8.643-6.101,12.895
			c-1.839-2.724-4.417-6.613-6.482-9.724c-1.714-2.583-3.979-5.268-5.963-7.338c1.823,0.268,2.367-1.093,0.774-2.485
			c-1.214-1.063-2.784-2.303-4.218-3.293C53.536,695.905,57.783,688.823,60.437,684.443z"/>
		<path fill="#EBECEC" d="M994.919,743.981H994l-0.688-18.361h-0.803v-4.819l-3.671-27.882l-3.673,27.882v4.819h-0.804
			l-0.688,18.361h-0.917v2.637h-34.194l-2.407,6.197V767h48.765V743.981z M951.265,766.308h-1.11h-0.29h-1.11v-7.129
			c0,0,0.474-1.109,1.255-1.293v-0.004c0.002,0,0.004,0.004,0.004,0.004c0.002,0,0.004-0.004,0.006-0.004v0.004
			c0.679,0.14,1.246,1.293,1.246,1.293V766.308z M955.373,766.308h-1.113h-0.288h-1.11v-7.129c0,0,0.475-1.109,1.256-1.293v-0.004
			l0.003,0.002c0.002,0,0.002-0.002,0.002-0.002l0.002,0.004c0.681,0.14,1.249,1.293,1.249,1.293V766.308z M959.481,766.308h-1.113
			h-0.29h-1.109v-7.129c0,0,0.476-1.111,1.256-1.293v-0.004l0.004,0.002l0.004-0.002v0.004c0.683,0.14,1.249,1.293,1.249,1.293
			V766.308z M963.587,766.308h-1.112h-0.286h-1.111v-7.129c0,0,0.476-1.111,1.257-1.293v-0.004c0,0,0.001,0.002,0.003,0.002
			l0.003-0.002v0.004c0.682,0.14,1.247,1.293,1.247,1.293V766.308z M967.696,766.308h-1.112h-0.287h-1.111v-7.129
			c0,0,0.473-1.111,1.255-1.293v-0.004c0.001,0,0.003,0.002,0.003,0.002s0.003-0.002,0.005-0.002v0.004
			c0.68,0.14,1.248,1.293,1.248,1.293V766.308z M971.803,766.308h-1.111h-0.289h-1.11v-7.129c0,0,0.477-1.111,1.256-1.293v-0.004
			c0.003,0,0.003,0.002,0.003,0.002c0.002,0,0.005-0.002,0.005-0.002l0.002,0.004c0.679,0.14,1.245,1.293,1.245,1.293V766.308z
			 M975.911,766.308h-1.112h-0.288h-1.111v-7.129c0,0,0.476-1.111,1.255-1.293v-0.004l0.005,0.002l0.001-0.002l0.002,0.004
			c0.681,0.14,1.249,1.293,1.249,1.293V766.308z M980.017,766.308h-1.109h-0.288h-1.11v-7.129c0,0,0.474-1.111,1.253-1.293v-0.004
			c0.004,0,0.004,0.002,0.004,0.002c0.003,0,0.005-0.002,0.005-0.002l0.002,0.004c0.68,0.14,1.244,1.293,1.244,1.293V766.308z
			 M984.128,766.308h-1.113h-0.288h-1.111v-7.129c0,0,0.475-1.111,1.257-1.293v-0.004c0,0,0.002,0.002,0.003,0.002
			c0,0,0.002-0.002,0.004-0.002v0.004c0.68,0.14,1.249,1.293,1.249,1.293V766.308z"/>
		<path fill="#EBECEC" d="M723.905,695.902h6.578v-7.233l3.287-1.976c0,0-5.59-1.971-10.522-2.302c0-0.065-0.065-1.779-0.172-4.447
			h6.092v-0.001v-0.977v-0.001h-6.129c-0.445-11.163-1.434-35.679-1.434-35.679h-0.253c0,0-0.987,24.516-1.432,35.679h-6.207v0.001
			v0.977v0.001h6.167c-0.106,2.668-0.173,4.382-0.173,4.447c-4.931,0.331-10.522,2.302-10.522,2.302l3.289,1.976v7.233h6.578
			L718.167,767h6.625L723.905,695.902z"/>
		<path fill="#EBECEC" d="M853.504,763.699c0-3.838-5.483-14.438-9.139-15.901c-0.185,0,0-2.74,0-2.74l-2.927-2.192h-1.154v-1.809
			h-0.565v1.809h-0.826l-2.924,2.192c0,0,0.181,2.74,0,2.74c-3.654,1.464-9.138,12.063-9.138,15.901V767h26.673V763.699z"/>
		<path fill="#EBECEC" d="M421.535,724.717h-1.646v-13.154c0,0-2.402-2.528-4.426-3.413c-0.049-0.024-0.191-0.035-0.367-0.046
			v-5.427h-1.186v5.429c-0.574,0.018-1.089,0.044-1.089,0.044c-2.023,0.885-4.427,3.413-4.427,3.413v13.154h-1.646L404.376,767
			h19.534L421.535,724.717z M418.878,724.45h-9.219v-6.562h9.219V724.45z"/>
		<path fill="#EBECEC" d="M598.51,766.588h-0.586l-0.585-32.633h-0.586l-0.196-4.69h-0.539v-3.323h-0.781v-10.355h-0.39v1.367h-0.87
			v-4.886l-2.014-3.027h-0.148v-4.986h-0.646v4.986h-0.077l-2.015,3.027v4.886h-0.868v-1.367h-0.39v3.874l-0.057-0.004h-6.955v0.507
			h2.383l4.572,4.572l0.057,0.013v1.394h-0.783v3.323h-0.539l-0.194,4.69h-0.586l-0.355,19.783h-5.508V767h18.656V766.588z
			 M587.819,723.693l-3.73-3.651h3.674l0.057,2.671V723.693z M590.825,725.057h-0.583h-0.152h-0.586v-2c0,0,0.293-0.428,0.659-0.431
			h0.002h0.002c0.365,0.003,0.658,0.431,0.658,0.431V725.057z M593.526,765.081h-0.775h-0.2h-0.776v-2.613
			c0,0,0.388-0.559,0.872-0.562v-0.002c0.003,0,0.003,0.002,0.003,0.002c0.004,0,0.004-0.002,0.004-0.002v0.002
			c0.487,0.004,0.873,0.562,0.873,0.562V765.081z M593.526,759.16h-0.775h-0.2h-0.776v-2.613c0,0,0.388-0.559,0.872-0.562v-0.002
			h0.003h0.004v0.002c0.487,0.004,0.873,0.562,0.873,0.562V759.16z M593.526,753.24h-0.775h-0.2h-0.776v-2.613
			c0,0,0.388-0.561,0.872-0.565h0.003h0.004c0.487,0.005,0.873,0.565,0.873,0.565V753.24z M593.526,747.319h-0.775h-0.2h-0.776
			v-2.616c0,0,0.388-0.556,0.872-0.561v-0.001h0.003h0.004v0.001c0.487,0.005,0.873,0.561,0.873,0.561V747.319z M593.526,741.398
			h-0.775h-0.2h-0.776v-2.614c0,0,0.388-0.559,0.872-0.565h0.003h0.004c0.487,0.007,0.873,0.565,0.873,0.565V741.398z
			 M593.526,735.479h-0.775h-0.2h-0.776v-2.614c0,0,0.388-0.559,0.872-0.565v-0.002c0.003,0,0.003,0.002,0.003,0.002
			c0.004,0,0.004-0.002,0.004-0.002v0.002c0.487,0.007,0.873,0.565,0.873,0.565V735.479z"/>
		<path fill="#EBECEC" d="M693.684,766.681c1.313-3.946-2.5-6.052-6.051-6.052c-0.757,0-2.046-0.057-3.677-0.159
			c0.089-2.979,0.053-6.151-0.221-9.29c-0.64-7.344-2.347-18.239-7.297-25.535h-7.295v-2.867h-5.212v-1.302h-2.605v-2.344h2.085
			v-1.303h-8.599v-23.971l-1.168-1.755v-12.21h-0.452v13.176h0.059v24.76h-8.078v1.303h5.994v13.027h-3.649v23.615
			c-5.211-1.18-9.746-2.413-12.501-3.168c-8.154-2.237-13.68-2.105-16.969-0.396c-3.549,1.846-4.406,6.246-2.762,9.208
			c0.937,1.686,3.089,3.946,4.769,5.581h73.504C693.6,766.891,693.646,766.795,693.684,766.681z"/>
		<polygon fill="#EBECEC" points="356.759,764.844 361.491,754.093 371.812,754.093 376.541,765.488 375.03,767 379.99,767 
			373.53,753.234 373.53,746.781 382.562,746.781 382.562,744.204 383.379,743.857 383.422,741.19 365.577,736.462 365.577,734.096 
			338.27,728.979 333.108,728.765 333.065,729.367 330.099,729.367 332.249,730.049 332.249,755.504 332.249,756.659 
			332.907,756.659 332.907,730.259 357.189,737.968 357.189,745.405 363.641,745.405 363.641,746.998 359.77,746.998 
			359.77,752.801 353.089,767 357.921,767 		"/>
		<path fill="#EBECEC" d="M471.572,764.575l6.847,0.613V767h59.93v-3.282h-1.595v-9.067h-13.97v-3.31h-3.554v-8.457
			c0,0-6.128-0.491-9.438-0.615c-4.66-0.17-9.436,0.368-9.436,0.368v12.257h-8.58v-8.578c0,0-2.939,0-5.881,0.489
			c-1.217,0.204-4.044,0.735-4.044,0.735v13.971h-10.279v-5.636l-2.329-0.981l-26.718,0.246V767h29.047V764.575z"/>
		<path fill="#EBECEC" d="M764.113,754.574l-4.097-4.096h-4.232v-0.901h0.695v-0.488h-0.695c0,0-1.458-4.372-6.389-4.372
			l-2.952-0.08v-2.543h-0.282v2.541l-3.007,0.082c-4.931,0-6.387,4.372-6.387,4.372h-0.694v0.488h0.694v0.901h-4.234l-4.097,4.096
			V767h35.677V754.574z M741.449,749.58c0.477,0,0.863,0.387,0.863,0.863c0,0.479-0.387,0.864-0.863,0.864
			c-0.479,0-0.863-0.386-0.863-0.864C740.586,749.967,740.971,749.58,741.449,749.58z M738.55,766.238h-0.809h-0.209h-0.809v-2.682
			c0,0,0.401-0.573,0.909-0.577v-0.002h0.002h0.004v0.002c0.504,0.004,0.911,0.577,0.911,0.577V766.238z M738.55,760.963h-1.826
			v-7.175h1.826V760.963z M737.979,751.86c-0.479,0-0.865-0.386-0.865-0.861c0-0.478,0.387-0.865,0.865-0.865
			c0.475,0,0.864,0.388,0.864,0.865C738.843,751.475,738.453,751.86,737.979,751.86z M742.436,766.238h-0.911h-0.236h-0.912v-3.015
			c0,0,0.456-0.643,1.026-0.648v-0.001h0.005h0.002v0.001c0.572,0.006,1.026,0.648,1.026,0.648V766.238z M742.436,760.963h-2.06
			v-8.042h2.06V760.963z M746.17,749.233c0.476,0,0.862,0.386,0.862,0.862c0,0.479-0.387,0.863-0.862,0.863
			c-0.478,0-0.864-0.385-0.864-0.863C745.306,749.619,745.692,749.233,746.17,749.233z M747.227,766.238h-1.005h-0.262h-1.002
			v-3.311c0,0,0.5-0.706,1.13-0.711v-0.002h0.003h0.004v0.002c0.629,0.005,1.132,0.711,1.132,0.711V766.238z M747.227,760.963
			h-2.267v-8.814h2.267V760.963z M754.499,750.134c0.476,0,0.864,0.388,0.864,0.865c0,0.476-0.389,0.861-0.864,0.861
			s-0.865-0.386-0.865-0.861C753.634,750.521,754.023,750.134,754.499,750.134z M751.809,766.238h-0.912h-0.237h-0.911v-3.015
			c0,0,0.454-0.643,1.027-0.648v-0.001h0.002h0.004v0.001c0.57,0.006,1.027,0.648,1.027,0.648V766.238z M751.809,760.963h-2.061
			v-8.042h2.061V760.963z M751.028,751.308c-0.477,0-0.864-0.386-0.864-0.864c0-0.477,0.388-0.863,0.864-0.863
			s0.863,0.387,0.863,0.863C751.892,750.922,751.505,751.308,751.028,751.308z M755.461,766.238h-0.809h-0.209h-0.81v-2.682
			c0,0,0.405-0.573,0.912-0.577v-0.002h0.002h0.004v0.002c0.507,0.004,0.909,0.577,0.909,0.577V766.238z M755.461,760.963h-1.827
			v-7.175h1.827V760.963z"/>
		<path fill="#EBECEC" d="M899.394,764.557h4.914V767h9.318v-0.091h5.729V767h16.046l-4.846-1.375v-2.477l1.624-0.345v-5.983v-9.917
			l-6.669-4.02c0,0-4.616,1.026-5.387,1.285c-0.769,0.256-1.538,0.597-2.222,1.967c-0.686,1.365-1.369,2.989-1.369,2.989
			l-1.453,5.043l-0.77,1.284l-15.476-3.161l-7.179,1.623l-0.173,10.857h1.283V767h6.627V764.557z M929.188,750.152l2.306,1.112
			v5.129l-2.306-0.684V750.152z M908.327,765.028v-0.086h4.786v1.28h-4.786V765.028z M893.108,754.819l3.59-0.734v1.281l-3.59,0.685
			V754.819z M898.237,762.975l-3.076,0.258v-6.497l3.076-0.471V762.975z"/>
		<path fill="#EBECEC" d="M868.114,747.896h0.759v-1.661h-1.989l-0.915-69.799c4.255,4.476,12.337,12.304,14.498,14.534
			c2.728,2.814,10.62,9.985,12.9,12.119c7.763,7.257-1.844-3.208-5.223-7.068c-2.02-2.304-6.983-8.264-10.681-12.7
			c-2.369-2.842-5.434-5.728-8.012-7.852c1.54-0.297,1.344-2.135-0.61-3.399c-0.979-0.632-2.116-1.312-3.248-1.937
			c2.155-3.665,8.556-17.881,10.205-21.241c1.729-3.521,5.812-13.372,7.048-16.238c4.207-9.759-2.396,2.818-4.889,7.304
			c-1.484,2.679-5.415,9.364-8.341,14.345c-3.006,5.113-5.521,11.951-6.035,14.781c-0.518-0.252-1.019-0.482-1.47-0.667
			c-0.715,0.717-0.872,1.712-0.807,2.661c-4.671,0.392-19.366,2.979-22.979,3.496c-3.881,0.552-14.323,2.721-17.387,3.311
			c-10.435,2.019,3.677,0.396,8.788-0.07c3.048-0.276,10.786-0.791,16.552-1.173c5.863-0.393,12.851-2.133,15.537-3.3
			c0.135,0.36,0.243,0.584,0.243,0.584s0.354,0.097,0.893,0.239l-2.482,72.07h-2.222v1.661h1.002V767h8.864V747.896z"/>
	</g>
</g>
</svg>
