<?xml version="1.0" encoding="utf-8"?>
<!-- Generator: Adobe Illustrator 16.0.0, SVG Export Plug-In . SVG Version: 6.00 Build 0)  -->
<!DOCTYPE svg PUBLIC "-//W3C//DTD SVG 1.1//EN" "http://www.w3.org/Graphics/SVG/1.1/DTD/svg11.dtd">
<svg version="1.1" id="Ebene_1" xmlns="http://www.w3.org/2000/svg" xmlns:xlink="http://www.w3.org/1999/xlink" x="0px" y="0px"
	 width="1000px" height="77.727px" viewBox="0 689.5 1000 77.727" enable-background="new 0 689.5 1000 77.727"
	 xml:space="preserve">
<g id="Ebene_1_1_" display="none">
	<g display="inline">
		<path fill="#9A9B9C" d="M942.573,285.898l-15.658,26.412h27.543l28.486-26.412 M985.021,446.256v-35.277h-33.205v-12.073h29.244
			V364.19h-29.244v-9.998h32.639v-35.09h-77.536v127.153L985.021,446.256L985.021,446.256z M901.05,354.947v-35.845h-73.388v127.153
			h44.9V402.3h24.713v-35.468h-24.713v-11.885H901.05z M773.257,397.395h-9.623l4.524-39.619h0.566L773.257,397.395z
			 M824.948,446.256l-21.319-127.153h-67.351l-21.883,127.153h43.578l1.699-14.524h17.545l1.51,14.524H824.948L824.948,446.256z
			 M714.188,440.784l-8.488-33.769c-4.34,2.451-10.188,4.338-14.338,4.338c-5.66,0-11.885-2.453-11.885-28.674
			c0-25.469,5.281-29.619,13.207-29.619c4.338,0,9.055,1.509,12.639,3.395l8.301-32.636c-8.866-5.472-18.487-7.925-29.995-7.925
			c-33.015,0-50.369,23.77-50.369,67.162c0,48.86,14.713,66.406,47.918,66.406C694.757,449.463,705.323,445.879,714.188,440.784"/>
	</g>
	<path display="inline" fill="#D7D8D9" d="M480.103,475.843c2.654,0,4.803-5.264,4.803-11.757c0-6.492-2.147-11.755-4.803-11.755
		c-2.65,0-4.801,5.263-4.801,11.755C475.302,470.579,477.451,475.843,480.103,475.843"/>
	<path display="inline" fill="#D7D8D9" d="M569.399,490.033c5.303,0,9.604-6.819,9.604-15.233c0-8.41-4.302-15.23-9.604-15.23
		c-5.301,0-9.604,6.82-9.604,15.23C559.796,483.214,564.099,490.033,569.399,490.033"/>
	<polygon display="inline" fill="#FFFFFF" points="676.865,452.537 659.804,389.369 601.257,384.266 456.099,405.387 
		453.406,411.341 452.412,446.639 630.742,458.262 675.679,457.127 	"/>
	<path display="inline" fill="#D7D8D9" d="M678.733,452.41l-16.838-61.555l-0.439-0.16c-1.461-4.557-9.881-7.803-9.881-7.803
		l-13.576-2.979l-32.45-3.644l-7.947,0.661l-139.076,23.841c-5.959,1.987-6.291,13.576-6.291,13.576l-0.33,14.571l-0.996,33.443
		l11.924,5.299l10.265-0.663c0,0,0.664,1.324,1.324,1.324c-0.854-3.848-0.55-9.32,0.358-12.246c1.205-3.873,3.285-4.641,3.285-4.641
		c8.771-3.107,9.271,11.258,9.271,11.258v8.94l2.649-0.334l67.881,8.279l1.656-16.887c0.996-8.941,10.596-7.285,10.596-7.285
		c7.947,0.661,9.937,16.888,9.937,16.888l1.324,10.266l33.774,4.637h4.305l36.093-1.325l18.545-2.317l3.311-3.643l1.326-21.193
		L678.733,452.41z M591.31,420.973l-69.869,2.979l-65.896,2.981c-3.312-14.9,0.993-19.868,0.993-19.868
		s116.89-15.895,134.771-20.198c17.879-4.305,18.213,12.913,18.213,12.913l6.955,30.797L591.31,420.973z M674.826,454.576
		l-8.94-0.287l-12.984-0.203l-5.344-0.389l-13.789-0.444c-6.178,0.639-9.25-4.297-10.518-7.217
		c-0.648-1.271-0.814-2.215-0.814-2.215l-0.238-1.002c-1.862-7.011-11.545-43.783-10.946-49.173c0-0.002,0.002-0.004,0.002-0.008
		l-0.074-0.482c0.15-0.749,0.438-1.389,0.801-1.955c1.883-3.696,6.557-4.176,6.557-4.176c15.662-1.012,31.316,1.83,37.861,3.238
		l2.908,0.325l0.104,0.362c0.115,0.029,0.188,0.047,0.188,0.047l17.271,61.539L674.826,454.576z"/>
	<g display="inline">
		<path fill="#9A9B9C" d="M541.599,382.302c0,21.696-4.338,30.185-13.584,30.185c-0.943,0-3.019-0.188-4.717-0.188v-59.803
			c1.51-0.189,3.584-0.189,4.526-0.189C538.578,352.305,541.599,361.55,541.599,382.302 M587.63,381.925
			c0-53.579-19.435-63.388-60.937-63.388c-15.846,0-32.637,0.189-47.92,0.376v127.154c10.756,0.188,22.074,0.377,43.203,0.377
			C567.821,446.444,587.63,427.202,587.63,381.925 M475.005,446.067v-35.654H452.74v-91.5h-45.276v127.154H475.005z
			 M353.926,360.418c0,3.961-0.755,8.302-9.057,8.302h-2.829v-16.603c1.131-0.189,1.886-0.189,2.641-0.189
			C353.36,351.928,353.926,356.268,353.926,360.418 M403.164,446.067l-16.036-55.275c7.926-6.228,12.643-17.734,12.643-32.639
			c0-25.278-16.979-39.617-51.316-39.617c-16.413,0-38.107,0-50.56,0.376v127.154h44.147v-44.521h1.885l8.491,44.521
			L403.164,446.067L403.164,446.067z M244.074,382.302c0,24.337-3.206,30.94-11.696,30.94c-8.489,0-10.943-7.735-10.943-30.751
			c0-24.715,3.207-31.315,11.697-31.315C241.621,351.176,244.074,358.909,244.074,382.302 M291.239,381.925
			c0-38.863-8.489-66.406-57.352-66.406h-1.509c-33.771,0-58.105,16.036-58.105,67.35c0,39.428,8.488,66.595,57.352,66.595h1.509
			C267.09,449.463,291.239,433.616,291.239,381.925 M177.064,318.913h-44.521l-3.775,48.674l-2.64,28.487h-0.189l-3.208-28.487
			l-5.281-48.674H68.398l-3.961,48.674l-3.206,28.487h-0.188l-2.453-28.487l-5.282-48.674H8.031l18.111,127.154h59.049l3.206-33.204
			l1.699-21.129h0.188l2.263,21.129l3.208,33.204h57.351L177.064,318.913z"/>
	</g>
	<g display="inline">
		<path fill="#981020" d="M911.073,571.695c40.402,0,73.154-32.752,73.154-73.156c0-40.4-32.752-73.153-73.154-73.153
			c-40.399,0-73.153,32.753-73.153,73.153C837.919,538.943,870.673,571.695,911.073,571.695"/>
		<path fill="#981020" d="M986.248,51.073V13.218h-80.686v37.855h17.4v91.011h45.887V51.073H986.248z M898.3,142.083V13.218h-40.726
			v39.194l-18.93-39.194h-48.371v128.866h41.107V97.917l19.885,44.166H898.3z M779.567,142.083V13.218H733.68v43.974h-17.207V13.218
			h-45.887v128.866h45.887V95.05h17.207v47.034L779.567,142.083L779.567,142.083z M614.759,77.459
			c0,24.665-3.25,31.356-11.854,31.356s-11.09-7.839-11.09-31.165c0-25.047,3.25-31.738,11.854-31.738
			C612.274,45.913,614.759,53.749,614.759,77.459 M662.56,77.078c0-39.387-8.605-67.302-58.125-67.302h-1.529
			c-34.225,0-58.889,16.251-58.889,68.257c0,39.96,8.604,67.493,58.123,67.493h1.529C638.085,145.526,662.56,129.464,662.56,77.078
			 M541.914,13.218h-45.125l-3.823,49.326l-2.677,28.873h-0.19l-3.25-28.873l-5.354-49.326h-49.709l-4.016,49.326l-3.25,28.873
			h-0.193l-2.485-28.873l-5.353-49.326H370.6l18.357,128.866h59.844l3.25-33.65l1.721-21.415h0.189l2.295,21.415l3.25,33.65h58.123
			L541.914,13.218z M323.953,142.083v-35.755h-33.651V94.093h29.634v-35.18h-29.634V48.78h33.076V13.218h-78.581v128.866
			L323.953,142.083L323.953,142.083z M234.091,13.218h-45.887v128.866h45.887V13.218z M183.424,13.218h-45.123l-3.824,49.326
			l-2.676,28.873h-0.19l-3.251-28.873l-5.354-49.326h-49.71l-4.015,49.326L66.03,91.417h-0.19l-2.486-28.873L58,13.218H12.112
			l18.355,128.866h59.845l3.25-33.65l1.722-21.415h0.188l2.296,21.415l3.25,33.65h58.124L183.424,13.218z"/>
		<path fill="#9A9B9C" d="M872.781,267.854c0,2.279-0.436,4.775-5.207,4.775h-1.629v-9.547c0.65-0.108,1.086-0.108,1.521-0.108
			C872.457,262.973,872.781,265.467,872.781,267.854 M901.099,317.109l-9.224-31.787c4.558-3.581,7.271-10.2,7.271-18.771
			c0-14.537-9.764-22.784-29.508-22.784c-9.439,0-21.918,0-29.078,0.22v73.122h25.387v-25.604h1.086l4.884,25.604L901.099,317.109
			L901.099,317.109z M835.386,317.109v-20.288h-19.095v-6.942h16.816v-19.964h-16.816v-5.75h18.769v-20.177h-44.59v73.122
			L835.386,317.109L835.386,317.109z M784.558,317.109v-73.122h-23.108v22.24l-10.739-22.24h-27.449v73.122h23.326v-25.061
			l11.28,25.061H784.558z M718.087,317.109v-20.288H698.99v-6.942h16.816v-19.964H698.99v-5.75h18.771v-20.177h-44.59v73.122
			L718.087,317.109L718.087,317.109z M671.849,243.988h-25.604l-3.907,36.886l-0.976,11.715l-0.977-11.715l-4.447-36.886h-25.932
			l12.371,73.122h36.45L671.849,243.988z M584.371,289.01h-5.532l2.602-22.783h0.328L584.371,289.01z M614.097,317.109
			l-12.258-73.122h-38.732l-12.584,73.122h25.062l0.977-8.355h10.088l0.871,8.355H614.097z M549.037,317.109v-73.122h-26.039v24.95
			h-9.764v-24.95h-26.037v73.122h26.037V290.42h9.764v26.689H549.037z M456.332,267.854c0,2.279-0.436,4.775-5.209,4.775h-1.625
			v-9.547c0.648-0.108,1.084-0.108,1.519-0.108C456.007,262.973,456.332,265.467,456.332,267.854 M484.647,317.109l-9.221-31.787
			c4.557-3.581,7.268-10.2,7.268-18.771c0-14.537-9.764-22.784-29.506-22.784c-9.441,0-21.918,0-29.078,0.22v73.122h25.389v-25.604
			h1.084l4.882,25.604L484.647,317.109L484.647,317.109z M418.937,317.109v-20.288h-19.094v-6.942h16.813v-19.964h-16.813v-5.75
			h18.77v-20.177h-44.592v73.122L418.937,317.109L418.937,317.109z M370.345,317.109l-5.533-73.122h-32.33l-5.643,29.942h-0.11
			l-5.965-29.942h-34.283l-5.534,73.122h23.979l1.733-38.622h0.109l7.269,38.622h22.241l7.268-38.622h0.108l1.628,38.622H370.345z
			 M278.237,317.109v-20.288h-19.095v-6.942h16.816v-19.964h-16.816v-5.75h18.771v-20.177H233.32v73.122L278.237,317.109
			L278.237,317.109z M202.457,267.854c0,2.279-0.435,4.775-5.208,4.775h-1.627v-9.547c0.65-0.108,1.083-0.108,1.519-0.108
			C202.131,262.973,202.457,265.467,202.457,267.854 M230.772,317.109l-9.221-31.787c4.555-3.581,7.268-10.2,7.268-18.771
			c0-14.537-9.765-22.784-29.51-22.784c-9.438,0-21.915,0-29.076,0.22v73.122h25.389v-25.604h1.083l4.883,25.604L230.772,317.109
			L230.772,317.109z M141.029,293.458c0,2.169-0.435,4.558-5.968,4.558h-1.733v-8.682c0.542,0,0.976-0.107,1.408-0.107
			C140.159,289.228,141.029,291.181,141.029,293.458 M140.594,266.985c0,2.278-0.761,4.015-5.75,4.015h-1.518v-7.918
			c0.433,0,0.866-0.108,1.408-0.108C139.833,262.973,140.594,264.599,140.594,266.985 M167.174,293.35
			c0-6.836-4.34-13.345-9.655-14.973c4.339-2.604,6.942-6.942,6.942-13.886c0-17.032-13.126-20.613-28.424-20.613
			c-8.138,0-17.9,0.109-26.797,0.109v73.122c9.005,0,18.553,0.108,27.882,0.108C152.311,317.218,167.174,311.033,167.174,293.35"/>
		<path fill="#9A9B9C" d="M97.546,293.073H71.771v23.303h25.775V293.073z M67.676,316.376v-21.154H48.882l6.015-5.16
			c9.451-8.169,12.028-16.125,12.028-23.758c0-13.423-7.518-21.692-24.487-21.692c-8.703,0-16.116,2.577-24.175,8.161L26,269.958
			c3.652-2.257,7.306-3.977,9.993-3.977c3.008,0,4.083,1.398,4.083,4.193c0,2.474-2.687,6.88-8.812,13.544L19.23,296.833v19.543
			H67.676z"/>
		<path fill="#981020" d="M966.526,212.608h-34.449v28.564h34.449V212.608z M981.597,166.821c0-15.073-9.763-24.975-28.564-24.975
			c-8.323,0-18.373,1.722-28.274,5.452l4.448,23.685c5.023-2.01,7.607-2.583,11.054-2.583c3.586,0,4.592,0.861,4.592,3.015
			c0,7.176-11.914,6.601-11.914,31.432v4.881h32.729v-5.023C965.664,188.35,981.597,187.06,981.597,166.821 M918.585,241.173
			v-96.744h-30.574v29.425L873.8,144.429h-36.312v96.744h30.861v-33.158l14.928,33.158H918.585z M830.312,241.173v-26.842h-25.264
			v-9.188h22.248v-26.41h-22.248v-7.606h24.832v-26.698h-58.992v96.744H830.312z M768.448,144.429h-33.875l-5.166,48.803
			l-1.293,15.502l-1.293-15.502l-5.887-48.803h-34.303l16.36,96.744h48.229L768.448,144.429z M649.74,203.996h-7.319l3.446-30.142
			h0.431L649.74,203.996z M689.071,241.173l-16.217-96.744h-51.248l-16.646,96.744h33.155l1.291-11.052h13.351l1.147,11.052H689.071
			z M602.375,241.173v-96.744h-34.448v33.013h-12.918v-33.013H520.56v96.744h34.449V205.86h12.918v35.312L602.375,241.173
			L602.375,241.173z M478.647,176.006c0,3.014-0.576,6.316-6.889,6.316h-2.154v-12.631c0.861-0.144,1.436-0.144,2.01-0.144
			C478.218,169.548,478.647,172.85,478.647,176.006 M516.11,241.173l-12.201-42.057c6.029-4.737,9.617-13.492,9.617-24.833
			c0-19.233-12.918-30.142-39.043-30.142c-12.486,0-28.992,0-38.467,0.288v96.744h33.588v-33.875h1.436l6.462,33.875H516.11z
			 M428.841,241.173v-26.842h-25.263v-9.188h22.246v-26.41h-22.246v-7.606h24.832v-26.698h-58.994v96.744H428.841z M364.682,241.173
			l-7.323-96.744h-42.772l-7.464,39.617h-0.144l-7.895-39.617h-45.358l-7.32,96.744h31.721l2.298-51.101h0.144l9.618,51.101h29.424
			l9.615-51.101h0.144l2.155,51.101H364.682z M242.533,241.173v-26.842h-25.265v-9.188h22.249v-26.41h-22.249v-7.606h24.832v-26.698
			h-58.994v96.744H242.533z M141.195,176.006c0,3.014-0.572,6.316-6.889,6.316h-2.154v-12.631c0.862-0.144,1.437-0.144,2.011-0.144
			C140.765,169.548,141.195,172.85,141.195,176.006 M178.658,241.173l-12.201-42.057c6.028-4.737,9.618-13.492,9.618-24.833
			c0-19.233-12.92-30.142-39.042-30.142c-12.489,0-28.994,0-38.469,0.288v96.744h33.587v-33.875h1.437l6.459,33.875H178.658z
			 M59.092,209.881c0,2.871-0.573,6.027-7.896,6.027h-2.296v-11.483c0.718,0,1.292-0.142,1.867-0.142
			C57.944,204.283,59.092,206.867,59.092,209.881 M58.519,174.856c0,3.015-1.006,5.312-7.606,5.312h-2.012v-10.477
			c0.573,0,1.148-0.144,1.867-0.144C57.513,169.548,58.519,171.7,58.519,174.856 M93.685,209.738
			c0-9.042-5.741-17.656-12.774-19.809c5.74-3.443,9.186-9.186,9.186-18.371c0-22.537-17.368-27.272-37.607-27.272
			c-10.766,0-23.683,0.144-35.452,0.144v96.744c11.914,0,24.546,0.144,36.89,0.144C74.021,241.316,93.685,233.133,93.685,209.738"/>
	</g>
	<g display="inline">
		<path fill="#FFFFFF" d="M853.912,495.28v-1.303l7.691-8.046c3.59-3.747,4.93-6.665,4.93-9.624c0-3.114-1.614-5.322-5.244-5.322
			c-1.934,0-3.864,0.748-6.469,2.129l-0.553-1.185c2.367-1.499,4.852-2.405,7.258-2.405c4.301,0,6.705,2.563,6.705,6.509
			c0,3.628-1.42,6.586-5.127,10.413l-7.061,7.335h13.448v1.499H853.912z"/>
		<path fill="#FFFFFF" d="M881.603,495.398c-6.549,0-8.047-6.588-8.047-12.938c0-6.349,1.733-12.937,8.479-12.937
			c6.589,0,8.086,6.588,8.086,12.937C890.119,488.812,888.386,495.398,881.603,495.398z M881.839,470.985
			c-5.166,0-6.589,5.521-6.589,11.476c0,5.956,1.343,11.479,6.589,11.479c5.166,0,6.584-5.522,6.584-11.479
			C888.423,476.506,887.082,470.985,881.839,470.985z"/>
		<path fill="#FFFFFF" d="M895.485,495.28v-3.354h2.01v3.354H895.485z"/>
		<path fill="#FFFFFF" d="M915.521,470.156v10.649h8.439v1.459h-8.439v13.016h-1.697v-26.583h10.769v1.459H915.521L915.521,470.156z
			"/>
		<path fill="#FFFFFF" d="M935.556,495.398c-4.654,0-6.98-2.562-6.98-9.979c0-6.548,2.603-10.293,7.14-10.293
			c4.219,0,6.508,3.629,6.508,8.361c0,0.67-0.041,1.578-0.078,2.051h-11.873c0,5.759,1.734,8.401,5.521,8.401
			c1.303,0,3.745-0.354,5.481-0.908l0.355,1.146C939.421,495.005,937.408,495.398,935.556,495.398z M940.563,483.724
			c0-3.628-1.26-7.179-5.008-7.179c-3.906,0-5.127,4.024-5.285,7.612h10.293V483.724L940.563,483.724z"/>
		<path fill="#FFFFFF" d="M954.802,495.398c-1.379,0-3.113-0.79-5.758-3.154l-0.236,3.036h-1.301v-28.634l1.655-0.198v11.715
			c2.644-2.287,4.261-3.037,6.035-3.037c3.668,0,5.797,4.299,5.797,10.097C960.994,491.612,958.354,495.398,954.802,495.398z
			 M954.882,476.585c-1.42,0-3.312,1.025-5.72,3.274v10.766c2.406,2.249,4.222,3.314,5.482,3.314c2.682,0,4.693-3.709,4.693-8.639
			C959.339,480.371,957.683,476.585,954.882,476.585z"/>
	</g>
	<g display="inline">
		<path fill="#FFFFFF" d="M872.569,542.607v-1.302l7.689-8.047c3.59-3.747,4.932-6.665,4.932-9.623c0-3.116-1.617-5.323-5.244-5.323
			c-1.934,0-3.865,0.748-6.471,2.131l-0.551-1.185c2.364-1.5,4.852-2.406,7.258-2.406c4.299,0,6.705,2.562,6.705,6.509
			c0,3.628-1.422,6.587-5.129,10.412l-7.062,7.337h13.449v1.497H872.569L872.569,542.607z"/>
		<path fill="#FFFFFF" d="M900.257,542.726c-6.547,0-8.045-6.586-8.045-12.937c0-6.349,1.733-12.936,8.479-12.936
			c6.588,0,8.084,6.587,8.084,12.936C908.774,536.14,907.039,542.726,900.257,542.726z M900.492,518.312
			c-5.166,0-6.586,5.521-6.586,11.477c0,5.957,1.34,11.478,6.586,11.478c5.168,0,6.586-5.521,6.586-11.478
			C907.078,523.835,905.739,518.312,900.492,518.312z"/>
		<path fill="#FFFFFF" d="M919.505,542.607v-23.861l-6.783,3.116l-0.553-1.184l7.454-3.748h1.576v25.677H919.505L919.505,542.607z"
			/>
		<path fill="#FFFFFF" d="M933.229,542.726c-2.799,0-5.088-0.747-6.824-1.576l0.513-1.419c2.131,0.906,4.772,1.536,6.668,1.536
			c4.93,0,6.782-1.773,6.782-6.23c0-4.495-1.42-5.758-8.36-5.758c-1.5,0-2.484,0.117-3.746,0.234l1.182-12.541h11.004l-0.155,1.499
			h-9.547l-0.865,9.426c0.983-0.039,1.893-0.077,2.721-0.077c7.771,0,9.506,2.168,9.506,6.979
			C942.104,540.873,938.789,542.726,933.229,542.726z"/>
	</g>
</g>
<g id="Ebene_2" display="none">
	<g display="inline">
		<g>
			<path fill="#9A9B9C" d="M867.018,34.425l-7.469,12.596h13.137l13.586-12.596 M887.261,110.903V94.078h-15.836V88.32h13.945
				V71.764h-13.945v-4.768h15.564V50.261h-36.979v60.642H887.261z M847.214,67.356V50.261h-35.001v60.642h21.415V89.939h11.785
				V73.024h-11.785v-5.668H847.214z M786.267,87.6h-4.591l2.159-18.895h0.271L786.267,87.6z M810.919,110.903L800.75,50.261h-32.12
				l-10.438,60.642h20.785l0.809-6.928h8.367l0.722,6.928H810.919z M758.095,108.293l-4.048-16.104
				c-2.068,1.168-4.859,2.068-6.838,2.068c-2.699,0-5.669-1.169-5.669-13.675c0-12.146,2.52-14.126,6.298-14.126
				c2.068,0,4.318,0.72,6.028,1.619l3.958-15.564c-4.228-2.609-8.816-3.779-14.304-3.779c-15.747,0-24.024,11.336-24.024,32.031
				c0,23.302,7.019,31.67,22.854,31.67C748.827,112.432,753.866,110.723,758.095,108.293"/>
		</g>
		<path fill="#D7D8D9" d="M646.453,125.013c1.267,0,2.29-2.51,2.29-5.606c0-3.097-1.023-5.606-2.29-5.606
			c-1.264,0-2.289,2.51-2.289,5.606C644.164,122.503,645.19,125.013,646.453,125.013"/>
		<path fill="#D7D8D9" d="M689.041,131.781c2.528,0,4.581-3.253,4.581-7.265c0-4.011-2.053-7.264-4.581-7.264
			c-2.527,0-4.58,3.253-4.58,7.264C684.461,128.528,686.514,131.781,689.041,131.781"/>
		<polygon fill="#FFFFFF" points="740.295,113.898 732.156,83.772 704.235,81.339 635.007,91.411 633.723,94.251 633.247,111.085 
			718.297,116.628 739.729,116.087 		"/>
		<path fill="#D7D8D9" d="M741.186,113.838l-8.029-29.357l-0.211-0.076c-0.695-2.174-4.713-3.722-4.713-3.722l-6.475-1.421
			l-15.477-1.738l-3.79,0.315L636.162,89.21c-2.843,0.947-3.001,6.474-3.001,6.474l-0.156,6.95l-0.477,15.95l5.688,2.527
			l4.896-0.316c0,0,0.315,0.631,0.631,0.631c-0.406-1.835-0.262-4.445,0.173-5.84c0.573-1.848,1.565-2.213,1.565-2.213
			c4.183-1.482,4.421,5.369,4.421,5.369v4.264l1.266-0.159l32.373,3.949l0.789-8.054c0.477-4.265,5.056-3.475,5.056-3.475
			c3.788,0.316,4.737,8.055,4.737,8.055l0.631,4.896l16.108,2.211h2.054l17.214-0.632l8.844-1.105l1.578-1.737l0.635-10.108
			L741.186,113.838L741.186,113.838z M699.491,98.844l-33.323,1.42l-31.427,1.422c-1.58-7.107,0.475-9.476,0.475-9.476
			s55.748-7.58,64.275-9.633c8.525-2.053,8.686,6.158,8.686,6.158l3.316,14.688L699.491,98.844z M739.323,114.871l-4.265-0.137
			l-6.193-0.098l-2.549-0.185l-6.576-0.211c-2.944,0.304-4.411-2.05-5.016-3.442c-0.31-0.606-0.388-1.056-0.388-1.056l-0.113-0.478
			c-0.891-3.343-5.506-20.881-5.222-23.451c0-0.001,0-0.003,0-0.004l-0.035-0.23c0.071-0.357,0.209-0.662,0.382-0.933
			c0.896-1.763,3.127-1.991,3.127-1.991c7.471-0.482,14.938,0.873,18.058,1.544l1.388,0.155l0.049,0.174
			c0.056,0.013,0.09,0.022,0.09,0.022l8.236,29.349L739.323,114.871z"/>
		<g>
			<path fill="#9A9B9C" d="M675.782,80.402c0,10.347-2.068,14.395-6.478,14.395c-0.452,0-1.44-0.089-2.252-0.089V66.186
				c0.721-0.091,1.71-0.091,2.16-0.091C674.343,66.095,675.782,70.505,675.782,80.402 M697.735,80.222
				c0-25.553-9.268-30.231-29.062-30.231c-7.558,0-15.564,0.09-22.854,0.18v60.643c5.129,0.09,10.527,0.18,20.604,0.18
				C688.288,110.993,697.735,101.816,697.735,80.222 M644.023,110.813V93.809h-10.62V50.17H611.81v60.643H644.023z M586.278,69.965
				c0,1.889-0.358,3.958-4.32,3.958h-1.349v-7.918c0.539-0.09,0.899-0.09,1.26-0.09C586.008,65.916,586.278,67.985,586.278,69.965
				 M609.761,110.813l-7.647-26.362c3.778-2.97,6.029-8.458,6.029-15.566c0-12.056-8.098-18.894-24.475-18.894
				c-7.828,0-18.175,0-24.113,0.18v60.643h21.055V89.58h0.899l4.05,21.233H609.761z M533.887,80.402
				c0,11.606-1.529,14.756-5.578,14.756c-4.048,0-5.219-3.689-5.219-14.666c0-11.788,1.529-14.935,5.579-14.935
				C532.718,65.557,533.887,69.245,533.887,80.402 M556.382,80.222c0-18.535-4.05-31.671-27.354-31.671h-0.721
				c-16.105,0-27.712,7.648-27.712,32.12c0,18.804,4.049,31.761,27.353,31.761h0.72C544.864,112.432,556.382,104.875,556.382,80.222
				 M501.929,50.17h-21.232l-1.801,23.214l-1.26,13.586h-0.09l-1.53-13.586l-2.52-23.214h-23.394l-1.89,23.214l-1.528,13.586h-0.092
				l-1.169-13.586l-2.52-23.214h-21.594l8.638,60.643h28.161l1.529-15.835l0.811-10.077h0.09l1.079,10.077l1.53,15.835H490.5
				L501.929,50.17z"/>
		</g>
		<path fill="#9A9B9C" d="M833.732,25.819c0,1.086-0.208,2.277-2.483,2.277h-0.776v-4.554c0.31-0.052,0.518-0.052,0.725-0.052
			C833.576,23.491,833.732,24.681,833.732,25.819 M847.236,49.31l-4.397-15.16c2.174-1.708,3.468-4.865,3.468-8.952
			c0-6.933-4.657-10.866-14.074-10.866c-4.502,0-10.452,0-13.867,0.104V49.31h12.107V37.099h0.518l2.329,12.211H847.236z
			 M815.896,49.31v-9.676h-9.106v-3.311h8.021v-9.521h-8.021V24.06h8.951v-9.623h-21.266V49.31H815.896z M791.654,49.31V14.437
			h-11.019v10.606l-5.124-10.606h-13.09V49.31h11.124V37.357l5.381,11.953H791.654z M759.954,49.31v-9.676h-9.107v-3.311h8.021
			v-9.521h-8.021V24.06h8.952v-9.623h-21.267V49.31H759.954z M737.902,14.437h-12.211l-1.865,17.592l-0.465,5.587l-0.465-5.587
			l-2.12-17.592h-12.367l5.899,34.874h17.384L737.902,14.437z M696.183,35.909h-2.64l1.241-10.866h0.154L696.183,35.909z
			 M710.359,49.31l-5.846-34.874h-18.474l-6,34.874h11.952l0.466-3.985h4.812l0.416,3.985H710.359z M679.33,49.31V14.437h-12.418
			v11.899h-4.656V14.437h-12.418V49.31h12.418V36.582h4.656V49.31H679.33z M635.116,25.819c0,1.086-0.206,2.277-2.483,2.277h-0.774
			v-4.554c0.311-0.052,0.519-0.052,0.724-0.052C634.961,23.491,635.116,24.681,635.116,25.819 M648.621,49.31l-4.396-15.16
			c2.173-1.708,3.465-4.865,3.465-8.952c0-6.933-4.656-10.866-14.07-10.866c-4.504,0-10.453,0-13.867,0.104V49.31h12.106V37.099
			h0.519l2.326,12.211H648.621z M617.281,49.31v-9.676h-9.105v-3.311h8.021v-9.521h-8.021V24.06h8.952v-9.623h-21.268V49.31H617.281
			z M594.108,49.31l-2.64-34.874H576.05l-2.69,14.28h-0.052l-2.845-14.28h-16.353l-2.639,34.874h11.436l0.827-18.42h0.052
			l3.468,18.42h10.606l3.466-18.42h0.052l0.776,18.42H594.108z M550.18,49.31v-9.676h-9.105v-3.311h8.02v-9.521h-8.02V24.06h8.951
			v-9.623h-21.267V49.31H550.18z M514.038,25.819c0,1.086-0.206,2.277-2.483,2.277h-0.776v-4.554
			c0.312-0.052,0.519-0.052,0.727-0.052C513.883,23.491,514.038,24.681,514.038,25.819 M527.543,49.31l-4.398-15.16
			c2.173-1.708,3.466-4.865,3.466-8.952c0-6.933-4.656-10.866-14.073-10.866c-4.502,0-10.45,0-13.865,0.104V49.31h12.106V37.099
			h0.519l2.329,12.211H527.543z M484.742,38.03c0,1.035-0.208,2.174-2.849,2.174h-0.826v-4.141c0.259,0,0.466-0.051,0.673-0.051
			C484.325,36.012,484.742,36.944,484.742,38.03 M484.534,25.405c0,1.086-0.362,1.915-2.743,1.915h-0.724v-3.777
			c0.207,0,0.414-0.052,0.673-0.052C484.172,23.491,484.534,24.267,484.534,25.405 M497.212,37.979c0-3.26-2.07-6.364-4.605-7.141
			c2.07-1.242,3.312-3.311,3.312-6.622c0-8.123-6.261-9.831-13.556-9.831c-3.883,0-8.538,0.052-12.78,0.052V49.31
			c4.295,0,8.849,0.052,13.298,0.052C490.122,49.362,497.212,46.412,497.212,37.979"/>
		<path fill="#9A9B9C" d="M464.004,37.846h-12.292V48.96h12.292V37.846z M449.76,48.96V38.871h-8.965l2.868-2.461
			c4.508-3.896,5.736-7.69,5.736-11.33c0-6.402-3.585-10.346-11.678-10.346c-4.151,0-7.687,1.229-11.531,3.892l3.691,8.196
			c1.74-1.077,3.483-1.897,4.766-1.897c1.435,0,1.946,0.667,1.946,2c0,1.18-1.28,3.281-4.201,6.459l-5.74,6.255v9.32L449.76,48.96
			L449.76,48.96z"/>
	</g>
	<g display="inline">
		<path fill="#981020" d="M423.882,29.868V13.784h-34.283v16.084h7.394v38.669h19.497V29.868H423.882z M386.513,68.538V13.784
			H369.21v16.653l-8.044-16.653h-20.552v54.754h17.466V49.772l8.449,18.766H386.513z M336.065,68.538V13.784h-19.497v18.684h-7.311
			V13.784H289.76v54.754h19.497V48.553h7.311v19.984L336.065,68.538L336.065,68.538z M266.04,41.08
			c0,10.479-1.381,13.323-5.037,13.323s-4.712-3.331-4.712-13.242c0-10.642,1.381-13.485,5.037-13.485
			C264.984,27.675,266.04,31.005,266.04,41.08 M286.35,40.917c0-16.735-3.656-28.596-24.697-28.596h-0.649
			c-14.542,0-25.021,6.905-25.021,29.001c0,16.979,3.655,28.677,24.695,28.677h0.65C275.951,70,286.35,63.176,286.35,40.917
			 M235.09,13.784h-19.173l-1.625,20.958l-1.138,12.267h-0.082l-1.381-12.267l-2.273-20.958h-21.121l-1.706,20.958l-1.381,12.267
			h-0.082l-1.057-12.267l-2.273-20.958H162.3l7.799,54.754h25.427l1.382-14.298l0.73-9.099h0.081l0.975,9.099l1.382,14.298h24.695
			L235.09,13.784z M142.481,68.538V53.345h-14.298v-5.198h12.591V33.199h-12.591v-4.305h14.054v-15.11h-33.388v54.754H142.481z
			 M104.3,13.784H84.803v54.754H104.3V13.784z M82.772,13.784H63.6l-1.625,20.958l-1.137,12.267h-0.082l-1.381-12.267l-2.274-20.958
			H35.979l-1.706,20.958l-1.381,12.267h-0.081l-1.056-12.267l-2.274-20.958H9.984l7.8,54.754H43.21l1.381-14.298l0.73-9.099h0.081
			l0.977,9.099l1.381,14.298h24.696L82.772,13.784z"/>
		<path fill="#981020" d="M415.502,98.502h-14.639v12.137h14.639V98.502z M421.904,79.048c0-6.404-4.146-10.611-12.137-10.611
			c-3.537,0-7.806,0.731-12.014,2.316l1.891,10.064c2.134-0.854,3.231-1.098,4.696-1.098c1.522,0,1.949,0.366,1.949,1.281
			c0,3.049-5.062,2.804-5.062,13.355v2.074h13.906v-2.134C415.136,88.195,421.904,87.647,421.904,79.048 M395.132,110.639V69.534
			h-12.991v12.502l-6.038-12.502h-15.428v41.105h13.112V96.551l6.343,14.088H395.132z M357.625,110.639V99.234h-10.734V95.33h9.453
			V84.109h-9.453v-3.232h10.551V69.534h-25.064v41.105H357.625z M331.341,69.534h-14.394l-2.194,20.735l-0.55,6.587l-0.55-6.587
			l-2.501-20.735h-14.574l6.951,41.105h20.492L331.341,69.534z M280.904,94.843h-3.109l1.464-12.807h0.183L280.904,94.843z
			 M297.615,110.639l-6.89-41.105H268.95l-7.073,41.105h14.087l0.548-4.696h5.672l0.488,4.696H297.615z M260.779,110.639V69.534
			h-14.637V83.56h-5.488V69.534h-14.637v41.105h14.637V95.635h5.488v15.004H260.779z M208.208,82.951
			c0,1.281-0.245,2.684-2.928,2.684h-0.914v-5.367c0.365-0.061,0.609-0.061,0.854-0.061
			C208.025,80.207,208.208,81.609,208.208,82.951 M224.126,110.639l-5.185-17.869c2.562-2.013,4.086-5.733,4.086-10.551
			c0-8.172-5.488-12.807-16.589-12.807c-5.305,0-12.317,0-16.344,0.122v41.105h14.271V96.246h0.609l2.745,14.393H224.126z
			 M187.046,110.639V99.234h-10.733V95.33h9.452V84.109h-9.452v-3.232h10.551V69.534h-25.065v41.105H187.046z M159.786,110.639
			l-3.112-41.105h-18.173l-3.171,16.833h-0.062l-3.354-16.833h-19.272l-3.11,41.105h13.479l0.977-21.712h0.062l4.086,21.712h12.502
			l4.085-21.712h0.061l0.916,21.712H159.786z M107.886,110.639V99.234H97.152V95.33h9.453V84.109h-9.453v-3.232h10.551V69.534
			H82.637v41.105H107.886z M64.829,82.951c0,1.281-0.243,2.684-2.928,2.684h-0.916v-5.367c0.366-0.061,0.61-0.061,0.854-0.061
			C64.646,80.207,64.829,81.609,64.829,82.951 M80.747,110.639L75.562,92.77c2.562-2.013,4.087-5.733,4.087-10.551
			c0-8.172-5.488-12.807-16.589-12.807c-5.306,0-12.318,0-16.344,0.122v41.105h14.271V96.246h0.61l2.744,14.393H80.747z
			 M29.944,97.344c0,1.22-0.242,2.562-3.354,2.562h-0.977v-4.879c0.306,0,0.55-0.061,0.794-0.061
			C29.457,94.965,29.944,96.063,29.944,97.344 M29.701,82.462c0,1.281-0.428,2.257-3.232,2.257h-0.854v-4.452
			c0.243,0,0.487-0.061,0.793-0.061C29.274,80.207,29.701,81.121,29.701,82.462 M44.643,97.283c0-3.842-2.438-7.502-5.428-8.417
			c2.438-1.463,3.903-3.903,3.903-7.806c0-9.576-7.381-11.588-15.979-11.588c-4.574,0-10.062,0.061-15.062,0.061v41.105
			c5.062,0,10.429,0.061,15.674,0.061C36.288,110.7,44.643,107.223,44.643,97.283"/>
	</g>
	<g display="inline">
		<path fill="#981020" d="M936.782,119.407c31.562,0,57.148-25.585,57.148-57.149c0-31.56-25.586-57.146-57.148-57.146
			c-31.561,0-57.146,25.586-57.146,57.146C879.637,93.821,905.223,119.407,936.782,119.407"/>
		<g>
			<path fill="#FFFFFF" d="M892.131,59.712v-1.017l6.009-6.286c2.804-2.927,3.851-5.207,3.851-7.518
				c0-2.434-1.262-4.159-4.097-4.159c-1.511,0-3.021,0.584-5.054,1.664l-0.433-0.925c1.851-1.171,3.791-1.88,5.67-1.88
				c3.36,0,5.238,2.003,5.238,5.085c0,2.834-1.109,5.145-4.005,8.134l-5.518,5.73h10.508v1.17h-12.17V59.712z"/>
			<path fill="#FFFFFF" d="M913.762,59.804c-5.116,0-6.286-5.146-6.286-10.106c0-4.959,1.354-10.106,6.623-10.106
				c5.146,0,6.315,5.146,6.315,10.106C920.414,54.659,919.061,59.804,913.762,59.804z M913.946,40.733
				c-4.035,0-5.146,4.313-5.146,8.965c0,4.653,1.049,8.967,5.146,8.967c4.036,0,5.145-4.314,5.145-8.967
				C919.09,45.046,918.043,40.733,913.946,40.733z"/>
			<path fill="#FFFFFF" d="M924.606,59.712v-2.619h1.57v2.619H924.606z"/>
			<path fill="#FFFFFF" d="M940.259,40.085v8.32h6.592v1.139h-6.592v10.167h-1.326V38.946h8.411v1.14L940.259,40.085L940.259,40.085
				z"/>
			<path fill="#FFFFFF" d="M955.908,59.804c-3.636,0-5.453-2.002-5.453-7.795c0-5.115,2.032-8.041,5.576-8.041
				c3.297,0,5.085,2.835,5.085,6.532c0,0.523-0.031,1.233-0.061,1.602h-9.276c0,4.499,1.354,6.563,4.313,6.563
				c1.018,0,2.926-0.277,4.282-0.71l0.277,0.895C958.929,59.497,957.356,59.804,955.908,59.804z M959.821,50.684
				c0-2.834-0.983-5.607-3.912-5.607c-3.052,0-4.005,3.144-4.129,5.946h8.041V50.684z"/>
			<path fill="#FFFFFF" d="M970.944,59.804c-1.077,0-2.432-0.617-4.498-2.464l-0.185,2.372h-1.017V37.344l1.293-0.155v9.151
				c2.064-1.787,3.328-2.373,4.716-2.373c2.864,0,4.528,3.358,4.528,7.888C975.782,56.847,973.72,59.804,970.944,59.804z
				 M971.006,45.108c-1.108,0-2.587,0.801-4.468,2.558v8.41c1.881,1.757,3.299,2.589,4.283,2.589c2.095,0,3.667-2.897,3.667-6.748
				C974.489,48.065,973.195,45.108,971.006,45.108z"/>
		</g>
		<g>
			<path fill="#FFFFFF" d="M906.704,96.684v-1.017l6.008-6.286c2.805-2.927,3.853-5.207,3.853-7.518
				c0-2.434-1.263-4.159-4.097-4.159c-1.511,0-3.021,0.585-5.057,1.665l-0.43-0.925c1.849-1.172,3.791-1.88,5.67-1.88
				c3.358,0,5.237,2.002,5.237,5.084c0,2.834-1.11,5.146-4.006,8.134l-5.517,5.731h10.507v1.17L906.704,96.684L906.704,96.684z"/>
			<path fill="#FFFFFF" d="M928.334,96.776c-5.114,0-6.284-5.145-6.284-10.106c0-4.959,1.354-10.105,6.623-10.105
				c5.146,0,6.314,5.146,6.314,10.105C934.988,91.631,933.633,96.776,928.334,96.776z M928.52,77.705
				c-4.036,0-5.146,4.314-5.146,8.965c0,4.654,1.048,8.966,5.146,8.966c4.036,0,5.144-4.312,5.144-8.966
				C933.662,82.019,932.616,77.705,928.52,77.705z"/>
			<path fill="#FFFFFF" d="M943.37,96.684V78.043l-5.3,2.435l-0.431-0.924l5.823-2.928h1.23v20.058H943.37L943.37,96.684z"/>
			<path fill="#FFFFFF" d="M954.093,96.776c-2.188,0-3.977-0.584-5.332-1.232l0.399-1.108c1.664,0.708,3.729,1.201,5.209,1.201
				c3.852,0,5.3-1.386,5.3-4.868c0-3.512-1.109-4.499-6.532-4.499c-1.171,0-1.94,0.092-2.926,0.184l0.923-9.797h8.596l-0.121,1.171
				h-7.458l-0.677,7.364c0.77-0.032,1.479-0.061,2.126-0.061c6.069,0,7.426,1.693,7.426,5.453
				C961.025,95.329,958.436,96.776,954.093,96.776z"/>
		</g>
	</g>
</g>
<g id="Ebene_3" display="none">
	<g display="inline">
		<path fill="none" d="M958.232,758.886v-0.004l-0.004,0.002l-0.004-0.002v0.004c-0.78,0.183-1.256,1.293-1.256,1.293v7.129h1.108
			h0.29h1.113v-7.129C959.481,760.179,958.914,759.025,958.232,758.886z"/>
		<path fill="none" d="M954.123,758.886l-0.002-0.004c0,0,0,0.002-0.002,0.002l-0.003-0.002v0.004
			c-0.78,0.185-1.256,1.293-1.256,1.293v7.129h1.11h0.288h1.112v-7.129C955.372,760.179,954.805,759.025,954.123,758.886z"/>
		<path fill="none" d="M982.879,758.886v-0.004c-0.002,0-0.004,0.002-0.004,0.002c-0.002,0-0.004-0.002-0.004-0.002v0.004
			c-0.781,0.183-1.257,1.293-1.257,1.293v7.129h1.111h0.288h1.113v-7.129C984.128,760.179,983.559,759.025,982.879,758.886z"/>
		<path fill="none" d="M592.653,733.299v-0.002c0,0,0,0.002-0.004,0.002c0,0,0-0.002-0.003-0.002v0.002
			c-0.484,0.007-0.872,0.565-0.872,0.565v2.614h0.776h0.2h0.774v-2.614C593.526,733.864,593.141,733.306,592.653,733.299z"/>
		<polygon fill="none" points="895.16,764.232 898.237,763.975 898.237,757.265 895.16,757.735 		"/>
		<path fill="none" d="M962.34,758.886v-0.004l-0.003,0.002c-0.002,0-0.003-0.002-0.003-0.002v0.004
			c-0.781,0.183-1.258,1.293-1.258,1.293v7.129h1.111h0.286h1.112v-7.129C963.587,760.179,963.021,759.025,962.34,758.886z"/>
		<path fill="none" d="M966.448,758.886v-0.004c-0.002,0-0.004,0.002-0.004,0.002s-0.003-0.002-0.004-0.002v0.004
			c-0.782,0.183-1.255,1.293-1.255,1.293v7.129h1.111h0.286h1.112v-7.129C967.696,760.179,967.128,759.025,966.448,758.886z"/>
		<path fill="none" d="M978.772,758.886l-0.002-0.004c0,0-0.002,0.002-0.005,0.002c0,0,0-0.002-0.004-0.002v0.004
			c-0.779,0.183-1.253,1.293-1.253,1.293v7.129h1.109h0.288h1.109v-7.129C980.017,760.179,979.451,759.025,978.772,758.886z"/>
		<path fill="none" d="M592.653,756.984v-0.002h-0.004h-0.003v0.002c-0.484,0.004-0.872,0.562-0.872,0.562v2.613h0.776h0.2h0.774
			v-2.613C593.526,757.547,593.141,756.988,592.653,756.984z"/>
		<polygon fill="none" points="896.698,755.085 893.108,755.819 893.108,757.051 896.698,756.366 		"/>
		<polygon fill="none" points="931.492,752.265 929.188,751.152 929.188,756.71 931.492,757.394 		"/>
		<polygon fill="none" points="913.113,765.942 908.326,765.942 908.326,766.028 908.326,767.223 913.113,767.223 		"/>
		<path fill="none" d="M592.653,762.905v-0.002c0,0,0,0.002-0.004,0.002c0,0,0-0.002-0.003-0.002v0.002
			c-0.484,0.004-0.872,0.562-0.872,0.562v2.613h0.776h0.2h0.774v-2.613C593.526,763.468,593.141,762.909,592.653,762.905z"/>
		<rect x="899.394" y="765.557" fill="none" width="4.914" height="2.443"/>
		<rect x="913.625" y="767.909" fill="none" width="5.729" height="0.091"/>
		<path fill="none" d="M970.558,758.886l-0.002-0.004c0,0-0.003,0.002-0.005,0.002c0,0,0-0.002-0.003-0.002v0.004
			c-0.779,0.183-1.257,1.293-1.257,1.293v7.129h1.11h0.289h1.111v-7.129C971.803,760.179,971.236,759.025,970.558,758.886z"/>
		<path fill="none" d="M737.979,751.134c-0.479,0-0.865,0.388-0.865,0.865c0,0.476,0.388,0.861,0.865,0.861
			c0.475,0,0.864-0.387,0.864-0.861C738.843,751.521,738.452,751.134,737.979,751.134z"/>
		<path fill="none" d="M950.019,758.886v-0.004c-0.002,0-0.004,0.004-0.006,0.004c0,0-0.002-0.004-0.004-0.004v0.004
			c-0.781,0.185-1.255,1.293-1.255,1.293v7.129h1.109h0.29h1.11v-7.129C951.265,760.179,950.697,759.025,950.019,758.886z"/>
		<rect x="740.375" y="753.921" fill="none" width="2.061" height="8.042"/>
		<circle fill="none" cx="746.17" cy="751.096" r="0.863"/>
		<circle fill="none" cx="741.448" cy="751.444" r="0.864"/>
		<rect x="736.724" y="754.788" fill="none" width="1.826" height="7.175"/>
		<path fill="none" d="M746.095,763.217v-0.002h-0.004h-0.003v0.002c-0.631,0.005-1.131,0.711-1.131,0.711v3.312h1.002h0.263h1.005
			v-3.312C747.227,763.928,746.724,763.222,746.095,763.217z"/>
		<path fill="none" d="M737.639,763.979v-0.002h-0.004h-0.002v0.002c-0.509,0.005-0.909,0.577-0.909,0.577v2.683h0.809h0.209h0.81
			v-2.683C738.55,764.557,738.143,763.983,737.639,763.979z"/>
		<path fill="none" d="M741.408,763.575L741.408,763.575l-0.002-0.001h-0.005v0.001c-0.57,0.006-1.026,0.647-1.026,0.647v3.016
			h0.912h0.236h0.911v-3.016C742.436,764.224,741.981,763.581,741.408,763.575z"/>
		<path fill="none" d="M754.552,763.979v-0.002h-0.004h-0.002v0.002c-0.508,0.005-0.912,0.577-0.912,0.577v2.683h0.81h0.209h0.81
			v-2.683C755.461,764.557,755.059,763.983,754.552,763.979z"/>
		<rect x="753.634" y="754.788" fill="none" width="1.827" height="7.175"/>
		<circle fill="none" cx="751.028" cy="751.444" r="0.864"/>
		<circle fill="none" cx="754.498" cy="751.997" r="0.863"/>
		<rect x="749.747" y="753.921" fill="none" width="2.062" height="8.042"/>
		<rect x="744.96" y="753.148" fill="none" width="2.267" height="8.813"/>
		<path fill="none" d="M750.781,763.575L750.781,763.575l-0.004-0.001h-0.002v0.001c-0.573,0.006-1.027,0.647-1.027,0.647v3.016
			h0.911h0.237h0.912v-3.016C751.809,764.224,751.352,763.581,750.781,763.575z"/>
		<path fill="none" d="M974.661,758.886l-0.002-0.004l-0.001,0.002l-0.005-0.002v0.004c-0.778,0.183-1.255,1.293-1.255,1.293v7.129
			h1.111h0.288h1.111v-7.129C975.91,760.179,975.343,759.025,974.661,758.886z"/>
		<path fill="none" d="M82.381,719.091c1.852-1.52,9.134-7.903,11.754-9.841c0.029-0.535,0.205-1.309,0.857-1.837
			c-0.182-0.396-0.387-1.041-0.593-1.853c-0.25,0.053-0.482,0.099-0.688,0.137c-2.297,0.419-10.636,2.218-15.133,2.985
			c0.475,0.382,0.933,0.761,1.339,1.113c1.548,1.354,0.71,2.677-1.42,1.904c-0.391-0.145-0.983-0.392-1.627-0.671l0.168,12.82
			C79.003,722.052,81.217,720.043,82.381,719.091z"/>
		<path fill="none" d="M73.936,731.629l0.149-4.345c-1.02,0.75-1.86,1.344-2.156,1.483
			C72.641,729.771,73.347,730.771,73.936,731.629z"/>
		<polygon fill="none" points="471.572,765.575 471.572,768 478.419,768 478.419,766.188 		"/>
		<path fill="none" d="M68.91,724.504c0.087,0.126,0.172,0.251,0.248,0.359c0.682,0.977,1.699,2.396,2.715,3.825
			c0.143-0.202,0.66-0.715,1.756-1.708c0.132-0.119,0.3-0.272,0.481-0.439l0.493-14.309c-0.749,2.515-2.232,6.259-3.945,9.233
			C70.11,722.419,69.512,723.456,68.91,724.504z"/>
		<rect x="409.658" y="718.889" fill="none" width="9.22" height="6.562"/>
		<path fill="none" d="M73.052,731.551c-0.895-1.04-2.893-3.313-4.933-5.672c-1.483,2.584-2.889,5.049-3.577,6.316
			c-1.825,3.354-6.658,12.758-3.59,5.468c0.9-2.144,3.875-9.498,5.138-12.13c0.151-0.315,0.36-0.764,0.606-1.303
			c-1.541-1.793-2.959-3.477-3.772-4.522c-1.576-2.027-7.247-8.872-10.661-13.282L53.069,768h19.612l1.222-35.471
			C73.654,732.244,73.375,731.926,73.052,731.551z"/>
		<path fill="none" d="M95.264,710.361c-1.186,1.63-4.503,4.954-7.644,7.158c-3.148,2.21-7.375,5.175-9.015,6.385
			c-0.424,0.312-0.966,0.722-1.551,1.16L77.617,768h15.719l1.985-57.611C95.304,710.379,95.283,710.371,95.264,710.361z"/>
		<path fill="none" d="M117.431,720.229c-0.739,3.5-1.734,8.198-2.081,10.062c-0.582,3.125-1.989,11.81-1.435,5.253
			c0.163-1.927,0.624-8.517,0.947-10.925c0.209-1.555,0.72-6.46,1.197-10.271c-1.48-0.315-2.818-0.612-3.66-0.834
			c-1.8-0.47-7.896-1.863-11.991-2.926c0.787,1.04,0.01,1.889-1.671,1.278c-0.349-0.128-0.88-0.352-1.455-0.603L98.026,768h17.796
			l1.656-48.016C117.462,720.066,117.447,720.148,117.431,720.229z"/>
		<path fill="none" d="M96.38,707.39c0.389,0.255,0.788,0.532,1.2,0.836c1.896-0.047,6.717,0.688,10.469,1.975
			c2.606,0.896,5.84,2.005,8.186,2.79c0.18-1.339,0.347-2.419,0.483-3.009l-0.007-0.006c0,0-0.125-0.812,0.223-1.562
			c-1.268-0.427-5.4-3.332-8.2-6.245c-0.438,0.131-1.141,0.312-2.188,0.558c-1.753,0.41-6.762,1.651-10.27,2.435
			C96.354,706.16,96.396,706.955,96.38,707.39z"/>
		<path fill="none" d="M592.653,745.143L592.653,745.143l-0.004-0.001h-0.003v0.001c-0.484,0.006-0.872,0.562-0.872,0.562v2.616
			h0.776h0.2h0.774v-2.616C593.526,745.703,593.141,745.146,592.653,745.143z"/>
		<polygon fill="none" points="371.812,755.093 361.49,755.093 356.759,765.844 357.921,768 375.03,768 376.54,766.488 		"/>
		<polygon fill="none" points="584.089,721.042 587.819,724.693 587.819,723.713 587.763,721.042 		"/>
		<path fill="none" d="M590.166,723.626h-0.002h-0.002c-0.365,0.003-0.658,0.431-0.658,0.431v2h0.586h0.151h0.583v-2
			C590.824,724.057,590.531,723.629,590.166,723.626z"/>
		<path fill="none" d="M55.066,705.389c1.984,2.07,4.249,4.755,5.963,7.338c2.064,3.11,4.644,7,6.482,9.725
			c1.933-4.252,4.95-10.954,6.101-12.896c-0.15-0.07-0.245-0.112-0.245-0.112s-0.104-0.769,0.158-1.566
			c-1.283-0.939-4.957-5.83-7.079-10.219c-1.871-3.87-4.384-9.066-5.426-11.094c-0.167-0.326-0.367-0.706-0.583-1.12
			c-2.652,4.38-6.9,11.462-8.813,14.167c1.434,0.989,3.004,2.229,4.218,3.293C57.433,704.296,56.889,705.656,55.066,705.389z"/>
		<path fill="none" d="M592.653,739.219h-0.004h-0.003c-0.484,0.007-0.872,0.565-0.872,0.565v2.614h0.776h0.2h0.774v-2.614
			C593.526,739.784,593.141,739.226,592.653,739.219z"/>
		<path fill="none" d="M592.653,751.062h-0.004h-0.003c-0.484,0.005-0.872,0.564-0.872,0.564v2.613h0.776h0.2h0.774v-2.613
			C593.526,751.627,593.141,751.066,592.653,751.062z"/>
		<path fill="#EBECEC" d="M52.264,706.426c3.415,4.41,9.085,11.255,10.661,13.282c0.812,1.047,2.232,2.729,3.772,4.522
			c-0.246,0.538-0.455,0.986-0.606,1.303c-1.263,2.632-4.237,9.986-5.138,12.13c-3.068,7.29,1.765-2.112,3.59-5.468
			c0.688-1.269,2.093-3.732,3.577-6.316c2.04,2.357,4.038,4.632,4.933,5.672c0.323,0.375,0.602,0.693,0.852,0.979L72.682,768h4.937
			l-0.562-42.936c0.585-0.438,1.127-0.848,1.551-1.16c1.641-1.21,5.866-4.175,9.015-6.385c3.141-2.204,6.458-5.528,7.644-7.158
			c0.021,0.01,0.04,0.018,0.058,0.026L93.336,768h4.689l-0.743-56.734c0.575,0.251,1.106,0.475,1.455,0.603
			c1.681,0.609,2.458-0.238,1.671-1.278c4.095,1.062,10.191,2.456,11.991,2.926c0.842,0.222,2.18,0.519,3.66,0.834
			c-0.478,3.812-0.988,8.717-1.197,10.271c-0.323,2.408-0.784,8.998-0.947,10.925c-0.555,6.557,0.853-2.128,1.435-5.253
			c0.347-1.864,1.341-6.562,2.081-10.062c0.016-0.079,0.031-0.161,0.047-0.243L115.823,768h4.551l-0.694-52.905
			c1.806,0.367,3.428,0.69,4.248,0.862c6.22,1.301-0.474-0.695-4.26-1.86l-0.037-2.799c0.534,0.233,1.029,0.441,1.354,0.561
			c1.772,0.645,2.473-0.456,1.184-1.585c-0.623-0.545-1.376-1.149-2.13-1.712c3.03-1.512,10.219-5.698,12.091-6.712
			c2.139-1.15,7.74-4.649,9.396-5.651c5.63-3.406-2.224,0.562-5.093,1.926c-1.711,0.816-6.099,2.774-9.366,4.233
			c-3.352,1.498-7.075,4.035-8.355,5.279c-0.163-0.105-0.336-0.228-0.49-0.317c-0.188,0.056-0.338,0.141-0.484,0.227
			c-0.01-0.05-0.021-0.086-0.021-0.086c-1.334-1.547-9.374-8.284-11.183-9.905c-1.807-1.622-6.991-5.713-8.492-6.933
			c-5.111-4.148,1.275,1.905,3.532,4.144c1.31,1.297,4.48,4.604,6.932,7.161c-1.822,0.152-6.282,0.821-8.488,1.109
			c-0.87,0.115-2.258,0.274-3.879,0.455c-0.39-4.206-1.118-10.25-1.279-12.075c-0.231-2.599-1.31-9.615-1.596-11.674
			c-0.978-7.007-0.392,2.432-0.259,5.845c0.077,2.037,0.148,7.201,0.204,11.045c0.032,2.34,0.374,4.969,0.789,7.095
			c-2.079,0.226-4.316,0.462-6.254,0.668c-4.149,0.439-9.026,1.826-11.173,2.773c-0.485-0.341-0.962-0.663-1.393-0.919
			c-0.255,0.076-0.469,0.186-0.659,0.308c-1.514-3.038-7.486-12.594-8.859-14.963c-0.893-1.542-2.883-4.598-4.586-7.191
			c0.519-0.851,0.952-1.56,1.239-2.01c1.85-2.916,6.367-11.144,7.722-13.532c4.618-8.139-2.366,2.235-4.977,5.922
			c-1.04,1.471-3.21,4.403-5.438,7.404c-0.457-0.69-0.841-1.276-1.094-1.668c-3.12-4.812-1.315-1.25,0.575,2.367
			c-0.936,1.258-1.867,2.509-2.718,3.65c-3.153,4.233-6.037,10.052-6.72,12.436c-0.771,0.415-1.183,1.046-1.387,1.677
			c-0.066-0.047-0.12-0.077-0.12-0.077c-2.89-0.276-17.767,0.707-21.216,0.818c-3.448,0.112-12.793,1.009-15.531,1.232
			c-9.325,0.763,3.18,0.697,7.698,0.778c2.693,0.049,9.516,0.341,14.598,0.559c5.535,0.236,12.354-0.758,14.382-1.561
			c0.004,0.037,0.009,0.084,0.009,0.084s0.657,0.309,1.555,0.719L47.41,768h5.658L52.264,706.426z M106.546,702.726
			c1.048-0.244,1.751-0.427,2.188-0.558c2.8,2.913,6.933,5.818,8.2,6.245c-0.349,0.75-0.223,1.562-0.223,1.562l0.007,0.006
			c-0.137,0.59-0.304,1.67-0.483,3.009c-2.346-0.785-5.578-1.896-8.186-2.79c-3.752-1.287-8.573-2.021-10.469-1.975
			c-0.412-0.304-0.812-0.582-1.2-0.836c0.016-0.435-0.026-1.229-0.104-2.229C99.784,704.377,104.793,703.136,106.546,702.726z
			 M78.498,711.701c2.131,0.771,2.969-0.551,1.42-1.904c-0.406-0.354-0.864-0.731-1.339-1.113
			c4.498-0.769,12.836-2.566,15.133-2.985c0.205-0.038,0.438-0.084,0.688-0.136c0.206,0.811,0.411,1.455,0.593,1.852
			c-0.652,0.528-0.829,1.302-0.857,1.837c-2.62,1.937-9.902,8.321-11.754,9.841c-1.164,0.952-3.377,2.961-5.342,4.761l-0.168-12.82
			C77.515,711.311,78.107,711.558,78.498,711.701z M73.936,731.629c-0.589-0.857-1.295-1.857-2.007-2.859
			c0.296-0.142,1.137-0.734,2.156-1.484L73.936,731.629z M74.604,712.232l-0.493,14.309c-0.182,0.167-0.351,0.32-0.481,0.439
			c-1.096,0.993-1.613,1.506-1.756,1.708c-1.016-1.431-2.033-2.85-2.715-3.825c-0.076-0.108-0.161-0.233-0.248-0.359
			c0.603-1.048,1.199-2.085,1.749-3.037C72.371,718.491,73.855,714.747,74.604,712.232z M60.437,685.443
			c0.217,0.414,0.416,0.794,0.583,1.119c1.042,2.027,3.556,7.225,5.426,11.095c2.122,4.389,5.796,9.278,7.079,10.219
			c-0.262,0.799-0.158,1.566-0.158,1.566s0.094,0.042,0.245,0.112c-1.15,1.94-4.168,8.644-6.101,12.896
			c-1.839-2.725-4.417-6.613-6.482-9.725c-1.714-2.583-3.979-5.268-5.963-7.338c1.823,0.269,2.367-1.093,0.774-2.484
			c-1.214-1.063-2.784-2.304-4.218-3.293C53.536,696.905,57.783,689.823,60.437,685.443z"/>
		<path fill="#EBECEC" d="M994.919,744.981H994l-0.688-18.361h-0.803v-4.819l-3.671-27.882l-3.674,27.882v4.819h-0.804
			l-0.688,18.361h-0.917v2.637h-34.194l-2.407,6.197V768h48.766L994.919,744.981L994.919,744.981z M951.265,767.308h-1.11h-0.29
			h-1.109v-7.129c0,0,0.474-1.108,1.255-1.293v-0.004c0.002,0,0.004,0.004,0.004,0.004c0.002,0,0.004-0.004,0.006-0.004v0.004
			c0.679,0.141,1.246,1.293,1.246,1.293L951.265,767.308L951.265,767.308z M955.372,767.308h-1.112h-0.288h-1.11v-7.129
			c0,0,0.476-1.108,1.256-1.293v-0.004l0.003,0.002c0.002,0,0.002-0.002,0.002-0.002l0.003,0.004
			c0.681,0.141,1.248,1.293,1.248,1.293L955.372,767.308L955.372,767.308z M959.481,767.308h-1.113h-0.29h-1.108v-7.129
			c0,0,0.476-1.11,1.256-1.293v-0.004l0.004,0.002l0.004-0.002v0.004c0.684,0.141,1.249,1.293,1.249,1.293L959.481,767.308
			L959.481,767.308z M963.587,767.308h-1.112h-0.286h-1.111v-7.129c0,0,0.477-1.11,1.257-1.293v-0.004c0,0,0.002,0.002,0.004,0.002
			l0.003-0.002v0.004c0.682,0.141,1.247,1.293,1.247,1.293L963.587,767.308L963.587,767.308z M967.696,767.308h-1.111h-0.287h-1.111
			v-7.129c0,0,0.473-1.11,1.255-1.293v-0.004c0.001,0,0.003,0.002,0.003,0.002s0.003-0.002,0.005-0.002v0.004
			c0.681,0.141,1.248,1.293,1.248,1.293L967.696,767.308L967.696,767.308z M971.803,767.308h-1.111h-0.289h-1.109v-7.129
			c0,0,0.477-1.11,1.256-1.293v-0.004c0.003,0,0.003,0.002,0.003,0.002c0.002,0,0.005-0.002,0.005-0.002l0.002,0.004
			c0.679,0.141,1.245,1.293,1.245,1.293L971.803,767.308L971.803,767.308z M975.91,767.308h-1.111h-0.288H973.4v-7.129
			c0,0,0.476-1.11,1.255-1.293v-0.004l0.005,0.002l0.001-0.002l0.002,0.004c0.682,0.141,1.249,1.293,1.249,1.293L975.91,767.308
			L975.91,767.308z M980.017,767.308h-1.109h-0.288h-1.109v-7.129c0,0,0.474-1.11,1.253-1.293v-0.004
			c0.004,0,0.004,0.002,0.004,0.002c0.003,0,0.005-0.002,0.005-0.002l0.002,0.004c0.68,0.141,1.244,1.293,1.244,1.293
			L980.017,767.308L980.017,767.308z M984.128,767.308h-1.113h-0.288h-1.111v-7.129c0,0,0.476-1.11,1.257-1.293v-0.004l0.003,0.002
			c0,0,0.003-0.002,0.005-0.002v0.004c0.68,0.141,1.249,1.293,1.249,1.293L984.128,767.308L984.128,767.308z"/>
		<path fill="#EBECEC" d="M723.905,696.902h6.578v-7.233l3.287-1.976c0,0-5.59-1.972-10.521-2.303c0-0.064-0.065-1.778-0.173-4.446
			h6.093v-0.001v-0.978v-0.001h-6.13c-0.444-11.163-1.434-35.679-1.434-35.679h-0.253c0,0-0.987,24.516-1.432,35.679h-6.207v0.001
			v0.978v0.001h6.167c-0.106,2.668-0.173,4.382-0.173,4.446c-4.932,0.331-10.522,2.303-10.522,2.303l3.289,1.976v7.233h6.578
			L718.166,768h6.625L723.905,696.902z"/>
		<path fill="#EBECEC" d="M853.504,764.699c0-3.838-5.483-14.438-9.14-15.901c-0.185,0,0-2.74,0-2.74l-2.927-2.191h-1.154v-1.81
			h-0.564v1.81h-0.826l-2.924,2.191c0,0,0.181,2.74,0,2.74c-3.654,1.464-9.139,12.063-9.139,15.901V768h26.674V764.699z"/>
		<path fill="#EBECEC" d="M421.534,725.717h-1.646v-13.154c0,0-2.402-2.527-4.426-3.412c-0.05-0.024-0.191-0.035-0.367-0.047v-5.427
			h-1.187v5.429c-0.573,0.019-1.089,0.045-1.089,0.045c-2.022,0.885-4.427,3.412-4.427,3.412v13.154h-1.646L404.376,768h19.533
			L421.534,725.717z M418.878,725.45h-9.22v-6.562h9.22V725.45z"/>
		<path fill="#EBECEC" d="M598.51,767.588h-0.586l-0.585-32.633h-0.586l-0.196-4.69h-0.539v-3.322h-0.781v-10.355h-0.39v1.367h-0.87
			v-4.886l-2.014-3.027h-0.148v-4.986h-0.646v4.986h-0.077l-2.016,3.027v4.886h-0.867v-1.367h-0.391v3.874l-0.057-0.004h-6.955
			v0.507h2.383l4.572,4.572l0.057,0.013v1.395h-0.783v3.322h-0.539l-0.193,4.69h-0.586l-0.355,19.783h-5.508V768h18.656V767.588z
			 M587.819,724.693l-3.729-3.651h3.674l0.057,2.671L587.819,724.693L587.819,724.693z M590.824,726.057h-0.583h-0.151h-0.586v-2
			c0,0,0.293-0.428,0.658-0.431h0.002h0.003c0.364,0.003,0.657,0.431,0.657,0.431V726.057L590.824,726.057z M593.526,766.081h-0.775
			h-0.199h-0.776v-2.613c0,0,0.388-0.559,0.872-0.562v-0.002c0.003,0,0.003,0.002,0.003,0.002c0.004,0,0.004-0.002,0.004-0.002
			v0.002c0.487,0.004,0.873,0.562,0.873,0.562L593.526,766.081L593.526,766.081z M593.526,760.16h-0.775h-0.199h-0.776v-2.613
			c0,0,0.388-0.559,0.872-0.562v-0.002h0.003h0.004v0.002c0.487,0.004,0.873,0.562,0.873,0.562L593.526,760.16L593.526,760.16z
			 M593.526,754.24h-0.775h-0.199h-0.776v-2.613c0,0,0.388-0.561,0.872-0.564h0.003h0.004c0.487,0.005,0.873,0.564,0.873,0.564
			L593.526,754.24L593.526,754.24z M593.526,748.319h-0.775h-0.199h-0.776v-2.616c0,0,0.388-0.557,0.872-0.562v-0.001h0.003h0.004
			v0.001c0.487,0.005,0.873,0.562,0.873,0.562L593.526,748.319L593.526,748.319z M593.526,742.398h-0.775h-0.199h-0.776v-2.614
			c0,0,0.388-0.56,0.872-0.565h0.003h0.004c0.487,0.007,0.873,0.565,0.873,0.565L593.526,742.398L593.526,742.398z M593.526,736.479
			h-0.775h-0.199h-0.776v-2.613c0,0,0.388-0.56,0.872-0.565v-0.002c0.003,0,0.003,0.002,0.003,0.002
			c0.004,0,0.004-0.002,0.004-0.002v0.002c0.487,0.007,0.873,0.565,0.873,0.565L593.526,736.479L593.526,736.479z"/>
		<path fill="#EBECEC" d="M693.684,767.681c1.312-3.945-2.5-6.052-6.051-6.052c-0.758,0-2.046-0.057-3.678-0.159
			c0.09-2.979,0.054-6.15-0.221-9.29c-0.64-7.344-2.347-18.238-7.297-25.534h-7.295v-2.867h-5.212v-1.302h-2.605v-2.345h2.085
			v-1.303h-8.599v-23.971l-1.168-1.755v-12.211h-0.452v13.177h0.06v24.76h-8.078v1.303h5.994v13.027h-3.649v23.615
			c-5.211-1.181-9.746-2.413-12.501-3.168c-8.154-2.237-13.68-2.105-16.969-0.396c-3.549,1.846-4.406,6.246-2.763,9.208
			c0.938,1.686,3.09,3.946,4.77,5.581h73.504C693.6,767.891,693.646,767.795,693.684,767.681z"/>
		<polygon fill="#EBECEC" points="356.759,765.844 361.49,755.093 371.812,755.093 376.54,766.488 375.03,768 379.99,768 
			373.53,754.234 373.53,747.781 382.562,747.781 382.562,745.204 383.379,744.857 383.422,742.19 365.576,737.462 365.576,735.096 
			338.27,729.979 333.108,729.765 333.065,730.367 330.099,730.367 332.248,731.049 332.248,756.504 332.248,757.659 
			332.906,757.659 332.906,731.259 357.189,738.968 357.189,746.405 363.641,746.405 363.641,747.998 359.77,747.998 
			359.77,753.801 353.089,768 357.921,768 		"/>
		<path fill="#EBECEC" d="M471.572,765.575l6.848,0.612V768h59.93v-3.282h-1.595v-9.066h-13.971v-3.311h-3.554v-8.457
			c0,0-6.128-0.491-9.438-0.614c-4.66-0.171-9.437,0.367-9.437,0.367v12.258h-8.58v-8.578c0,0-2.938,0-5.881,0.488
			c-1.217,0.204-4.044,0.735-4.044,0.735v13.971h-10.279v-5.636l-2.329-0.98l-26.718,0.245V768h29.047V765.575L471.572,765.575z"/>
		<path fill="#EBECEC" d="M764.113,755.574l-4.097-4.097h-4.232v-0.9h0.695v-0.488h-0.695c0,0-1.458-4.372-6.389-4.372l-2.952-0.08
			v-2.543h-0.282v2.541l-3.007,0.082c-4.931,0-6.387,4.372-6.387,4.372h-0.694v0.488h0.694v0.9h-4.234l-4.097,4.097V768h35.677
			V755.574z M741.448,750.58c0.478,0,0.863,0.387,0.863,0.863c0,0.479-0.387,0.863-0.863,0.863c-0.479,0-0.862-0.386-0.862-0.863
			C740.586,750.967,740.971,750.58,741.448,750.58z M738.55,767.238h-0.81h-0.209h-0.809v-2.683c0,0,0.4-0.572,0.909-0.577v-0.002
			h0.002h0.004v0.002c0.504,0.005,0.911,0.577,0.911,0.577L738.55,767.238L738.55,767.238z M738.55,761.963h-1.826v-7.175h1.826
			V761.963z M737.979,752.86c-0.479,0-0.865-0.387-0.865-0.861c0-0.479,0.388-0.865,0.865-0.865c0.475,0,0.864,0.388,0.864,0.865
			C738.843,752.475,738.452,752.86,737.979,752.86z M742.436,767.238h-0.911h-0.236h-0.911v-3.016c0,0,0.455-0.643,1.025-0.647
			v-0.001h0.005h0.002v0.001c0.572,0.006,1.026,0.647,1.026,0.647V767.238z M742.436,761.963h-2.061v-8.042h2.061V761.963z
			 M746.17,750.233c0.476,0,0.861,0.386,0.861,0.861c0,0.479-0.387,0.863-0.861,0.863c-0.479,0-0.864-0.385-0.864-0.863
			C745.306,750.619,745.692,750.233,746.17,750.233z M747.227,767.238h-1.005h-0.263h-1.002v-3.312c0,0,0.5-0.706,1.131-0.711
			v-0.002h0.003h0.004v0.002c0.629,0.005,1.132,0.711,1.132,0.711V767.238z M747.227,761.963h-2.268v-8.813h2.268V761.963z
			 M754.498,751.134c0.477,0,0.864,0.388,0.864,0.865c0,0.476-0.389,0.861-0.864,0.861c-0.475,0-0.864-0.387-0.864-0.861
			C753.634,751.521,754.023,751.134,754.498,751.134z M751.809,767.238h-0.912h-0.237h-0.911v-3.016c0,0,0.454-0.643,1.027-0.647
			v-0.001h0.002h0.004v0.001c0.57,0.006,1.027,0.647,1.027,0.647V767.238z M751.809,761.963h-2.061v-8.042h2.061V761.963z
			 M751.028,752.308c-0.477,0-0.864-0.386-0.864-0.863s0.389-0.863,0.864-0.863c0.477,0,0.863,0.387,0.863,0.863
			C751.892,751.922,751.505,752.308,751.028,752.308z M755.461,767.238h-0.81h-0.209h-0.81v-2.683c0,0,0.404-0.572,0.912-0.577
			v-0.002h0.002h0.004v0.002c0.507,0.005,0.909,0.577,0.909,0.577L755.461,767.238L755.461,767.238z M755.461,761.963h-1.827v-7.175
			h1.827V761.963z"/>
		<path fill="#EBECEC" d="M899.394,765.557h4.914V768h9.317v-0.091h5.729V768h16.046l-4.846-1.375v-2.477l1.624-0.346v-5.982v-9.917
			l-6.669-4.021c0,0-4.616,1.026-5.388,1.285c-0.769,0.256-1.538,0.597-2.222,1.967c-0.686,1.365-1.369,2.989-1.369,2.989
			l-1.453,5.043l-0.77,1.284l-15.477-3.161l-7.179,1.623l-0.173,10.856h1.283V768h6.627v-2.443H899.394z M929.188,751.152
			l2.306,1.111v5.129l-2.306-0.684V751.152z M908.326,766.028v-0.086h4.786v1.279h-4.786V766.028z M893.108,755.819l3.59-0.734
			v1.281l-3.59,0.685V755.819z M898.237,763.975l-3.076,0.259v-6.497l3.076-0.472V763.975z"/>
		<path fill="#EBECEC" d="M868.114,748.896h0.759v-1.661h-1.988l-0.915-69.8c4.255,4.477,12.337,12.305,14.498,14.534
			c2.728,2.814,10.62,9.985,12.899,12.119c7.764,7.257-1.844-3.208-5.223-7.067c-2.021-2.305-6.983-8.265-10.681-12.7
			c-2.369-2.843-5.435-5.729-8.013-7.853c1.54-0.297,1.345-2.135-0.609-3.398c-0.979-0.633-2.116-1.312-3.248-1.938
			c2.155-3.665,8.556-17.881,10.205-21.241c1.729-3.521,5.812-13.372,7.048-16.237c4.207-9.76-2.396,2.817-4.889,7.304
			c-1.484,2.679-5.415,9.364-8.342,14.345c-3.006,5.113-5.521,11.951-6.035,14.781c-0.518-0.252-1.019-0.482-1.47-0.667
			c-0.715,0.717-0.872,1.712-0.807,2.661c-4.671,0.392-19.366,2.979-22.979,3.496c-3.881,0.552-14.322,2.721-17.387,3.311
			c-10.435,2.02,3.677,0.396,8.788-0.07c3.048-0.275,10.786-0.791,16.552-1.173c5.863-0.393,12.852-2.133,15.537-3.3
			c0.135,0.36,0.243,0.584,0.243,0.584s0.354,0.098,0.893,0.239l-2.481,72.07h-2.223v1.661h1.003V768h8.863L868.114,748.896
			L868.114,748.896z"/>
	</g>
</g>
<g id="Ebene_4">
	<path fill="#EBECEC" d="M223.735,760.204l-0.116-5.854l-0.39-8.075l0.545-1.209l-0.856-2.146l1.48-2.575l0.624,21.536
		L223.735,760.204z M222.019,743.076l-7.162,0.798l-0.204-2.649l9.801-2.133L222.019,743.076z M206.687,746.86
		c-1.918-0.06-3.077-0.766-3.544-1.122l16.159-1.533C216.087,745.767,209.141,746.935,206.687,746.86 M214.425,741.32l-0.573,2.665
		l-5.39,0.601L214.425,741.32z M228.538,767.009l-1.8-1.499l0.664-0.233l-0.039-3.512l-1.6-0.116l-0.975-21.928l0.312-0.818
		l-0.392-0.234l-0.131,0.216l-10.129,2.204l-6.281,3.395l-0.396,0.182l-5.028,0.561l-0.74,0.624l0.597-0.057
		c3.928,3.172,14.463-0.49,14.463-0.49l2.531-0.932l0.356,4.17l0.277-0.017l0.072,3.84l0.071-3.848l0.278-0.016l0.075-4.429
		l1.018-0.098l0.391,8.583h-0.702v10.81l1.015,0.116l0.431,1.17l-0.469,0.701l0.194,0.548l-0.938,0.351l-0.779,0.819h1.677
		c0.022,0.032,0.052,0.071,0.063,0.099c0.011,0.022,0.016,0.042,0.016,0.058h1.834l0.034-0.155h4.101L228.538,767.009z"/>
	<g>
		<path fill="#EBECEC" d="M685.455,761.084l-0.103-1.064l2.415-0.231l0.103,1.063L685.455,761.084z M680.98,762.658l-0.211-2.197
			l3.356-0.324l0.211,2.198L680.98,762.658z M694.689,764.449l-0.027-3.138c0,0-0.352-2.36-0.858-3.346
			c-0.509-0.982-2.035-0.975-2.035-0.975l-10.027,0.966c0,0-4.114,2.448-3.107,7.9l-4.803,0.462l0.041,0.423l4.748-0.457
			l6.834-0.658c0,0-0.009,1.777,1.57,1.584s1.286-1.515,1.286-1.515l5.771-0.556C694.08,765.143,695.257,764.918,694.689,764.449"/>
		<path fill="#EBECEC" d="M705.955,761.084l-0.103-1.064l2.415-0.231l0.103,1.063L705.955,761.084z M701.48,762.658l-0.211-2.197
			l3.356-0.324l0.211,2.198L701.48,762.658z M715.189,764.449l-0.027-3.138c0,0-0.352-2.36-0.858-3.346
			c-0.509-0.982-2.035-0.975-2.035-0.975l-10.027,0.966c0,0-4.114,2.448-3.107,7.9l-4.803,0.462l0.041,0.423l4.748-0.457
			l6.834-0.658c0,0-0.009,1.777,1.57,1.584s1.286-1.515,1.286-1.515l5.771-0.556C714.58,765.143,715.757,764.918,715.189,764.449"/>
		<path fill="#EBECEC" d="M726.08,761.084l-0.103-1.064l2.415-0.231l0.103,1.063L726.08,761.084z M721.605,762.658l-0.211-2.197
			l3.356-0.324l0.211,2.198L721.605,762.658z M735.314,764.449l-0.027-3.138c0,0-0.352-2.36-0.858-3.346
			c-0.509-0.982-2.035-0.975-2.035-0.975l-10.027,0.966c0,0-4.114,2.448-3.107,7.9l-4.803,0.462l0.041,0.423l4.748-0.457
			l6.834-0.658c0,0-0.009,1.777,1.57,1.584s1.286-1.515,1.286-1.515l5.771-0.556C734.705,765.143,735.882,764.918,735.314,764.449"
			/>
	</g>
	<path fill="#EBECEC" d="M977.979,718.525v-2.938h-9.354v2.938h-17.434v-2.938h-9.354v2.938h-10.156v48.7h58.976v-48.7H977.979z
		 M943.483,761.882h-5.373v-3.917h5.373V761.882z M943.483,755.949h-5.373v-3.918h5.373V755.949z M943.483,749.793h-5.373v-3.918
		h5.373V749.793z M943.483,743.86h-5.373v-3.917h5.373V743.86z M943.483,738.375h-5.373v-3.917h5.373V738.375z M943.483,732.443
		h-5.373v-3.918h5.373V732.443z M951.094,761.882h-5.373v-3.917h5.373V761.882z M951.094,755.949h-5.373v-3.918h5.373V755.949z
		 M951.094,749.793h-5.373v-3.918h5.373V749.793z M951.094,743.86h-5.373v-3.917h5.373V743.86z M951.094,738.375h-5.373v-3.917
		h5.373V738.375z M951.094,732.443h-5.373v-3.918h5.373V732.443z M959.602,761.882h-5.373v-3.917h5.373V761.882z M959.602,755.949
		h-5.373v-3.918h5.373V755.949z M959.602,749.793h-5.373v-3.918h5.373V749.793z M959.602,743.86h-5.373v-3.917h5.373V743.86z
		 M959.602,738.375h-5.373v-3.917h5.373V738.375z M959.602,732.443h-5.373v-3.918h5.373V732.443z M967.213,761.882h-5.373v-3.917
		h5.373V761.882z M967.213,755.949h-5.373v-3.918h5.373V755.949z M967.213,749.793h-5.373v-3.918h5.373V749.793z M967.213,743.86
		h-5.373v-3.917h5.373V743.86z M967.213,738.375h-5.373v-3.917h5.373V738.375z M967.213,732.443h-5.373v-3.918h5.373V732.443z
		 M975.049,761.882h-5.373v-3.917h5.373V761.882z M975.049,755.949h-5.373v-3.918h5.373V755.949z M975.049,749.793h-5.373v-3.918
		h5.373V749.793z M975.049,743.86h-5.373v-3.917h5.373V743.86z M975.049,738.375h-5.373v-3.917h5.373V738.375z M975.049,732.443
		h-5.373v-3.918h5.373V732.443z M982.659,761.882h-5.373v-3.917h5.373V761.882z M982.659,755.949h-5.373v-3.918h5.373V755.949z
		 M982.659,749.793h-5.373v-3.918h5.373V749.793z M982.659,743.86h-5.373v-3.917h5.373V743.86z M982.659,738.375h-5.373v-3.917
		h5.373V738.375z M982.659,732.443h-5.373v-3.918h5.373V732.443z"/>
	<path fill="#EBECEC" d="M537.478,761.424h-2.68v-2.843h2.68V761.424z M558.303,765.139l0.879-1.481l-10.158,0.719l-0.199-5.989
		l-8.019-3.666l-8.801,3.486l-0.134,6.126l-9.575-0.676l1.98,3.565h7.531v0.004l1.871-0.004h23.388l0.829-1.398l22.938,1.402
		l0.043-0.707L558.303,765.139z"/>
	<path fill="#EBECEC" d="M270.156,764.964h-2.188v-2.724h2.188V764.964z M265.323,761.877h-2.188v-2.724h2.188V761.877z
		 M262.373,761.877h-1.997v-2.724h1.997V761.877z M272.621,758.347l-6.751-4.266l-2.211,1.214v-0.42h-2.222v1.638l-3.342,1.834
		h1.528l-0.129,8.88l11.652-0.035l-0.195-8.845H272.621z"/>
	<path fill="#EBECEC" d="M217.378,764.964h-2.189v-2.724h2.189V764.964z M212.546,761.877h-2.189v-2.724h2.189V761.877z
		 M209.595,761.877h-1.996v-2.724h1.996V761.877z M219.843,758.347l-6.75-4.266l-2.211,1.214v-0.42h-2.222v1.638l-3.343,1.834h1.528
		l-0.129,8.88l11.654-0.035l-0.197-8.845H219.843z"/>
	<path fill="#EBECEC" d="M199.54,764.964h-2.189v-2.724h2.189V764.964z M194.707,761.877h-2.189v-2.724h2.189V761.877z
		 M191.756,761.877h-1.997v-2.724h1.997V761.877z M202.005,758.347l-6.751-4.266l-2.211,1.214v-0.42h-2.222v1.638l-3.342,1.834
		h1.529l-0.129,8.88l11.654-0.035l-0.196-8.845H202.005z"/>
	<path fill="#EBECEC" d="M180.337,764.964h-2.189v-2.724h2.189V764.964z M175.504,761.877h-2.189v-2.724h2.189V761.877z
		 M172.554,761.877h-1.997v-2.724h1.997V761.877z M182.802,758.347l-6.751-4.266l-2.211,1.214v-0.42h-2.221v1.638l-3.343,1.834
		h1.529l-0.129,8.88l11.654-0.035l-0.197-8.845H182.802z"/>
	<path fill="#EBECEC" d="M162.498,764.964h-2.189v-2.724h2.189V764.964z M157.665,761.877h-2.189v-2.724h2.189V761.877z
		 M154.715,761.877h-1.997v-2.724h1.997V761.877z M164.963,758.347l-6.751-4.266l-2.211,1.214v-0.42h-2.222v1.638l-3.342,1.834
		h1.529l-0.129,8.88l11.654-0.035l-0.197-8.845H164.963z"/>
	<path fill="#EBECEC" d="M253.778,761.877h-2.188v-2.724h2.188V761.877z M249.718,761.877h-2.19v-2.724h2.19V761.877z
		 M246.767,761.877h-1.998v-2.724h1.998V761.877z M243.979,761.877h-2.188v-2.724h2.188V761.877z M241.028,761.877h-1.995v-2.724
		h1.995V761.877z M256.849,758.347l-10.303-4.266l-5.939,2.136v-1.342h-1.109v1.742l-4.813,1.729h3.068l-0.197,8.88l17.906-0.035
		l-0.303-8.845L256.849,758.347L256.849,758.347z"/>
	<path fill="#EBECEC" d="M402.672,741.717h-4.629v-3.05h4.629V741.717z M402.672,748.73h-4.629v-3.051h4.629V748.73z
		 M402.672,756.244h-4.629v-3.05h4.629V756.244z M402.672,762.498h-4.629v-3.05h4.629V762.498z M395.922,741.717h-4.629v-3.05h4.629
		V741.717z M395.922,748.73h-4.629v-3.051h4.629V748.73z M395.922,756.244h-4.629v-3.05h4.629V756.244z M395.922,762.498h-4.629
		v-3.05h4.629V762.498z M389.297,741.717h-4.629v-3.05h4.629V741.717z M389.297,748.73h-4.629v-3.051h4.629V748.73z
		 M389.297,756.244h-4.629v-3.05h4.629V756.244z M389.297,762.498h-4.629v-3.05h4.629V762.498z M382.547,741.717h-4.629v-3.05h4.629
		V741.717z M382.547,748.73h-4.629v-3.051h4.629V748.73z M382.547,756.244h-4.629v-3.05h4.629V756.244z M382.547,762.498h-4.629
		v-3.05h4.629V762.498z M374.448,734.169v6.786h-3.125v3.677h3.125v2.574h-3.125v3.677h3.125v3.312h-3.125v3.677h3.125v2.758h-3.125
		v3.677h3.125v2.922h30.846V734.17L374.448,734.169L374.448,734.169z"/>
	<path fill="#EBECEC" d="M465.937,765.142h-6.181v-36.477h6.181V765.142z M457.248,732.38h-5.094v-3.715h5.094V732.38z
		 M457.248,738.003h-5.094v-3.714h5.094V738.003z M457.248,743.204h-5.094v-3.714h5.094V743.204z M457.248,748.828h-5.094v-3.714
		h5.094V748.828z M457.248,754.665h-5.094v-3.715h5.094V754.665z M457.248,760.289h-5.094v-3.715h5.094V760.289z M450.032,732.38
		h-5.094v-3.715h5.094V732.38z M450.032,738.003h-5.094v-3.714h5.094V738.003z M450.032,743.204h-5.094v-3.714h5.094V743.204z
		 M450.032,748.828h-5.094v-3.714h5.094V748.828z M450.032,754.665h-5.094v-3.715h5.094V754.665z M450.032,760.289h-5.094v-3.715
		h5.094V760.289z M442.604,732.38h-5.096v-3.715h5.096V732.38z M442.604,738.003h-5.096v-3.714h5.096V738.003z M442.604,743.204
		h-5.096v-3.714h5.096V743.204z M442.604,748.828h-5.096v-3.714h5.096V748.828z M442.604,754.665h-5.096v-3.715h5.096V754.665z
		 M442.604,760.289h-5.096v-3.715h5.096V760.289z M435.389,732.38h-5.094v-3.715h5.094V732.38z M435.389,738.003h-5.094v-3.714
		h5.094V738.003z M435.389,743.204h-5.094v-3.714h5.094V743.204z M435.389,748.828h-5.094v-3.714h5.094V748.828z M435.389,754.665
		h-5.094v-3.715h5.094V754.665z M435.389,760.289h-5.094v-3.715h5.094V760.289z M427.323,732.38h-5.094v-3.715h5.094V732.38z
		 M427.323,738.003h-5.094v-3.714h5.094V738.003z M427.323,743.204h-5.094v-3.714h5.094V743.204z M427.323,748.828h-5.094v-3.714
		h5.094V748.828z M427.323,754.665h-5.094v-3.715h5.094V754.665z M427.323,760.289h-5.094v-3.715h5.094V760.289z M420.106,732.38
		h-5.095v-3.715h5.095V732.38z M420.106,738.003h-5.095v-3.714h5.095V738.003z M420.106,743.204h-5.095v-3.714h5.095V743.204z
		 M420.106,748.828h-5.095v-3.714h5.095V748.828z M420.106,754.665h-5.095v-3.715h5.095V754.665z M420.106,760.289h-5.095v-3.715
		h5.095V760.289z M466.039,718.524v-3.646h-26.062v3.646h-29.125v48.701h58.978v-48.701H466.039z"/>
	<polygon fill="#EBECEC" points="89.066,715.471 89.066,714.862 88.243,714.862 88.225,712.898 87.718,712.99 87.705,714.862 
		86.892,714.862 86.892,715.471 87.701,715.471 87.698,715.931 86.892,715.931 86.892,716.543 87.694,716.543 87.692,716.825 
		86.892,716.825 86.892,717.434 87.688,717.434 87.685,717.894 86.892,717.894 86.892,718.506 87.681,718.506 87.677,719.058 
		86.892,719.058 86.892,719.669 87.673,719.669 87.67,720.129 86.892,720.129 86.892,720.74 87.666,720.74 87.664,721.021 
		86.892,721.021 86.892,721.631 87.66,721.631 87.656,722.092 86.892,722.092 86.892,722.703 87.653,722.703 87.353,767.135 
		88.733,767.227 88.317,722.703 89.066,722.703 89.066,722.092 88.311,722.092 88.306,721.631 89.066,721.631 89.066,721.021 
		88.301,721.021 88.298,720.74 89.066,720.74 89.066,720.129 88.292,720.129 88.288,719.669 89.066,719.669 89.066,719.058 
		88.282,719.058 88.277,718.506 89.066,718.506 89.066,717.894 88.272,717.894 88.267,717.434 89.066,717.434 89.066,716.825 
		88.261,716.825 88.259,716.543 89.066,716.543 89.066,715.931 88.253,715.931 88.249,715.471 	"/>
	<g>
		<path fill="#EBECEC" d="M136.947,726.246h-26.476v-4.119h26.476V726.246z M136.947,732.94h-26.476v-4.12h26.476V732.94z
			 M136.947,739.559h-26.476v-4.118h26.476V739.559z M136.947,746.178h-26.476v-4.12h26.476V746.178z M136.947,752.797h-26.476
			v-4.12h26.476V752.797z M136.947,759.783h-26.476v-4.12h26.476V759.783z M109.055,726.565h-6.088v-4.438h6.088V726.565z
			 M109.055,733.287h-6.088v-4.438h6.088V733.287z M109.055,739.503h-6.088v-4.438h6.088V739.503z M109.055,746.224h-6.088v-4.438
			h6.088V746.224z M109.055,753.2h-6.088v-4.439h6.088V753.2z M109.055,759.922h-6.088v-4.438h6.088V759.922z M144.343,726.062
			l-0.169-0.553l-0.778,0.237c-0.532-0.81-1.41-1.341-2.406-1.341c-0.255,0-0.497,0.045-0.733,0.11v-21.069h-39.347v63.777h39.347
			v-36.646c0.236,0.065,0.479,0.111,0.733,0.111c1.625,0,2.942-1.407,2.942-3.144c0-0.457-0.096-0.89-0.26-1.281L144.343,726.062z"
			/>
	</g>
	<path fill="#EBECEC" d="M922.219,749.375h1.996v2.723h-1.996V749.375z M922.219,752.947h1.996v2.724h-1.996V752.947z
		 M922.219,756.636h1.996v2.724h-1.996V756.636z M922.219,760.208h1.996v2.723h-1.996V760.208z M911.122,767.143l14.902,0.084
		l-0.168-21.134l-7.578-8.167l-6.904,8.588L911.122,767.143z"/>
	<path fill="#EBECEC" d="M902.219,749.375h1.996v2.723h-1.996V749.375z M902.219,752.947h1.996v2.724h-1.996V752.947z
		 M902.219,756.636h1.996v2.724h-1.996V756.636z M902.219,760.208h1.996v2.723h-1.996V760.208z M904.844,749.375h1.996v2.723h-1.996
		V749.375z M904.844,752.947h1.996v2.724h-1.996V752.947z M904.844,756.636h1.996v2.724h-1.996V756.636z M904.844,760.208h1.996
		v2.723h-1.996V760.208z M894.024,767.143l14.903,0.084l-0.168-21.134l-7.578-8.167l-6.904,8.588L894.024,767.143z"/>
	<rect x="838.394" y="764.232" fill="#EBECEC" width="0.851" height="2.968"/>
	<rect x="785.188" y="764.323" fill="#EBECEC" width="0.834" height="2.902"/>
	<rect x="832.957" y="764.232" fill="#EBECEC" width="0.854" height="2.968"/>
	<rect x="790.502" y="764.323" fill="#EBECEC" width="0.834" height="2.902"/>
	<rect x="779.87" y="764.323" fill="#EBECEC" width="0.834" height="2.902"/>
	<rect x="835.697" y="764.232" fill="#EBECEC" width="0.853" height="2.968"/>
	<rect x="793.181" y="764.323" fill="#EBECEC" width="0.834" height="2.902"/>
	<rect x="782.549" y="764.323" fill="#EBECEC" width="0.834" height="2.902"/>
	<rect x="787.865" y="764.323" fill="#EBECEC" width="0.834" height="2.902"/>
	<rect x="777.233" y="764.323" fill="#EBECEC" width="0.834" height="2.902"/>
	<rect x="837.129" y="764.232" fill="#EBECEC" width="0.853" height="2.968"/>
	<rect x="783.95" y="764.323" fill="#EBECEC" width="0.834" height="2.902"/>
	<rect x="831.695" y="764.232" fill="#EBECEC" width="0.853" height="2.968"/>
	<rect x="789.267" y="764.323" fill="#EBECEC" width="0.835" height="2.902"/>
	<rect x="778.634" y="764.323" fill="#EBECEC" width="0.835" height="2.902"/>
	<rect x="834.434" y="764.232" fill="#EBECEC" width="0.851" height="2.968"/>
	<rect x="791.945" y="764.323" fill="#EBECEC" width="0.833" height="2.902"/>
	<rect x="781.314" y="764.323" fill="#EBECEC" width="0.833" height="2.902"/>
	<rect x="786.629" y="764.323" fill="#EBECEC" width="0.833" height="2.902"/>
	<rect x="775.997" y="764.323" fill="#EBECEC" width="0.833" height="2.902"/>
	<path fill="#EBECEC" d="M817.56,760.654h4.25v2.846h-4.25V760.654z M823.31,760.654h4.25v2.846h-4.25V760.654z M792.493,759.159
		l2.021,1.011l0.252,7.325L830.89,768v-7.324l2.104-1.77l-20.545-12.798L792.493,759.159z"/>
	<path fill="#EBECEC" d="M15.018,759.472h5.431v3.139h-5.431V759.472z M22.121,759.472h5.429v3.139h-5.429V759.472z M29.481,759.472
		h5.43v3.139h-5.43V759.472z M36.479,759.472h5.43v3.139h-5.43V759.472z M15.018,752.836h5.431v3.137h-5.431V752.836z
		 M22.121,752.836h5.429v3.137h-5.429V752.836z M29.481,752.836h5.43v3.137h-5.43V752.836z M36.479,752.836h5.43v3.137h-5.43
		V752.836z M15.018,746.108h5.431v3.137h-5.431V746.108z M22.121,746.108h5.429v3.137h-5.429V746.108z M29.481,746.108h5.43v3.137
		h-5.43V746.108z M36.479,746.108h5.43v3.137h-5.43V746.108z M15.018,738.961h5.431v3.137h-5.431V738.961z M22.121,738.961h5.429
		v3.137h-5.429V738.961z M29.481,738.961h5.43v3.137h-5.43V738.961z M36.479,738.961h5.43v3.137h-5.43V738.961z M12.468,734.169
		v6.787H9.342v3.675h3.126v2.575H9.342v3.677h3.126v3.312H9.342v3.677h3.126v2.759H9.342v3.676h3.126v2.922h30.846V734.17
		L12.468,734.169L12.468,734.169z"/>
	<path fill="#EBECEC" d="M74.363,742.098h-5.429v-3.137h5.429V742.098z M74.363,749.245h-5.429v-3.138h5.429V749.245z
		 M74.363,755.973h-5.429v-3.137h5.429V755.973z M74.363,762.608h-5.429v-3.138h5.429V762.608z M67.366,742.098h-5.43v-3.137h5.43
		V742.098z M67.366,749.245h-5.43v-3.138h5.43V749.245z M67.366,755.973h-5.43v-3.137h5.43V755.973z M67.366,762.608h-5.43v-3.138
		h5.43V762.608z M60.005,742.098h-5.429v-3.137h5.429V742.098z M60.005,749.245h-5.429v-3.138h5.429V749.245z M60.005,755.973
		h-5.429v-3.137h5.429V755.973z M60.005,762.608h-5.429v-3.138h5.429V762.608z M52.902,742.098h-5.429v-3.137h5.429V742.098z
		 M52.902,749.245h-5.429v-3.138h5.429V749.245z M52.902,755.973h-5.429v-3.137h5.429V755.973z M52.902,762.608h-5.429v-3.138h5.429
		V762.608z M79.487,744.632v-3.677h-3.125v-6.786H45.517v33.058h30.845v-2.922h3.125v-3.677h-3.125v-2.758h3.125v-3.677h-3.125
		v-3.312h3.125v-3.677h-3.125v-2.574L79.487,744.632L79.487,744.632z"/>
</g>
</svg>
