<?xml version="1.0" encoding="utf-8"?>
<!-- Generator: Adobe Illustrator 16.0.0, SVG Export Plug-In . SVG Version: 6.00 Build 0)  -->
<!DOCTYPE svg PUBLIC "-//W3C//DTD SVG 1.1//EN" "http://www.w3.org/Graphics/SVG/1.1/DTD/svg11.dtd">
<svg version="1.1" id="Ebene_1" xmlns="http://www.w3.org/2000/svg" xmlns:xlink="http://www.w3.org/1999/xlink" x="0px" y="0px"
	 width="760px" height="117.5px" viewBox="0 0 760 117.5" enable-background="new 0 0 760 117.5" xml:space="preserve">
<g>
	<path fill="#939597" d="M432.569,23.096c0,1.217-0.233,2.551-2.812,2.551h-0.88v-5.104c0.352-0.058,0.586-0.058,0.821-0.058
		C432.394,20.485,432.569,21.819,432.569,23.096 M447.857,49.427l-4.978-16.993c2.459-1.915,3.925-5.452,3.925-10.034
		c0-7.772-5.273-12.18-15.935-12.18c-5.096,0-11.832,0-15.699,0.116v39.09h13.707V35.739h0.586l2.637,13.688H447.857z
		 M411.071,49.427V38.581h-10.31v-3.711h9.079V24.197h-9.079v-3.074h10.134V10.337h-24.077v39.09H411.071z M382.368,49.427v-39.09
		h-12.478v11.889l-5.799-11.889h-14.821v39.09h12.595V36.03l6.093,13.397H382.368z M345.171,49.427V38.581h-10.31v-3.711h9.08
		V24.197h-9.08v-3.074h10.135V10.337h-24.077v39.09H345.171z M318.752,10.337h-13.823l-2.11,19.719l-0.526,6.263l-0.528-6.263
		l-2.401-19.719h-14l6.678,39.09h19.683L318.752,10.337z M269.136,34.405h-2.987l1.405-12.179h0.178L269.136,34.405z
		 M285.188,49.427l-6.619-39.09h-20.912l-6.797,39.09h13.532l0.527-4.466h5.447l0.469,4.466H285.188z M248.634,49.427v-39.09h-14.06
		v13.339h-5.271V10.337h-14.06v39.09h14.06V35.16h5.271v14.267H248.634z M196.968,23.096c0,1.217-0.233,2.551-2.812,2.551h-0.879
		v-5.104c0.353-0.058,0.586-0.058,0.82-0.058C196.793,20.485,196.968,21.819,196.968,23.096 M212.257,49.427l-4.979-16.993
		c2.459-1.915,3.925-5.452,3.925-10.034c0-7.772-5.272-12.18-15.934-12.18c-5.096,0-11.833,0-15.699,0.116v39.09h13.707V35.739
		h0.586l2.636,13.688H212.257z M175.47,49.427V38.581h-10.311v-3.711h9.08V24.197h-9.08v-3.074h10.135V10.337h-24.075v39.09H175.47z
		 M148.114,49.427l-2.987-39.09H127.67l-3.045,16.006h-0.06l-3.221-16.006h-18.511l-2.987,39.09h12.945l0.938-20.647h0.06
		l3.925,20.647h12.008l3.925-20.647h0.058l0.88,20.647H148.114z M97.092,49.427V38.581H86.783v-3.711h9.08V24.197h-9.08v-3.074
		h10.133V10.337H72.841v39.09H97.092z M54.565,23.096c0,1.217-0.235,2.551-2.812,2.551h-0.879v-5.104
		c0.351-0.058,0.586-0.058,0.82-0.058C54.39,20.485,54.565,21.819,54.565,23.096 M69.854,49.427l-4.979-16.993
		c2.46-1.915,3.925-5.452,3.925-10.034c0-7.772-5.271-12.18-15.933-12.18c-5.097,0-11.834,0-15.699,0.116v39.09h13.707V35.739h0.586
		l2.635,13.688H69.854z M19.887,36.784c0,1.159-0.235,2.435-3.223,2.435h-0.938V34.58c0.293,0,0.528-0.058,0.762-0.058
		C19.418,34.521,19.887,35.565,19.887,36.784 M19.652,22.631c0,1.219-0.409,2.147-3.105,2.147h-0.82v-4.235
		c0.234,0,0.469-0.058,0.762-0.058C19.243,20.485,19.652,21.355,19.652,22.631 M34.003,36.726c0-3.654-2.342-7.134-5.213-8.004
		c2.343-1.392,3.749-3.712,3.749-7.423c0-9.106-7.088-11.019-15.348-11.019c-4.394,0-9.665,0.058-14.469,0.058v39.09
		c4.862,0,10.017,0.058,15.055,0.058C25.979,49.485,34.003,46.178,34.003,36.726"/>
</g>
<path fill="#939597" d="M676.174,47.839l-2.598-10.229c-1.327,0.742-3.117,1.314-4.387,1.314c-1.731,0-3.636-0.744-3.636-8.686
	c0-7.715,1.616-8.972,4.041-8.972c1.327,0,2.771,0.457,3.866,1.028l2.54-9.886c-2.714-1.658-5.656-2.4-9.177-2.4
	c-10.102,0-15.411,7.2-15.411,20.344c0,14.8,4.502,20.114,14.661,20.114C670.229,50.467,673.461,49.381,676.174,47.839
	 M710.06,49.497l-6.522-38.517h-20.605l-6.695,38.517h13.333l0.519-4.4h5.368l0.463,4.4H710.06z M694.245,34.696h-2.944
	l1.385-12.001h0.174L694.245,34.696z M733.343,21.837V10.979h-22.452v38.517h13.736V36.182h7.561V25.438h-7.561v-3.601H733.343z
	 M759.032,49.497V38.811h-10.158v-3.658h8.947V24.638h-8.947v-3.029h9.985V10.979h-23.722v38.517H759.032z M746.047,0.922l-4.791,8
	h8.427l8.716-8"/>
<path fill="#939597" d="M515.216,10.791h-13.621l-1.154,14.744l-0.809,8.629h-0.058l-0.981-8.629l-1.616-14.744H481.97
	l-1.211,14.744l-0.981,8.629h-0.059l-0.75-8.629l-1.616-14.744h-13.852l5.54,38.517h18.065l0.981-10.057l0.52-6.401h0.059
	l0.692,6.401l0.98,10.057h17.547L515.216,10.791z M550.146,29.878c0-11.772-2.598-20.114-17.547-20.114h-0.461
	c-10.332,0-17.777,4.857-17.777,20.401c0,11.943,2.597,20.172,17.547,20.172h0.461C542.758,50.337,550.146,45.537,550.146,29.878
	 M535.717,29.993c0,7.372-0.981,9.372-3.578,9.372c-2.598,0-3.348-2.343-3.348-9.315c0-7.485,0.98-9.485,3.578-9.485
	S535.717,22.906,535.717,29.993 M584.39,49.308l-4.905-16.744c2.424-1.886,3.867-5.372,3.867-9.887c0-7.657-5.194-12-15.7-12
	c-5.021,0-11.659,0-15.469,0.113v38.517h13.507V35.822h0.577l2.598,13.486H584.39z M569.326,23.365c0,1.199-0.231,2.514-2.771,2.514
	h-0.865V20.85c0.346-0.058,0.577-0.058,0.808-0.058C569.153,20.792,569.326,22.107,569.326,23.365 M606.37,49.308v-10.8h-6.812
	V10.791h-13.854v38.517H606.37z M640.826,29.878c0-16.229-5.945-19.2-18.643-19.2c-4.848,0-9.986,0.057-14.661,0.113v38.517
	c3.291,0.057,6.754,0.113,13.218,0.113C634.766,49.421,640.826,43.594,640.826,29.878 M626.744,29.993
	c0,6.571-1.328,9.143-4.156,9.143c-0.289,0-0.925-0.057-1.443-0.057V20.963c0.462-0.057,1.096-0.057,1.385-0.057
	C625.819,20.906,626.744,23.707,626.744,29.993"/>
<g>
	<path fill="#5F4C3F" d="M20.126,103.177c-0.796-0.038-3.032-0.189-4.245-0.189H0.909l0.152-1.592l3.525-0.455V79.185L0.833,78.73
		l0.189-1.592h18.156l-0.455,6.178l-1.63,0.265l-0.417-4.397H7.58v9.438h8.339l0.872-3.374l1.63,0.152l-0.303,4.245l0.303,4.548
		l-1.63,0.114l-0.872-3.677H7.58v10.31H17.7l0.872-5.117l1.667,0.189L20.126,103.177z"/>
	<path fill="#5F4C3F" d="M24.599,102.988l0.076-1.516l3.298-0.455V89.418l-1.782-2.236v-0.568l4.7-0.568l-0.228,2.463v12.508
		l3.26,0.455l0.076,1.516H24.599z M29.223,81.762c-0.91,0-1.63-0.758-1.63-1.667c0-0.91,0.72-1.63,1.63-1.63s1.63,0.72,1.63,1.63
		C30.853,81.004,30.132,81.762,29.223,81.762z"/>
	<path fill="#5F4C3F" d="M48.137,102.988l0.076-1.516l2.388-0.455v-8.528c0-3.335-1.819-4.473-3.79-4.473
		c-1.63,0-3.411,0.682-4.7,1.857v11.143l2.805,0.455l0.076,1.516h-8.907l0.076-1.516l3.298-0.455V89.418l-1.782-2.236v-0.568
		l4.321-0.568l-0.151,2.501c1.781-1.895,3.79-2.691,5.609-2.691c3.525,0,5.799,1.706,5.799,6.406v8.755l2.957,0.455l0.076,1.516
		H48.137z"/>
	<path fill="#5F4C3F" d="M66.633,103.367c-4.018,0-8.225-2.767-8.225-8.566c0-6.064,4.321-8.945,7.921-8.945
		c4.208,0,6.33,2.729,6.33,6.064c0,0.455-0.038,0.948-0.114,1.403H61.365c-0.076,0.417-0.114,0.796-0.114,1.213
		c0,3.562,2.161,6.633,5.913,6.633c1.933,0,3.714-0.796,4.813-1.895l0.91,1.25C71.599,102.192,69.325,103.367,66.633,103.367z
		 M69.931,91.162c0-1.857-1.289-3.601-3.715-3.601c-2.274,0-4.245,1.857-4.662,4.321l8.376-0.379V91.162z"/>
	<path fill="#5F4C3F" d="M109.615,78.692l-2.767,0.493c-2.274,5.042-6.709,17.436-8.528,23.955h-2.767
		c-1.516-5.042-6.406-18.573-8.604-23.955l-2.767-0.493l0.152-1.554h9.893l-0.114,1.554l-3.942,0.493
		c1.554,3.829,5.723,15.616,7.126,20.506c1.402-5.496,4.7-14.707,7.012-20.506l-4.131-0.493l0.114-1.554h9.476L109.615,78.692z"/>
	<path fill="#5F4C3F" d="M119.887,103.367c-4.018,0-8.225-2.767-8.225-8.566c0-6.064,4.321-8.945,7.921-8.945
		c4.208,0,6.33,2.729,6.33,6.064c0,0.455-0.038,0.948-0.113,1.403h-11.182c-0.076,0.417-0.113,0.796-0.113,1.213
		c0,3.562,2.16,6.633,5.913,6.633c1.933,0,3.714-0.796,4.813-1.895l0.91,1.25C124.852,102.192,122.578,103.367,119.887,103.367z
		 M123.185,91.162c0-1.857-1.289-3.601-3.715-3.601c-2.274,0-4.245,1.857-4.662,4.321l8.377-0.379V91.162z"/>
	<path fill="#5F4C3F" d="M141.643,89.078l-1.743-0.493c-1.44,0-3.298,1.25-4.358,3.222v9.21l3.903,0.455l0.076,1.516h-10.044
		l0.075-1.516l3.298-0.455V89.418l-1.781-2.236v-0.568l4.358-0.568l-0.151,4.018c1.668-3.184,3.449-4.208,5.344-4.208
		c0.493,0,0.948,0.038,1.402,0.19L141.643,89.078z"/>
	<path fill="#5F4C3F" d="M159.608,102.874c-0.72,0.303-1.668,0.493-2.274,0.493c-1.667,0-2.994-0.947-3.222-2.843
		c-1.516,0.986-3.222,2.047-5.192,2.843c-2.843,0-4.7-1.592-4.7-3.942c0-2.123,1.63-3.373,3.222-4.056l6.481-0.265
		c0.038-1.478,0.038-2.426,0.038-3.639c0-2.35-1.251-3.714-3.222-3.714c-0.796,0-1.668,0.265-2.274,0.53l-0.909,3.942l-1.479-0.304
		l-0.228-3.866c2.009-1.44,4.018-2.199,5.951-2.199c2.691,0,4.813,1.365,4.813,5.307c0,0.568-0.113,7.088-0.113,7.542
		c0,2.009,0.682,2.881,2.426,2.881c0.227,0,0.53-0.076,0.758-0.114L159.608,102.874z M147.518,97.151
		c-0.228,0.493-0.417,1.023-0.417,1.592c0,1.706,0.985,2.501,2.615,2.501c1.327-0.493,3.184-1.402,4.169-2.009l0.038-2.957
		L147.518,97.151z"/>
	<path fill="#5F4C3F" d="M173.785,102.988l0.076-1.516l2.388-0.455v-8.528c0-3.335-1.819-4.473-3.791-4.473
		c-1.63,0-3.411,0.682-4.699,1.857v11.143l2.805,0.455l0.075,1.516h-8.906l0.075-1.516l3.298-0.455V89.418l-1.781-2.236v-0.568
		l4.32-0.568l-0.151,2.501c1.781-1.895,3.79-2.691,5.609-2.691c3.525,0,5.8,1.706,5.8,6.406v8.755l2.956,0.455l0.076,1.516H173.785z
		"/>
	<path fill="#5F4C3F" d="M189.25,103.367c-1.744,0-3.715-0.265-4.966-0.985l0.417-2.236c1.44,0.834,3.79,1.289,5.496,1.289
		c0.455,0,0.947-0.038,1.364-0.113c0.417-0.379,0.872-1.289,0.872-2.123c0-3.79-7.809-3.335-7.809-8.604
		c0-2.843,3.449-4.738,6.52-4.738c1.289,0,2.502,0.114,3.715,0.493l-0.341,2.274c-1.251-0.493-3.639-0.872-4.928-0.872
		c-0.341,0-0.683,0-0.985,0.038c-0.683,0.379-1.327,1.403-1.327,2.35c0,3.639,7.884,3.335,7.884,8.452
		C195.162,101.093,192.623,103.367,189.25,103.367z"/>
	<path fill="#5F4C3F" d="M206.229,103.367c-3.146,0-5.079-1.516-5.079-5.572v-9.551h-2.918v-1.099l2.956-1.592l1.896-2.805h0.72
		v3.525h5.534v1.971h-5.534v9.021c0,2.767,1.213,4.018,3.07,4.018c0.985,0,2.123-0.228,3.032-0.531l0.341,1.782
		C209.187,103.14,207.329,103.367,206.229,103.367z"/>
	<path fill="#5F4C3F" d="M227.873,102.874c-0.72,0.303-1.668,0.493-2.274,0.493c-1.667,0-2.994-0.947-3.222-2.843
		c-1.516,0.986-3.222,2.047-5.192,2.843c-2.843,0-4.7-1.592-4.7-3.942c0-2.123,1.63-3.373,3.222-4.056l6.481-0.265
		c0.038-1.478,0.038-2.426,0.038-3.639c0-2.35-1.251-3.714-3.222-3.714c-0.796,0-1.668,0.265-2.274,0.53l-0.909,3.942l-1.479-0.304
		l-0.228-3.866c2.009-1.44,4.018-2.199,5.951-2.199c2.69,0,4.813,1.365,4.813,5.307c0,0.568-0.113,7.088-0.113,7.542
		c0,2.009,0.682,2.881,2.426,2.881c0.227,0,0.53-0.076,0.758-0.114L227.873,102.874z M215.782,97.151
		c-0.228,0.493-0.417,1.023-0.417,1.592c0,1.706,0.985,2.501,2.615,2.501c1.327-0.493,3.184-1.402,4.17-2.009l0.037-2.957
		L215.782,97.151z"/>
	<path fill="#5F4C3F" d="M229.654,102.988l0.076-1.516l3.297-0.455V78.124l-3.335-0.228l0.076-1.554l6.178-0.379l-0.228,2.388
		v22.666l3.26,0.455l0.076,1.516H229.654z"/>
	<path fill="#5F4C3F" d="M248.795,103.367c-3.146,0-5.079-1.516-5.079-5.572v-9.551h-2.918v-1.099l2.956-1.592l1.896-2.805h0.72
		v3.525h5.534v1.971h-5.534v9.021c0,2.767,1.213,4.018,3.07,4.018c0.985,0,2.123-0.228,3.032-0.531l0.341,1.782
		C251.752,103.14,249.895,103.367,248.795,103.367z"/>
	<path fill="#5F4C3F" d="M268.808,103.367l0.151-2.54c-1.895,1.896-3.752,2.54-5.685,2.54c-3.26,0-5.421-1.744-5.421-6.216v-7.732
		l-1.781-2.236v-0.568l4.662-0.568l-0.189,2.35v8.453c0,3.184,1.63,4.321,3.639,4.321c1.668,0,3.525-0.796,4.662-1.971V88.206
		l-3.715-0.227l0.076-1.517l6.33-0.417v15.161l3.26,0.265l0.075,1.516L268.808,103.367z"/>
	<path fill="#5F4C3F" d="M289.011,102.988l0.075-1.516l2.389-0.455v-8.528c0-3.335-1.819-4.473-3.791-4.473
		c-1.629,0-3.411,0.682-4.699,1.857v11.143l2.805,0.455l0.075,1.516h-8.907l0.076-1.516l3.298-0.455V89.418l-1.781-2.236v-0.568
		l4.32-0.568l-0.151,2.501c1.781-1.895,3.79-2.691,5.609-2.691c3.525,0,5.8,1.706,5.8,6.406v8.755l2.956,0.455l0.076,1.516H289.011z
		"/>
	<path fill="#5F4C3F" d="M307.015,113.108c-4.245,0-8.263-1.706-8.263-6.027c0-1.061,0.379-2.046,0.947-2.767
		c0.796-0.606,2.009-1.365,2.805-1.744c-1.478-0.531-2.729-1.478-2.729-3.487c0-1.744,1.554-3.26,3.032-3.828
		c-0.91-0.872-1.44-2.199-1.44-3.752c0-3.298,2.691-5.648,6.103-5.648c0.909,0,2.009,0.19,2.653,0.455h5.269v1.554l-3.185,0.114
		c0.834,0.758,1.402,2.16,1.402,3.487c0,3.449-2.463,5.686-6.14,5.686c-1.289,0-2.502-0.303-3.449-0.91
		c-0.985,0.303-1.971,1.213-1.971,2.274c0,1.592,1.402,2.009,2.994,2.312c2.69,0.493,6.14,0.872,9.135,1.44
		c0.871,1.213,1.364,2.691,1.364,4.018C315.543,110.189,312.018,113.108,307.015,113.108z M312.776,104.58
		c-2.351-0.455-6.747-0.985-8.87-1.327c-1.478,0.531-2.577,1.592-2.577,3.487c0,2.312,2.047,4.396,6.103,4.396
		c3.487,0,5.799-2.009,5.799-4.586C313.23,105.906,313.117,105.3,312.776,104.58z M307.47,87.562c-2.161,0-3.563,1.478-3.563,3.942
		c0,2.388,1.479,3.904,3.563,3.904c2.122,0,3.562-1.478,3.562-3.904C311.032,89.04,309.555,87.562,307.47,87.562z"/>
	<path fill="#5F4C3F" d="M323.428,103.367c-1.744,0-3.715-0.265-4.966-0.985l0.417-2.236c1.44,0.834,3.79,1.289,5.496,1.289
		c0.455,0,0.947-0.038,1.364-0.113c0.417-0.379,0.872-1.289,0.872-2.123c0-3.79-7.809-3.335-7.809-8.604
		c0-2.843,3.449-4.738,6.52-4.738c1.289,0,2.502,0.114,3.715,0.493l-0.341,2.274c-1.251-0.493-3.639-0.872-4.928-0.872
		c-0.341,0-0.683,0-0.985,0.038c-0.683,0.379-1.327,1.403-1.327,2.35c0,3.639,7.884,3.335,7.884,8.452
		C329.34,101.093,326.801,103.367,323.428,103.367z"/>
	<path fill="#5F4C3F" d="M344.842,89.078l-1.743-0.493c-1.44,0-3.298,1.25-4.358,3.222v9.21l3.903,0.455l0.076,1.516h-10.044
		l0.075-1.516l3.298-0.455V89.418l-1.781-2.236v-0.568l4.358-0.568l-0.151,4.018c1.668-3.184,3.449-4.208,5.344-4.208
		c0.493,0,0.948,0.038,1.402,0.19L344.842,89.078z"/>
	<path fill="#5F4C3F" d="M355.645,103.367c-4.018,0-8.226-2.767-8.226-8.566c0-6.064,4.321-8.945,7.922-8.945
		c4.207,0,6.33,2.729,6.33,6.064c0,0.455-0.038,0.948-0.114,1.403h-11.181c-0.076,0.417-0.114,0.796-0.114,1.213
		c0,3.562,2.161,6.633,5.913,6.633c1.933,0,3.715-0.796,4.813-1.895l0.91,1.25C360.609,102.192,358.335,103.367,355.645,103.367z
		 M358.941,91.162c0-1.857-1.288-3.601-3.714-3.601c-2.274,0-4.245,1.857-4.662,4.321l8.376-0.379V91.162z"/>
	<path fill="#5F4C3F" d="M365.234,102.988l0.075-1.516l3.298-0.455V89.418l-1.781-2.236v-0.568l4.699-0.568l-0.227,2.463v12.508
		l3.259,0.455l0.076,1.516H365.234z M369.858,81.762c-0.91,0-1.63-0.758-1.63-1.667c0-0.91,0.72-1.63,1.63-1.63
		c0.909,0,1.63,0.72,1.63,1.63C371.488,81.004,370.768,81.762,369.858,81.762z"/>
	<path fill="#5F4C3F" d="M388.354,102.988l0.076-1.516l2.388-0.455v-8.528c0-3.335-1.819-4.473-3.791-4.473
		c-1.629,0-3.373,0.72-4.624,1.895v11.105l2.653,0.455l0.076,1.516h-8.756l0.076-1.516l3.297-0.455V78.124l-3.335-0.228l0.076-1.554
		l6.14-0.379l-0.228,2.35v10.082c1.706-1.781,3.525-2.54,5.307-2.54c3.487,0,5.724,1.706,5.724,6.406v8.755l2.956,0.455l0.076,1.516
		H388.354z"/>
	<path fill="#5F4C3F" d="M406.813,103.367c-4.019,0-8.226-2.767-8.226-8.566c0-6.064,4.321-8.945,7.922-8.945
		c4.207,0,6.33,2.729,6.33,6.064c0,0.455-0.038,0.948-0.114,1.403h-11.181c-0.076,0.417-0.114,0.796-0.114,1.213
		c0,3.562,2.161,6.633,5.913,6.633c1.933,0,3.715-0.796,4.813-1.895l0.91,1.25C411.778,102.192,409.504,103.367,406.813,103.367z
		 M410.11,91.162c0-1.857-1.288-3.601-3.714-3.601c-2.274,0-4.245,1.857-4.662,4.321l8.376-0.379V91.162z"/>
	<path fill="#5F4C3F" d="M438.272,102.988l0.114-2.35c-1.327,1.706-3.108,2.729-5.307,2.729c-4.965,0-7.543-3.601-7.543-8.338
		c0-5.117,3.487-9.135,8.718-9.135c1.364,0,2.653,0.228,3.942,0.758v-8.528l-3.563-0.228l0.076-1.554l6.367-0.379l-0.227,2.388
		v22.666l3.259,0.455l0.076,1.516H438.272z M438.197,88.774c-1.023-0.606-2.426-0.872-3.602-0.872c-3.979,0-6.102,3.108-6.102,6.86
		c0,3.412,1.63,6.368,5.382,6.368c1.63,0,3.336-0.91,4.321-2.198V88.774z"/>
	<path fill="#5F4C3F" d="M454.345,103.367c-4.019,0-8.226-2.767-8.226-8.566c0-6.064,4.321-8.945,7.922-8.945
		c4.207,0,6.33,2.729,6.33,6.064c0,0.455-0.038,0.948-0.114,1.403h-11.181c-0.076,0.417-0.114,0.796-0.114,1.213
		c0,3.562,2.161,6.633,5.913,6.633c1.933,0,3.715-0.796,4.813-1.895l0.91,1.25C459.31,102.192,457.035,103.367,454.345,103.367z
		 M457.642,91.162c0-1.857-1.288-3.601-3.714-3.601c-2.274,0-4.245,1.857-4.662,4.321l8.376-0.379V91.162z"/>
	<path fill="#5F4C3F" d="M476.1,89.078l-1.743-0.493c-1.44,0-3.298,1.25-4.358,3.222v9.21l3.903,0.455l0.076,1.516h-10.044
		l0.075-1.516l3.298-0.455V89.418l-1.781-2.236v-0.568l4.358-0.568l-0.151,4.018c1.668-3.184,3.449-4.208,5.344-4.208
		c0.493,0,0.948,0.038,1.402,0.19L476.1,89.078z"/>
	<path fill="#5F4C3F" d="M488.342,102.988l0.152-1.592l3.639-0.455V79.185l-3.753-0.455l0.189-1.592h10.31l-0.151,1.592
		l-3.601,0.455v21.756l3.677,0.455l0.113,1.592H488.342z"/>
	<path fill="#5F4C3F" d="M514.609,102.988l0.076-1.516l2.388-0.455v-8.528c0-3.335-1.819-4.473-3.791-4.473
		c-1.63,0-3.411,0.682-4.699,1.857v11.143l2.805,0.455l0.075,1.516h-8.906l0.075-1.516l3.298-0.455V89.418l-1.781-2.236v-0.568
		l4.32-0.568l-0.151,2.501c1.781-1.895,3.79-2.691,5.609-2.691c3.525,0,5.8,1.706,5.8,6.406v8.755l2.956,0.455l0.076,1.516H514.609z
		"/>
	<path fill="#5F4C3F" d="M524.844,102.988l0.075-1.516l3.298-0.455V89.418l-1.781-2.236v-0.568l4.699-0.568l-0.227,2.463v12.508
		l3.259,0.455l0.076,1.516H524.844z M529.468,81.762c-0.91,0-1.63-0.758-1.63-1.667c0-0.91,0.72-1.63,1.63-1.63
		c0.909,0,1.63,0.72,1.63,1.63C531.098,81.004,530.377,81.762,529.468,81.762z"/>
	<path fill="#5F4C3F" d="M544.06,103.367c-3.146,0-5.079-1.516-5.079-5.572v-9.551h-2.918v-1.099l2.956-1.592l1.896-2.805h0.72
		v3.525h5.534v1.971h-5.534v9.021c0,2.767,1.213,4.018,3.07,4.018c0.985,0,2.123-0.228,3.032-0.531l0.341,1.782
		C547.017,103.14,545.159,103.367,544.06,103.367z"/>
	<path fill="#5F4C3F" d="M550.275,102.988l0.076-1.516l3.298-0.455V89.418l-1.781-2.236v-0.568l4.699-0.568l-0.228,2.463v12.508
		l3.26,0.455l0.076,1.516H550.275z M554.9,81.762c-0.91,0-1.63-0.758-1.63-1.667c0-0.91,0.72-1.63,1.63-1.63
		c0.909,0,1.63,0.72,1.63,1.63C556.53,81.004,555.81,81.762,554.9,81.762z"/>
	<path fill="#5F4C3F" d="M577.188,102.874c-0.72,0.303-1.668,0.493-2.274,0.493c-1.667,0-2.994-0.947-3.222-2.843
		c-1.516,0.986-3.222,2.047-5.192,2.843c-2.843,0-4.7-1.592-4.7-3.942c0-2.123,1.63-3.373,3.222-4.056l6.481-0.265
		c0.038-1.478,0.038-2.426,0.038-3.639c0-2.35-1.251-3.714-3.222-3.714c-0.796,0-1.668,0.265-2.274,0.53l-0.909,3.942l-1.479-0.304
		l-0.228-3.866c2.009-1.44,4.018-2.199,5.951-2.199c2.69,0,4.813,1.365,4.813,5.307c0,0.568-0.113,7.088-0.113,7.542
		c0,2.009,0.682,2.881,2.426,2.881c0.227,0,0.53-0.076,0.758-0.114L577.188,102.874z M565.097,97.151
		c-0.228,0.493-0.417,1.023-0.417,1.592c0,1.706,0.985,2.501,2.615,2.501c1.327-0.493,3.184-1.402,4.17-2.009l0.037-2.957
		L565.097,97.151z"/>
	<path fill="#5F4C3F" d="M587.042,103.367c-3.146,0-5.079-1.516-5.079-5.572v-9.551h-2.918v-1.099l2.956-1.592l1.896-2.805h0.72
		v3.525h5.534v1.971h-5.534v9.021c0,2.767,1.213,4.018,3.07,4.018c0.985,0,2.123-0.228,3.032-0.531l0.341,1.782
		C589.999,103.14,588.142,103.367,587.042,103.367z"/>
	<path fill="#5F4C3F" d="M593.258,102.988l0.076-1.516l3.298-0.455V89.418l-1.781-2.236v-0.568l4.699-0.568l-0.228,2.463v12.508
		l3.26,0.455l0.076,1.516H593.258z M597.883,81.762c-0.91,0-1.63-0.758-1.63-1.667c0-0.91,0.72-1.63,1.63-1.63
		c0.909,0,1.63,0.72,1.63,1.63C599.513,81.004,598.792,81.762,597.883,81.762z"/>
	<path fill="#5F4C3F" d="M621.799,87.789l-1.781,0.379l-6.747,14.82h-1.819l-6.178-14.782l-2.236-0.265l0.076-1.479l5.382-0.379
		l-0.341,1.971l4.624,11.826l4.89-11.712l-3.223-0.379l0.076-1.516h7.354L621.799,87.789z"/>
	<path fill="#5F4C3F" d="M631.503,103.367c-4.019,0-8.226-2.767-8.226-8.566c0-6.064,4.321-8.945,7.922-8.945
		c4.207,0,6.33,2.729,6.33,6.064c0,0.455-0.038,0.948-0.114,1.403h-11.181c-0.076,0.417-0.114,0.796-0.114,1.213
		c0,3.562,2.161,6.633,5.913,6.633c1.933,0,3.715-0.796,4.813-1.895l0.91,1.25C636.468,102.192,634.193,103.367,631.503,103.367z
		 M634.8,91.162c0-1.857-1.288-3.601-3.714-3.601c-2.274,0-4.245,1.857-4.662,4.321l8.376-0.379V91.162z"/>
</g>
<g>
	<polygon fill="#868789" points="674.518,117.167 667.901,117.167 686.988,81.661 673.372,81.661 672.163,87.896 667.328,87.324 
		667.072,73.581 695.197,73.581 695.197,79.498 	"/>
	<polygon fill="#868789" points="715.706,92.225 715.706,99.263 710.804,99.263 710.804,92.225 705.167,92.225 705.167,87.58 
		710.804,87.58 710.804,80.922 715.706,80.922 715.706,87.58 721.343,87.58 721.343,92.225 	"/>
	<polygon fill="#868789" points="734.431,105.269 734.558,100.815 742.702,99.86 742.702,79.563 735.065,80.388 735.065,75.617 
		746.264,72.943 751.737,72.943 751.737,99.86 758.227,100.815 758.354,105.269 	"/>
</g>
</svg>
